<svg xmlns="http://www.w3.org/2000/svg" width="32.067" height="37.396" viewBox="0 0 32.067 37.396">
  <g id="female" transform="translate(0)">
    <path id="Path_14" data-name="Path 14" d="M68.055,289.364l1.3.36,3.436.955a9.4,9.4,0,0,1,6.889,9.064v5.529H47.61v-5.529a9.4,9.4,0,0,1,5.226-8.425l2.507-.87,2.736-.759,1.544-.429" transform="translate(-47.61 -267.877)" fill="#da2f37"/>
    <path id="Path_15" data-name="Path 15" d="M126.83,420.279v-5.884a.575.575,0,0,1,1.15,0v5.884Zm18.893,0v-5.884a.575.575,0,0,1,1.15,0v5.884Z" transform="translate(-120.756 -382.887)" fill="#58575d"/>
    <path id="Path_16" data-name="Path 16" d="M54.257,460.63H47.61v2.87h6.65Z" transform="translate(-47.61 -426.108)" fill="#58575d"/>
    <path id="Path_17" data-name="Path 17" d="M96.37,135a8.272,8.272,0,0,0-1.448,1.375,7.676,7.676,0,0,0-1.746,3.35c-.2.93-.066,1.317.194,4.079a25.5,25.5,0,0,1,.254,4.554q-.044.273-.105.526c-.57,2.406-2.117,3.5-1.812,4.047.342.613,2.741.064,3.829-1.822a5.25,5.25,0,0,0,.491-3.1,12.781,12.781,0,0,1,1.876-7.78" transform="translate(-88.29 -125.444)" fill="#2b2d42"/>
    <path id="Path_18" data-name="Path 18" d="M212.32,333.294h6.4v2.87h-6.4ZM198.2,322.72a5.44,5.44,0,0,0,9.134,0" transform="translate(-186.654 -298.771)" fill="#58575d"/>
    <path id="Path_19" data-name="Path 19" d="M198.2,322.637a5.44,5.44,0,0,0,9.134,0l.01-.007H198.21" transform="translate(-186.654 -298.688)" fill="none"/>
    <path id="Path_20" data-name="Path 20" d="M185.482,234.52v.005a8.392,8.392,0,0,1,.52,2.535,5.156,5.156,0,0,1-.327,1.652l-1.544.429s.974,1.957,1.086,2.133h9.137c.12-.187,1.052-2.094,1.052-2.094l-1.3-.36a5.131,5.131,0,0,1-.37-1.763,6.362,6.362,0,0,1,.412-2.206" transform="translate(-173.663 -217.334)" fill="#bca28b"/>
    <ellipse id="Ellipse_2" data-name="Ellipse 2" cx="8.316" cy="9.366" rx="8.316" ry="9.366" transform="translate(8.074)" fill="#c8ad92"/>
    <path id="Path_21" data-name="Path 21" d="M153.165,14.814l-.159.159A1.356,1.356,0,0,1,153.165,14.814Zm0,6.827a10.468,10.468,0,0,1-.163-1.7v-.188c0-5.172,3.723-9.366,8.316-9.366s8.316,4.194,8.316,9.366a10.5,10.5,0,0,1-.292,2.47l-7.229-4.2c-1.056-.613-1.793-2.166-1.057-3.051l-1.076,1.081Z" transform="translate(-144.92 -10.388)" fill="#2b2d42"/>
  </g>
</svg>
