<svg xmlns="http://www.w3.org/2000/svg" width="302.761" height="278.339" viewBox="0 0 302.761 278.339">
  <g id="Group_5930" data-name="Group 5930" transform="translate(-36 -114)">
    <path id="Path_4844" data-name="Path 4844" d="M113.683,8.822c81.441,0,197.551,16.956,197.551,98.4S277.27,276.046,199.213,285.848,8.474,249.97,8.474,168.529,32.242,8.822,113.683,8.822Z" transform="translate(27.526 105.178)" fill="#f6f6f6"/>
    <g id="Payment_Information-bro" data-name="Payment Information-bro" transform="translate(56.036 114.09)">
      <g id="freepik--Graphics--inject-73" transform="translate(21.964 38.91)">
        <rect id="Rectangle_4311" data-name="Rectangle 4311" width="27.975" height="17.889" rx="3.52" transform="translate(33.259 42.208) rotate(16.809)" fill="none" stroke="#263238" stroke-miterlimit="10" stroke-width="1.003"/>
        <line id="Line_35" data-name="Line 35" x2="26.691" y2="8.089" transform="translate(31.933 45.993)" fill="none" stroke="#263238" stroke-miterlimit="10" stroke-width="1"/>
        <line id="Line_36" data-name="Line 36" x2="26.696" y2="8.089" transform="translate(31.12 48.671)" fill="none" stroke="#263238" stroke-miterlimit="10" stroke-width="1"/>
        <path id="Path_5674" data-name="Path 5674" d="M120.978,163.045a1.743,1.743,0,0,0,.152,1.361,1.763,1.763,0,0,1-1.288.108A1.738,1.738,0,1,1,121.86,162,1.763,1.763,0,0,0,120.978,163.045Z" transform="translate(-71.286 -101.276)" fill="none" stroke="#263238" stroke-miterlimit="10" stroke-width="1"/>
        <path id="Path_5675" data-name="Path 5675" d="M126.695,164.78a1.738,1.738,0,1,1-1.156-2.169A1.738,1.738,0,0,1,126.695,164.78Z" transform="translate(-73.678 -102.002)" fill="none" stroke="#263238" stroke-miterlimit="10" stroke-width="1"/>
        <rect id="Rectangle_4312" data-name="Rectangle 4312" width="23.723" height="15.169" rx="3.51" transform="translate(196.919 76.787) rotate(16.86)" fill="none" stroke="#263238" stroke-miterlimit="10" stroke-width="1"/>
        <line id="Line_37" data-name="Line 37" x2="22.705" y2="6.88" transform="translate(195.896 80.16)" fill="none" stroke="#263238" stroke-miterlimit="10" stroke-width="1"/>
        <line id="Line_38" data-name="Line 38" x2="22.7" y2="6.88" transform="translate(195.206 82.442)" fill="none" stroke="#263238" stroke-miterlimit="10" stroke-width="1"/>
        <path id="Path_5676" data-name="Path 5676" d="M450.822,228.3a1.469,1.469,0,0,0,.127,1.156,1.476,1.476,0,1,1,.622-2.047A1.469,1.469,0,0,0,450.822,228.3Z" transform="translate(-239.82 -134.73)" fill="none" stroke="#263238" stroke-miterlimit="10" stroke-width="1"/>
        <path id="Path_5677" data-name="Path 5677" d="M455.667,229.791a1.469,1.469,0,1,1-.1-1.128,1.469,1.469,0,0,1,.1,1.128Z" transform="translate(-241.841 -135.353)" fill="none" stroke="#263238" stroke-miterlimit="10" stroke-width="1"/>
        <rect id="Rectangle_4313" data-name="Rectangle 4313" width="31.171" height="16.217" transform="matrix(0.909, -0.416, 0.416, 0.909, 158.564, 42.504)" fill="none" stroke="#263238" stroke-miterlimit="10" stroke-width="1"/>
        <path id="Path_5678" data-name="Path 5678" d="M380.991,114.385l-4.289-9.367a1.665,1.665,0,0,1-2.2-.818l-22.911,10.488a1.665,1.665,0,0,1-.818,2.2l4.289,9.367a1.66,1.66,0,0,1,2.2.823l22.906-10.493a1.66,1.66,0,0,1,.823-2.2Z" transform="translate(-189.771 -72.231)" fill="none" stroke="#263238" stroke-miterlimit="10" stroke-width="1"/>
        <circle id="Ellipse_43" data-name="Ellipse 43" cx="4.26" cy="4.26" r="4.26" transform="translate(170.136 42.608) rotate(-37.53)" fill="none" stroke="#263238" stroke-miterlimit="10" stroke-width="1"/>
        <path id="Path_5679" data-name="Path 5679" d="M380.664,126.54l.318.7-.3.137-.313-.686a2.5,2.5,0,0,1-1.7.108v-.426a2.247,2.247,0,0,0,1.508-.073l-.72-1.586c-.744.142-1.513.25-1.88-.553-.264-.578-.078-1.273.813-1.768l-.318-.7.3-.137.333.71a2.581,2.581,0,0,1,1.4-.186v.426a2.448,2.448,0,0,0-1.239.142l.734,1.606c.759-.152,1.567-.289,1.959.524C381.805,125.335,381.595,126.045,380.664,126.54Zm-1.4-2.257-.7-1.533c-.6.338-.734.788-.558,1.17.206.48.7.46,1.249.362Zm1.846.69c-.216-.49-.734-.441-1.312-.328l.69,1.513c.666-.353.793-.8.617-1.185Z" transform="translate(-203.395 -81.085)" fill="#263238"/>
        <rect id="Rectangle_4314" data-name="Rectangle 4314" width="21.882" height="11.381" transform="translate(8.701 98.658) rotate(-5.143)" fill="none" stroke="#263238" stroke-miterlimit="10" stroke-width="1.004"/>
        <path id="Path_5680" data-name="Path 5680" d="M61.4,246.281l-.617-7.173a1.165,1.165,0,0,1-1.258-1.058l-17.549,1.518a1.17,1.17,0,0,1-1.058,1.258L41.537,248a1.16,1.16,0,0,1,1.258,1.058l17.549-1.518a1.17,1.17,0,0,1,1.058-1.258Z" transform="translate(-31.638 -140.542)" fill="none" stroke="#263238" stroke-miterlimit="10" stroke-width="1"/>
        <path id="Path_5681" data-name="Path 5681" d="M61.7,245.931a2.977,2.977,0,1,1-1.051-2.026A2.982,2.982,0,0,1,61.7,245.931Z" transform="translate(-39.203 -143.173)" fill="none" stroke="#263238" stroke-miterlimit="10" stroke-width="1"/>
        <path id="Path_5682" data-name="Path 5682" d="M60.865,248.639l.044.534h-.23l-.049-.529a1.748,1.748,0,0,1-1.141-.328l.108-.274a1.6,1.6,0,0,0,1.009.3l-.1-1.219c-.524-.078-1.058-.191-1.107-.8-.039-.446.245-.862.95-.979l-.044-.534h.23l.044.524a1.841,1.841,0,0,1,.979.211l-.093.279a1.743,1.743,0,0,0-.847-.2l.1,1.229c.534.078,1.1.181,1.156.8C61.9,248.115,61.595,248.531,60.865,248.639Zm-.392-1.817-.1-1.16c-.49.083-.666.348-.641.641s.353.455.744.519Zm1.053.891c-.034-.367-.382-.49-.788-.529l.1,1.16C61.345,248.262,61.551,248.007,61.526,247.714Z" transform="translate(-41.066 -143.992)" fill="#263238"/>
        <circle id="Ellipse_44" data-name="Ellipse 44" cx="4.26" cy="4.26" r="4.26" transform="translate(202.55 27.616)" fill="none" stroke="#263238" stroke-miterlimit="10" stroke-width="1"/>
        <path id="Path_5683" data-name="Path 5683" d="M442.694,103.114v.764h-.353v-.759a2.536,2.536,0,0,1-1.591-.6l.191-.382a2.3,2.3,0,0,0,1.4.568v-1.748c-.734-.181-1.469-.406-1.469-1.288,0-.637.46-1.19,1.469-1.268V97.62h.333v.759a2.58,2.58,0,0,1,1.351.416l-.166.392a2.448,2.448,0,0,0-1.185-.387v1.763c.749.181,1.542.392,1.542,1.288C444.236,102.492,443.752,103.055,442.694,103.114Zm-.333-2.639v-1.66c-.686.059-.979.411-.979.832-.02.5.431.69.96.828Zm1.391,1.4c0-.524-.49-.705-1.058-.847V102.7C443.423,102.639,443.752,102.3,443.752,101.875Z" transform="translate(-235.693 -68.873)" fill="#263238"/>
        <circle id="Ellipse_45" data-name="Ellipse 45" cx="4.26" cy="4.26" r="4.26" transform="translate(172.652 81.551) rotate(-13.26)" fill="none" stroke="#263238" stroke-miterlimit="10" stroke-width="1"/>
        <path id="Path_5684" data-name="Path 5684" d="M381.462,211.177l-.4.651-.284-.176.4-.646a2.492,2.492,0,0,1-1.038-1.347l.362-.225a2.282,2.282,0,0,0,.9,1.209l.921-1.493c-.534-.534-1.048-1.116-.588-1.866.333-.544,1.014-.774,1.924-.309l.4-.656.284.176-.4.646a2.654,2.654,0,0,1,.935,1.058l-.348.25a2.5,2.5,0,0,0-.808-.95L382.8,209c.548.548,1.111,1.141.641,1.9C383.1,211.456,382.4,211.677,381.462,211.177Zm1.1-2.448.867-1.415c-.612-.308-1.058-.171-1.278.186-.264.455.015.852.411,1.254Zm.451,1.919c.274-.446-.044-.852-.46-1.273l-.872,1.42c.651.362,1.107.264,1.327-.122Z" transform="translate(-204.76 -124.348)" fill="#263238"/>
        <path id="Path_5685" data-name="Path 5685" d="M251.7,41.4a4.255,4.255,0,1,1-2.386-2.224A4.26,4.26,0,0,1,251.7,41.4Z" transform="translate(-135.058 -38.91)" fill="none" stroke="#263238" stroke-miterlimit="10" stroke-width="1"/>
        <path id="Path_5686" data-name="Path 5686" d="M251.274,46.624l.318.7-.3.142-.323-.69a2.5,2.5,0,0,1-1.7.108v-.426a2.262,2.262,0,0,0,1.5-.069l-.725-1.6c-.744.142-1.513.245-1.88-.553-.264-.583-.078-1.273.818-1.768l-.318-.7.3-.137.318.69a2.58,2.58,0,0,1,1.4-.186v.426a2.473,2.473,0,0,0-1.239.142l.734,1.606c.759-.152,1.567-.284,1.959.524C252.435,45.42,252.209,46.13,251.274,46.624Zm-1.4-2.257-.69-1.513c-.6.338-.734.788-.558,1.165C248.836,44.48,249.32,44.465,249.874,44.367Zm1.846.69c-.22-.49-.734-.436-1.312-.328l.69,1.513c.641-.353.8-.793.622-1.185Z" transform="translate(-137.35 -40.298)" fill="#263238"/>
        <path id="Path_5687" data-name="Path 5687" d="M218.14,392.428a6.4,6.4,0,1,1-8.481-3.163,6.4,6.4,0,0,1,8.481,3.163Z" transform="translate(-115.845 -217.419)" fill="none" stroke="#263238" stroke-miterlimit="10" stroke-width="1"/>
        <path id="Path_5688" data-name="Path 5688" d="M217.527,400.291l.49,1.048-.455.206-.49-1.038a3.751,3.751,0,0,1-2.551.166l.029-.637a3.394,3.394,0,0,0,2.257-.113l-1.092-2.39c-1.111.211-2.272.367-2.82-.832-.4-.872-.118-1.914,1.224-2.659l-.49-1.043.45-.21.49,1.038a3.918,3.918,0,0,1,2.106-.279v.637a3.693,3.693,0,0,0-1.856.215l1.1,2.409c1.141-.225,2.355-.426,2.913.788C219.251,398.485,218.937,399.552,217.527,400.291Zm-2.1-3.393-1.043-2.272c-.9.49-1.1,1.18-.832,1.758C213.869,397.074,214.594,397.05,215.431,396.9Zm2.771,1.043c-.328-.72-1.107-.661-1.959-.49l1.038,2.272C218.247,399.19,218.467,398.524,218.2,397.941Z" transform="translate(-119.321 -219.514)" fill="#263238"/>
        <path id="Path_5689" data-name="Path 5689" d="M32.588,181.548a6.4,6.4,0,1,1,.583-9.034A6.4,6.4,0,0,1,32.588,181.548Z" transform="translate(-21.964 -105.986)" fill="none" stroke="#263238" stroke-miterlimit="10" stroke-width="1"/>
        <path id="Path_5690" data-name="Path 5690" d="M28.714,182.469l-.862.759-.333-.377.857-.749a3.8,3.8,0,0,1-.9-2.4l.622-.157a3.428,3.428,0,0,0,.739,2.125l1.959-1.733c-.524-1-1.009-2.071,0-2.938.725-.632,1.8-.661,2.9.406l.891-.754.328.372-.857.754a3.917,3.917,0,0,1,.852,1.934l-.607.2a3.755,3.755,0,0,0-.739-1.719l-1.993,1.748c.544,1.023,1.087,2.13.083,3.016C30.927,183.6,29.816,183.629,28.714,182.469Zm2.644-2.987,1.875-1.65c-.744-.715-1.469-.71-1.919-.294-.588.5-.353,1.195.029,1.944Zm-.2,2.938c.6-.519.318-1.249-.093-2.032l-1.875,1.65c.769.788,1.484.818,1.973.4Z" transform="translate(-24.779 -109.159)" fill="#263238"/>
        <circle id="Ellipse_46" data-name="Ellipse 46" cx="3.09" cy="3.09" r="3.09" transform="matrix(0.04, -1, 1, 0.04, 33.617, 132.99)" fill="none" stroke="#263238" stroke-miterlimit="10" stroke-width="1"/>
        <path id="Path_5691" data-name="Path 5691" d="M96.069,302.49l.353.426-.181.152-.353-.421a1.822,1.822,0,0,1-1.17.4l-.069-.3a1.651,1.651,0,0,0,1.038-.333l-.813-.979c-.49.24-1.009.46-1.42-.029-.294-.353-.294-.876.235-1.4l-.357-.426.186-.152.353.421a1.9,1.9,0,0,1,.945-.4l.088.294a1.854,1.854,0,0,0-.837.338l.818.979c.49-.25,1.043-.49,1.469,0C96.652,301.428,96.642,301.966,96.069,302.49Zm-1.4-1.312-.774-.925c-.353.353-.357.69-.166.925S94.3,301.349,94.669,301.178Zm1.425.132c-.245-.289-.6-.166-.979.024l.774.925c.377-.372.4-.715.206-.955Z" transform="translate(-58.349 -171.867)" fill="#263238"/>
        <path id="Path_5692" data-name="Path 5692" d="M291.895,428.012a3.09,3.09,0,1,1-4.353-.4,3.09,3.09,0,0,1,4.353.4Z" transform="translate(-156.935 -236.922)" fill="none" stroke="#263238" stroke-miterlimit="10" stroke-width="1"/>
        <path id="Path_5693" data-name="Path 5693" d="M292.26,432.53l.357.426-.186.152-.353-.421a1.807,1.807,0,0,1-1.165.4l-.069-.3a1.621,1.621,0,0,0,1.038-.333l-.813-.979c-.49.24-1.014.46-1.42-.029-.3-.353-.3-.876.23-1.4l-.353-.426.186-.152.353.421a1.856,1.856,0,0,1,.945-.4l.088.294a1.875,1.875,0,0,0-.842.338l.823.979c.49-.25,1.043-.49,1.469,0C292.833,431.468,292.823,432.006,292.26,432.53Zm-1.405-1.332-.774-.925c-.357.353-.362.69-.166.925S290.483,431.389,290.855,431.2Zm1.42.137c-.245-.294-.6-.171-.979,0l.774.925c.382-.333.406-.676.206-.911Z" transform="translate(-158.476 -238.233)" fill="#263238"/>
        <circle id="Ellipse_47" data-name="Ellipse 47" cx="3.09" cy="3.09" r="3.09" transform="translate(43.96 17.581) rotate(-84.76)" fill="none" stroke="#263238" stroke-miterlimit="10" stroke-width="1"/>
        <path id="Path_5694" data-name="Path 5694" d="M118.137,68.43l.353.426-.186.152-.353-.421a1.8,1.8,0,0,1-1.165.4l-.069-.3a1.65,1.65,0,0,0,1.038-.333l-.813-.979c-.49.24-1.014.46-1.42-.029-.294-.353-.3-.876.235-1.4l-.357-.426.186-.152.353.421a1.875,1.875,0,0,1,.945-.4l.088.294a1.856,1.856,0,0,0-.837.338l.818.979c.49-.25,1.043-.49,1.469,0C118.71,67.368,118.7,67.906,118.137,68.43Zm-1.41-1.317-.774-.945c-.353.353-.362.69-.166.925S116.355,67.289,116.727,67.113Zm1.425.132c-.245-.289-.6-.166-.979,0l.774.925c.377-.343.4-.686.206-.925Z" transform="translate(-69.611 -52.414)" fill="#263238"/>
      </g>
      <g id="freepik--Device--inject-73" transform="translate(34.438 55.465)">
        <path id="Path_5695" data-name="Path 5695" d="M171.366,301.154s-3.775,19.16-26.931,23.5c0,0-6.047,4.823-8.06,7.678s-12.731,7.707-23.65,22.847S85.55,322.243,85.55,322.243l35.93-46.663Z" transform="translate(-66.89 -176.25)" fill="rgba(0,0,0,0.7)" opacity="0.2"/>
        <path id="Path_5696" data-name="Path 5696" d="M282.737,138.686s12.486-6.106,15.233-5.053,5.386,7.369-5.117,13.416-7.369,17.314-7.369,17.314h7.492s4.495,1.831,6.243,4.187,3,10.385,4,13.108.49,5.45-2.247,6.336c0,0-1.748,7.619-1.249,11s.25,5.553-3,5.964a5.665,5.665,0,0,1-6.243-5.964l-2.5,9.049,1.748,3.477a22.6,22.6,0,0,1,6.742,4.084c3.5,3,6.992,3.814,5.993,7.154s-3,6.938-13.485,2.766-19.228-20.565-19.228-20.565l-6.3-57.161Z" transform="translate(-157.681 -103.745)" fill="#fff"/>
        <path id="Path_5697" data-name="Path 5697" d="M295.879,172.067c-5.66,7.717.6,16.6.6,16.6a9.076,9.076,0,0,0-4.03,7.756,39.135,39.135,0,0,0,1.234,8.549,5.611,5.611,0,0,1-3.2-5.44l-2.5,9.049,1.748,3.472a21.431,21.431,0,0,1,5.151,2.835c-1.552,3.565-2.027,7.971-1.89,12.515a33.407,33.407,0,0,1-4.01-1.342c-10.488-4.177-19.228-20.565-19.228-20.565l-6.3-57.166,19.287-9.1a88.27,88.27,0,0,1,11.492-4.652,37.66,37.66,0,0,0,1.107,11.4,26.337,26.337,0,0,1-2.483,1.611c-10.488,6.047-7.369,17.314-7.369,17.314h7.5s4.27,1.743,6.1,4.01A12.241,12.241,0,0,0,295.879,172.067Z" transform="translate(-157.681 -104.29)" fill="#da2f37" opacity="0.4"/>
        <path id="Path_5698" data-name="Path 5698" d="M152.988,233.223s-13.583,26.632-38.065,32.674c0,0-.935,5.269-5.078,7.531-2.213,1.2-11.144,14.587-18.984,26.8L47.44,273.594c2.673-2.644,5.719-5.69,8.814-8.868,9.058-9.235,18.724-19.586,21.682-24.708,2.644-4.554,5.988-12.457,8.9-19.885,3.731-9.5,6.767-18.225,6.767-18.225l14.474-16.09,22.754-25.3.979,3.237Z" transform="translate(-47.44 -117.529)" fill="#fff"/>
        <path id="Path_5699" data-name="Path 5699" d="M178.651,160.52l22.137,72.7s-13.583,26.632-38.065,32.674c0,0-.935,5.269-5.078,7.531-1.988,1.082-9.387,11.977-16.545,23.013,2.654-9.107,10.336-23.625,10.336-23.625-4.931-5.841-3.491-12-1.518-10.243s6.933,6.679,7.247,6.987a14.478,14.478,0,0,1-2.683-6.586s6.111,4.064,6.605-2.448-3.663-22.426-3.663-22.426l-10.914-41.845Z" transform="translate(-95.24 -117.529)" fill="#da2f37" opacity="0.4"/>
        <path id="Path_5700" data-name="Path 5700" d="M263.45,147.793l19.287-9.107s12.486-6.106,15.233-5.053,5.386,7.369-5.117,13.416-7.369,17.314-7.369,17.314h7.492s4.495,1.831,6.243,4.187,3,10.385,4,13.108.49,5.45-2.247,6.336c0,0-1.748,7.619-1.249,11s.25,5.553-3,5.964a5.665,5.665,0,0,1-6.243-5.964l-2.5,9.049,1.748,3.477a22.6,22.6,0,0,1,6.742,4.084c3.5,3,6.992,3.814,5.993,7.154s-3,6.938-13.485,2.766-19.228-20.565-19.228-20.565" transform="translate(-157.681 -103.745)" fill="none" stroke="#263238" stroke-linecap="round" stroke-linejoin="round" stroke-width="1"/>
        <path id="Path_5701" data-name="Path 5701" d="M329.461,223.177c-3.746,1.014-8.113.264-9.739-6.365s1.626-13.71,3.746-14.361" transform="translate(-186.175 -138.928)" fill="none" stroke="#263238" stroke-linecap="round" stroke-linejoin="round" stroke-width="1"/>
        <path id="Path_5702" data-name="Path 5702" d="M318.645,256.16s-.25-8.525,2.874-10.63" transform="translate(-185.848 -160.914)" fill="none" stroke="#263238" stroke-linecap="round" stroke-linejoin="round" stroke-width="1"/>
        <path id="Path_5703" data-name="Path 5703" d="M98.355,317.25s-9.152-1.141-11.193-5.234c-1.689-3.388-10.846,9.3-21.682,14.846,9.058-9.235,18.724-19.586,21.682-24.708,2.644-4.554,5.988-12.457,8.9-19.885h0c-.147,6.16-3.428,15.59-2.492,20.5a3.942,3.942,0,0,0-2.815,4.769C91.456,311.443,98.355,317.25,98.355,317.25Z" transform="translate(-56.647 -179.664)" fill="#da2f37" opacity="0.4"/>
        <path id="Path_5704" data-name="Path 5704" d="M198.241,309s-13.583,26.632-38.07,32.674c0,0-.93,5.269-5.073,7.531-2.213,1.2-11.139,14.587-18.989,26.8" transform="translate(-92.693 -193.306)" fill="none" stroke="#263238" stroke-linecap="round" stroke-linejoin="round" stroke-width="1"/>
        <path id="Path_5705" data-name="Path 5705" d="M47.44,273.594c10.459-10.336,26.534-26.725,30.515-33.575,6.023-10.366,15.669-38.114,15.669-38.114l37.213-41.385" transform="translate(-47.44 -117.529)" fill="none" stroke="#263238" stroke-linecap="round" stroke-linejoin="round" stroke-width="1"/>
        <path id="Path_5706" data-name="Path 5706" d="M174.39,225.07s5.719,5.122,7.345,9.793" transform="translate(-112.229 -150.472)" fill="none" stroke="#263238" stroke-linecap="round" stroke-linejoin="round" stroke-width="1"/>
        <rect id="Rectangle_4315" data-name="Rectangle 4315" width="68.125" height="137.586" rx="6.73" transform="translate(64.839)" fill="#263238"/>
        <path id="Path_5707" data-name="Path 5707" d="M229.981,79.492l-1.3,2.385a1.626,1.626,0,0,1-1.425.862H205.709a1.64,1.64,0,0,1-1.43-.852l-1.3-2.385a1.626,1.626,0,0,0-1.43-.852H186.5a1.63,1.63,0,0,0-1.626,1.64V209.068A1.631,1.631,0,0,0,186.5,210.7h59.962a1.63,1.63,0,0,0,1.64-1.631V80.29a1.631,1.631,0,0,0-1.631-1.631H231.416A1.626,1.626,0,0,0,229.981,79.492Z" transform="translate(-117.578 -75.746)" fill="#da2f37" stroke="#263238" stroke-linecap="round" stroke-linejoin="round" stroke-width="1"/>
        <circle id="Ellipse_48" data-name="Ellipse 48" cx="0.876" cy="0.876" r="0.876" transform="translate(93.351 3.148)" fill="none" stroke="#fff" stroke-miterlimit="10" stroke-width="1"/>
        <path id="Path_5708" data-name="Path 5708" d="M259.617,80.368a.543.543,0,1,1-.157-.387A.544.544,0,0,1,259.617,80.368Z" transform="translate(-155.17 -76.344)" fill="none" stroke="#fff" stroke-miterlimit="10" stroke-width="1"/>
        <path id="Path_5709" data-name="Path 5709" d="M249.865,80.24h-5.327a.338.338,0,0,0-.338.343h0a.338.338,0,0,0,.338.338h5.327a.338.338,0,0,0,.338-.338h0a.338.338,0,0,0-.338-.343Z" transform="translate(-147.857 -76.558)" fill="#fff"/>
        <rect id="Rectangle_4316" data-name="Rectangle 4316" width="5.744" height="2.438" transform="translate(72.698 6.17)" fill="none" stroke="#263238" stroke-linecap="round" stroke-linejoin="round" stroke-width="1"/>
        <rect id="Rectangle_4317" data-name="Rectangle 4317" width="0.891" height="1.621" transform="translate(78.437 6.581)" fill="none" stroke="#263238" stroke-linecap="round" stroke-linejoin="round" stroke-width="1"/>
        <rect id="Rectangle_4318" data-name="Rectangle 4318" width="1.018" height="0.886" transform="translate(118.123 7.727)" fill="none" stroke="#263238" stroke-linecap="round" stroke-linejoin="round" stroke-width="1"/>
        <rect id="Rectangle_4319" data-name="Rectangle 4319" width="1.018" height="1.777" transform="translate(120.11 6.835)" fill="none" stroke="#263238" stroke-linecap="round" stroke-linejoin="round" stroke-width="1"/>
        <rect id="Rectangle_4320" data-name="Rectangle 4320" width="1.018" height="2.664" transform="translate(122.098 5.944)" fill="none" stroke="#263238" stroke-linecap="round" stroke-linejoin="round" stroke-width="1"/>
        <rect id="Rectangle_4321" data-name="Rectangle 4321" width="1.018" height="3.555" transform="translate(124.082 5.053)" fill="none" stroke="#263238" stroke-linecap="round" stroke-linejoin="round" stroke-width="1"/>
        <rect id="Rectangle_4322" data-name="Rectangle 4322" width="62.401" height="59.517" transform="translate(67.699 31.357)" fill="#fff" opacity="0.5"/>
        <path id="Path_5710" data-name="Path 5710" d="M217.031,115.293v1.033c0,1.278-.612,1.959-1.866,1.959h-.592v2.992H213.32V113.32h1.846C216.419,113.32,217.031,114.015,217.031,115.293Zm-2.448-.832v2.7h.592c.4,0,.612-.181.612-.749v-1.2c0-.568-.215-.749-.612-.749Z" transform="translate(-132.097 -93.44)" fill="#263238"/>
        <path id="Path_5711" data-name="Path 5711" d="M225.5,121.291h-1.263l-.22-1.444h-1.533l-.22,1.444H221.11l1.278-7.971h1.831Zm-2.86-2.527h1.209l-.592-4.03h-.025Z" transform="translate(-136.073 -93.44)" fill="#263238"/>
        <path id="Path_5712" data-name="Path 5712" d="M230.862,118.652l-1.582-5.332h1.332l.945,3.633h.024l.945-3.633h1.195l-1.582,5.332v2.639h-1.253Z" transform="translate(-140.243 -93.44)" fill="#263238"/>
        <path id="Path_5713" data-name="Path 5713" d="M241.954,118.98h.024l.842-5.66h1.743v7.971h-1.185v-5.714h0l-.842,5.714h-1.185l-.911-5.636h0v5.636H239.3V113.32h1.743Z" transform="translate(-145.356 -93.44)" fill="#263238"/>
        <path id="Path_5714" data-name="Path 5714" d="M253.164,116.679h1.728v1.141h-1.719v2.336h2.164v1.136H251.91V113.32h3.428v1.141h-2.164Z" transform="translate(-151.792 -93.44)" fill="#263238"/>
        <path id="Path_5715" data-name="Path 5715" d="M261.6,115.519h-.025v5.773H260.45V113.32h1.572l1.263,4.774h0V113.32H264.4v7.971h-1.283Z" transform="translate(-156.15 -93.44)" fill="#263238"/>
        <path id="Path_5716" data-name="Path 5716" d="M269.66,113.32h3.873v1.141h-1.312v6.831h-1.254v-6.831H269.66Z" transform="translate(-160.851 -93.44)" fill="#263238"/>
        <path id="Path_5717" data-name="Path 5717" d="M280.17,113.14c1.214,0,1.841.73,1.841,2v.25h-1.185v-.328c0-.573-.225-.788-.627-.788s-.622.215-.622.788.25,1.014,1.067,1.728a3.1,3.1,0,0,1,1.381,2.492c0,1.278-.641,2.008-1.87,2.008s-1.866-.73-1.866-2.008v-.49h1.185v.573c0,.568.25.774.646.774s.651-.206.651-.774-.25-1.014-1.072-1.733a3.083,3.083,0,0,1-1.376-2.492C278.324,113.87,278.951,113.14,280.17,113.14Z" transform="translate(-165.255 -93.348)" fill="#263238"/>
        <rect id="Rectangle_4323" data-name="Rectangle 4323" width="52.402" height="7.829" transform="translate(72.698 38.57)" fill="#fff" stroke="#263238" stroke-linecap="round" stroke-linejoin="round" stroke-width="1"/>
        <rect id="Rectangle_4324" data-name="Rectangle 4324" width="52.402" height="7.829" transform="translate(72.698 53.254)" fill="#fff" stroke="#263238" stroke-linecap="round" stroke-linejoin="round" stroke-width="1"/>
        <rect id="Rectangle_4325" data-name="Rectangle 4325" width="52.402" height="7.829" transform="translate(72.698 66.607)" fill="#fff" stroke="#263238" stroke-linecap="round" stroke-linejoin="round" stroke-width="1"/>
        <rect id="Rectangle_4326" data-name="Rectangle 4326" width="24.81" height="9.166" transform="translate(72.698 77.291)" fill="#fff" stroke="#263238" stroke-linecap="round" stroke-linejoin="round" stroke-width="1"/>
        <rect id="Rectangle_4327" data-name="Rectangle 4327" width="24.81" height="9.166" transform="translate(100.294 77.291)" fill="#fff" stroke="#263238" stroke-linecap="round" stroke-linejoin="round" stroke-width="1"/>
        <path id="Path_5718" data-name="Path 5718" d="M200.87,146.505v.211h-1.64V144.4h1.591v.211H199.48v.827h1.195v.206H199.48v.862Z" transform="translate(-124.906 -109.302)" fill="#263238"/>
        <path id="Path_5719" data-name="Path 5719" d="M206.529,146.3v1.009h-.255v-.979c0-.367-.186-.558-.49-.558a.563.563,0,0,0-.583.632v.911h-.235v-.979c0-.367-.186-.558-.49-.558a.563.563,0,0,0-.583.632v.911h-.235v-1.738h.225v.318a.705.705,0,0,1,.641-.333.617.617,0,0,1,.617.367.764.764,0,0,1,.69-.367.656.656,0,0,1,.7.734Z" transform="translate(-127.167 -109.897)" fill="#263238"/>
        <path id="Path_5720" data-name="Path 5720" d="M211.989,146.238v1.077h-.225v-.269a.666.666,0,0,1-.6.289c-.392,0-.632-.206-.632-.49s.171-.49.671-.49h.539v-.108a.427.427,0,0,0-.49-.46.876.876,0,0,0-.578.206l-.108-.176a1.126,1.126,0,0,1,.71-.235.617.617,0,0,1,.715.656Zm-.235.558v-.289h-.548c-.338,0-.446.132-.446.313s.162.328.441.328a.563.563,0,0,0,.539-.353Z" transform="translate(-130.673 -109.901)" fill="#263238"/>
        <path id="Path_5721" data-name="Path 5721" d="M214.7,144.286a.171.171,0,0,1,.171-.166.166.166,0,0,1,0,.333.171.171,0,0,1-.171-.166Zm.054.548h.235v1.738h-.235Z" transform="translate(-132.802 -109.159)" fill="#263238"/>
        <path id="Path_5722" data-name="Path 5722" d="M216.63,144.12h.235v2.448h-.235Z" transform="translate(-133.787 -109.159)" fill="#263238"/>
        <path id="Path_5723" data-name="Path 5723" d="M204.18,158.805v.211h-1.64V156.7h1.591v.211h-1.366v.823h1.2v.211h-1.2v.862Z" transform="translate(-126.596 -115.579)" fill="#263238"/>
        <path id="Path_5724" data-name="Path 5724" d="M209.855,158.583v1.009h-.235v-.979c0-.367-.186-.558-.49-.558a.558.558,0,0,0-.583.627v.916h-.235v-.979c0-.367-.186-.558-.49-.558a.558.558,0,0,0-.583.627v.916H207v-1.743h.225v.318a.71.71,0,0,1,.641-.328.627.627,0,0,1,.617.367.759.759,0,0,1,.69-.367.656.656,0,0,1,.681.734Z" transform="translate(-128.872 -116.165)" fill="#263238"/>
        <path id="Path_5725" data-name="Path 5725" d="M215.289,158.521V159.6h-.225v-.269a.651.651,0,0,1-.6.284c-.392,0-.637-.206-.637-.49s.176-.49.676-.49h.553v-.1a.427.427,0,0,0-.49-.46.9.9,0,0,0-.583.206l-.1-.176a1.087,1.087,0,0,1,.71-.235.617.617,0,0,1,.7.656Zm-.23.553v-.284h-.548c-.338,0-.446.132-.446.313s.162.328.441.328a.558.558,0,0,0,.553-.357Z" transform="translate(-132.358 -116.171)" fill="#263238"/>
        <path id="Path_5726" data-name="Path 5726" d="M218,156.556a.171.171,0,0,1,.171-.167.166.166,0,0,1,.171.167.171.171,0,0,1-.343,0Zm.054.548h.235v1.743h-.235Z" transform="translate(-134.486 -115.421)" fill="#263238"/>
        <path id="Path_5727" data-name="Path 5727" d="M219.94,156.39h.23v2.448h-.23Z" transform="translate(-135.476 -115.421)" fill="#263238"/>
        <path id="Path_5728" data-name="Path 5728" d="M223.331,158.577v1.009H223.1v-.979a.49.49,0,0,0-.519-.558.568.568,0,0,0-.612.627v.916h-.235v-1.743h.225v.323a.734.734,0,0,1,.661-.333.666.666,0,0,1,.715.739Z" transform="translate(-136.389 -116.159)" fill="#263238"/>
        <path id="Path_5729" data-name="Path 5729" d="M227.479,158.52V159.6h-.225v-.269a.651.651,0,0,1-.6.284c-.4,0-.637-.206-.637-.49s.171-.49.671-.49h.553v-.1c0-.3-.167-.46-.49-.46a.876.876,0,0,0-.578.206l-.108-.176a1.1,1.1,0,0,1,.71-.235.617.617,0,0,1,.7.656Zm-.235.553v-.284H226.7c-.338,0-.45.132-.45.313s.162.328.441.328a.558.558,0,0,0,.558-.357Z" transform="translate(-138.579 -116.17)" fill="#263238"/>
        <path id="Path_5730" data-name="Path 5730" d="M233.194,158.582v1.009h-.235v-.979c0-.367-.186-.558-.49-.558a.558.558,0,0,0-.583.627v.916h-.25v-.979c0-.367-.186-.558-.49-.558a.558.558,0,0,0-.583.627v.916h-.235v-1.743h.225v.318a.71.71,0,0,1,.641-.328.617.617,0,0,1,.617.367.764.764,0,0,1,.69-.367.656.656,0,0,1,.69.734Z" transform="translate(-140.778 -116.164)" fill="#263238"/>
        <path id="Path_5731" data-name="Path 5731" d="M238.818,158.774h-1.469a.646.646,0,0,0,.69.6.69.69,0,0,0,.534-.23l.132.152a.921.921,0,0,1-1.586-.6.837.837,0,0,1,.852-.881.828.828,0,0,1,.842.881S238.818,158.75,238.818,158.774Zm-1.469-.176h1.234a.617.617,0,1,0-1.234,0Z" transform="translate(-144.242 -116.146)" fill="#263238"/>
        <path id="Path_5732" data-name="Path 5732" d="M244.391,158.105c0,.563-.211.891-.553.891a.352.352,0,0,1-.372-.357.739.739,0,0,1-.661.357.852.852,0,0,1,0-1.7.735.735,0,0,1,.656.348v-.328h.215v1.253c0,.186.093.255.206.255.2,0,.333-.255.333-.7a1.263,1.263,0,0,0-1.356-1.3,1.332,1.332,0,0,0,0,2.664,1.469,1.469,0,0,0,.637-.147l.054.162a1.6,1.6,0,0,1-.69.152,1.5,1.5,0,1,1,0-3,1.43,1.43,0,0,1,1.533,1.449Zm-.93.034a.632.632,0,1,0-.3.593A.632.632,0,0,0,243.461,158.14Z" transform="translate(-146.408 -115.555)" fill="#263238"/>
        <path id="Path_5733" data-name="Path 5733" d="M249.873,158.785H248.4a.646.646,0,0,0,.686.607.69.69,0,0,0,.534-.23l.132.152a.921.921,0,0,1-1.586-.6.837.837,0,0,1,.852-.881.828.828,0,0,1,.842.881A.538.538,0,0,1,249.873,158.785Zm-1.469-.176h1.234a.617.617,0,1,0-1.234,0Z" transform="translate(-149.882 -116.156)" fill="#263238"/>
        <path id="Path_5734" data-name="Path 5734" d="M255.524,158.583v1.009h-.25v-.979c0-.367-.186-.558-.49-.558a.558.558,0,0,0-.583.627v.916h-.235v-.979c0-.367-.186-.558-.49-.558a.558.558,0,0,0-.583.627v.916h-.235v-1.743h.225v.318a.705.705,0,0,1,.637-.328.632.632,0,0,1,.622.367.749.749,0,0,1,.686-.367.656.656,0,0,1,.7.734Z" transform="translate(-152.175 -116.164)" fill="#263238"/>
        <path id="Path_5735" data-name="Path 5735" d="M260.954,158.519V159.6h-.24v-.269a.656.656,0,0,1-.6.284c-.4,0-.637-.206-.637-.49s.171-.49.671-.49h.563v-.1c0-.3-.166-.46-.49-.46a.876.876,0,0,0-.578.206l-.108-.176a1.1,1.1,0,0,1,.71-.235.617.617,0,0,1,.705.656Zm-.235.553v-.284h-.544c-.338,0-.451.132-.451.313s.162.328.441.328a.558.558,0,0,0,.548-.357Z" transform="translate(-155.655 -116.17)" fill="#263238"/>
        <path id="Path_5736" data-name="Path 5736" d="M263.69,156.551a.171.171,0,1,1,.171.171A.171.171,0,0,1,263.69,156.551Zm.049.548h.235v1.743h-.235Z" transform="translate(-157.804 -115.416)" fill="#263238"/>
        <path id="Path_5737" data-name="Path 5737" d="M265.61,156.39h.235v2.448h-.235Z" transform="translate(-158.784 -115.421)" fill="#263238"/>
        <path id="Path_5738" data-name="Path 5738" d="M267.12,160.886a.171.171,0,0,1,.176-.176.176.176,0,0,1,.176.176.181.181,0,0,1-.176.181.176.176,0,0,1-.176-.181Z" transform="translate(-159.554 -117.626)" fill="#263238"/>
        <path id="Path_5739" data-name="Path 5739" d="M268.4,158.71a.857.857,0,0,1,.9-.881.759.759,0,0,1,.685.343l-.176.118a.6.6,0,0,0-.49-.255.681.681,0,0,0,0,1.356.588.588,0,0,0,.49-.255l.176.118a.769.769,0,0,1-.686.343.857.857,0,0,1-.9-.886Z" transform="translate(-160.207 -116.154)" fill="#263238"/>
        <path id="Path_5740" data-name="Path 5740" d="M272.149,158.706a.886.886,0,1,1,.886.886.857.857,0,0,1-.886-.886Zm1.533,0a.651.651,0,1,0-.627.671.637.637,0,0,0,.627-.671Z" transform="translate(-162.121 -116.151)" fill="#263238"/>
        <path id="Path_5741" data-name="Path 5741" d="M279.64,158.583v1.009H279.4v-.979c0-.367-.186-.558-.49-.558a.558.558,0,0,0-.583.627v.916H278.1v-.979c0-.367-.186-.558-.49-.558a.558.558,0,0,0-.583.627v.916h-.235v-1.743h.225v.318a.705.705,0,0,1,.637-.328.632.632,0,0,1,.622.367.754.754,0,0,1,.686-.367.656.656,0,0,1,.681.734Z" transform="translate(-164.489 -116.164)" fill="#263238"/>
        <path id="Path_5742" data-name="Path 5742" d="M202.635,188.917l.411.235-.073.137-.416-.24v.49H202.4v-.49l-.416.24-.078-.137.416-.235-.416-.23.078-.142.416.245v-.49h.152v.49l.416-.245.073.142Z" transform="translate(-126.274 -131.707)" fill="#263238"/>
        <path id="Path_5743" data-name="Path 5743" d="M205.38,188.917l.411.235-.078.137-.411-.24v.49h-.157v-.49l-.411.24-.083-.137.416-.235-.416-.23.083-.142.411.245v-.49h.166v.49l.411-.245.078.142Z" transform="translate(-127.673 -131.707)" fill="#263238"/>
        <path id="Path_5744" data-name="Path 5744" d="M208.13,188.917l.411.235-.078.137-.411-.24v.49H207.9v-.49l-.411.24-.078-.137.411-.235-.411-.23.078-.142.411.245v-.49h.152v.49l.411-.245.078.142Z" transform="translate(-129.081 -131.707)" fill="#263238"/>
        <path id="Path_5745" data-name="Path 5745" d="M210.865,188.917l.411.235-.073.137-.416-.24v.49h-.152v-.49l-.416.24-.078-.137.416-.235-.416-.23.078-.142.416.245v-.49h.152v.49l.416-.245.073.142Z" transform="translate(-130.474 -131.707)" fill="#263238"/>
        <path id="Path_5746" data-name="Path 5746" d="M213.61,188.917l.411.235-.078.137-.411-.24v.49h-.157v-.49l-.411.24-.083-.137.416-.235-.416-.23.083-.142.411.245v-.49h.157v.49l.411-.245.078.142Z" transform="translate(-131.873 -131.707)" fill="#263238"/>
        <path id="Path_5747" data-name="Path 5747" d="M216.36,188.917l.411.235-.078.137-.411-.24v.49h-.152v-.49l-.411.24-.078-.137.411-.235-.411-.23.078-.142.411.245v-.49h.176v.49l.411-.245.078.142Z" transform="translate(-133.281 -131.707)" fill="#263238"/>
        <path id="Path_5748" data-name="Path 5748" d="M219.095,188.917l.411.235-.073.137-.416-.24v.49h-.152v-.49l-.416.24-.078-.137.416-.235-.416-.23.078-.142.416.245v-.49h.152v.49l.416-.245.073.142Z" transform="translate(-134.675 -131.707)" fill="#263238"/>
        <path id="Path_5749" data-name="Path 5749" d="M221.84,188.917l.411.235-.078.137-.416-.24v.49H221.6v-.49l-.411.24-.083-.137.416-.235-.416-.23.083-.142.411.245v-.49h.152v.49l.416-.245.078.142Z" transform="translate(-136.073 -131.707)" fill="#263238"/>
        <path id="Path_5750" data-name="Path 5750" d="M224.59,188.917l.411.235-.078.137-.411-.24v.49h-.152v-.49l-.411.24-.078-.137.411-.235-.411-.23.078-.142.411.245v-.49h.152v.49l.411-.245.078.142Z" transform="translate(-137.482 -131.707)" fill="#263238"/>
        <path id="Path_5751" data-name="Path 5751" d="M227.325,188.917l.411.235-.073.137-.416-.24v.49h-.152v-.49l-.416.24-.078-.137.411-.235-.411-.23.078-.142.416.245v-.49h.152v.49l.416-.245.073.142Z" transform="translate(-138.875 -131.707)" fill="#263238"/>
        <path id="Path_5752" data-name="Path 5752" d="M230.07,188.917l.406.235-.073.137-.416-.24v.49h-.152v-.49l-.411.24-.083-.137.416-.235-.416-.23.083-.142.411.245v-.49h.152v.49l.416-.245.073.142Z" transform="translate(-140.273 -131.707)" fill="#263238"/>
        <path id="Path_5753" data-name="Path 5753" d="M201.047,175.183c0,.49-.357.793-.945.793h-.622v.73h-.25V174.4h.867C200.689,174.4,201.047,174.694,201.047,175.183Zm-.245,0c0-.372-.245-.583-.71-.583h-.612v1.16h.617C200.557,175.771,200.8,175.56,200.8,175.183Z" transform="translate(-124.906 -124.613)" fill="#263238"/>
        <path id="Path_5754" data-name="Path 5754" d="M205.049,176.24v1.077h-.225v-.269a.661.661,0,0,1-.6.284c-.392,0-.632-.2-.632-.49s.171-.49.671-.49h.553v-.1a.427.427,0,0,0-.49-.46.876.876,0,0,0-.578.206l-.108-.176a1.1,1.1,0,0,1,.71-.235.617.617,0,0,1,.7.656Zm-.235.553v-.284h-.534c-.338,0-.446.132-.446.313s.162.328.441.328a.558.558,0,0,0,.539-.357Z" transform="translate(-127.132 -125.214)" fill="#263238"/>
        <path id="Path_5755" data-name="Path 5755" d="M207.38,177.112l.1-.186a1.077,1.077,0,0,0,.622.2c.328,0,.465-.113.465-.289,0-.45-1.126-.093-1.126-.783,0-.284.245-.49.686-.49a1.2,1.2,0,0,1,.617.162l-.1.186a.911.911,0,0,0-.514-.147c-.313,0-.45.122-.45.289,0,.49,1.126.118,1.126.783,0,.3-.264.49-.72.49a1.16,1.16,0,0,1-.705-.211Z" transform="translate(-129.066 -125.205)" fill="#263238"/>
        <path id="Path_5756" data-name="Path 5756" d="M210.68,177.112l.108-.186a1.052,1.052,0,0,0,.617.2c.333,0,.49-.113.49-.289,0-.45-1.126-.093-1.126-.783,0-.284.245-.49.69-.49a1.171,1.171,0,0,1,.612.162l-.1.186a.906.906,0,0,0-.49-.147c-.318,0-.455.122-.455.289,0,.49,1.126.117,1.126.783,0,.3-.264.49-.715.49A1.165,1.165,0,0,1,210.68,177.112Z" transform="translate(-130.75 -125.205)" fill="#263238"/>
        <path id="Path_5757" data-name="Path 5757" d="M216.655,175.58l-.661,1.738h-.22l-.548-1.425-.548,1.425h-.225l-.651-1.738h.225l.544,1.469.558-1.469h.206l.553,1.469.553-1.469Z" transform="translate(-132.342 -125.215)" fill="#263238"/>
        <path id="Path_5758" data-name="Path 5758" d="M219.889,176.426a.886.886,0,1,1,.886.886.857.857,0,0,1-.886-.886Zm1.533,0a.646.646,0,1,0-.646.646.646.646,0,0,0,.646-.646Z" transform="translate(-135.45 -125.194)" fill="#263238"/>
        <path id="Path_5759" data-name="Path 5759" d="M225.367,175.548v.22h-.059a.563.563,0,0,0-.583.641v.886h-.235v-1.738h.25v.338A.651.651,0,0,1,225.367,175.548Z" transform="translate(-137.798 -125.198)" fill="#263238"/>
        <path id="Path_5760" data-name="Path 5760" d="M228.561,174.115v2.448h-.225v-.343a.749.749,0,0,1-.671.357.886.886,0,0,1,0-1.768.754.754,0,0,1,.661.343V174.11Zm-.23,1.582a.646.646,0,1,0-.646.681.636.636,0,0,0,.646-.681Z" transform="translate(-139 -124.465)" fill="#263238"/>
        <path id="Path_5761" data-name="Path 5761" d="M236.654,215v2.321h-.225v-2.105h-.548V215Z" transform="translate(-143.611 -145.333)" fill="#263238"/>
        <path id="Path_5762" data-name="Path 5762" d="M240.069,217.064v.215h-1.626v-.171l.979-.945c.26-.255.313-.411.313-.568,0-.269-.191-.436-.544-.436a.779.779,0,0,0-.632.259l-.171-.147a1.048,1.048,0,0,1,.823-.333c.49,0,.769.24.769.627a.979.979,0,0,1-.382.725l-.788.774Z" transform="translate(-144.892 -145.301)" fill="#263238"/>
        <path id="Path_5763" data-name="Path 5763" d="M243.815,216.645c0,.387-.284.685-.842.685a1.2,1.2,0,0,1-.832-.3l.113-.191a1.024,1.024,0,0,0,.72.269c.387,0,.6-.176.6-.465s-.2-.46-.627-.46h-.166v-.176l.641-.8h-1.185V215H243.7v.171l-.651.808C243.565,216.014,243.815,216.273,243.815,216.645Z" transform="translate(-146.806 -145.333)" fill="#263238"/>
        <path id="Path_5764" data-name="Path 5764" d="M248.168,216.689H247.7v.612h-.235v-.612H246.16v-.171l1.229-1.537h.264l-1.185,1.479h1v-.539h.23v.539h.465Z" transform="translate(-148.857 -145.323)" fill="#263238"/>
        <path id="Path_5765" data-name="Path 5765" d="M253.945,216.59c0,.4-.274.705-.842.705a1.209,1.209,0,0,1-.832-.3l.118-.191a.979.979,0,0,0,.71.269c.4,0,.6-.191.6-.49s-.186-.49-.774-.49h-.49l.122-1.165h1.268v.215h-1.063l-.078.734h.3C253.68,215.9,253.945,216.184,253.945,216.59Z" transform="translate(-151.976 -145.297)" fill="#263238"/>
        <path id="Path_5766" data-name="Path 5766" d="M258.043,216.584a.725.725,0,0,1-.793.715c-.617,0-.95-.431-.95-1.16a1.071,1.071,0,0,1,1.058-1.2,1.087,1.087,0,0,1,.553.127l-.1.191a.822.822,0,0,0-.45-.108c-.49,0-.823.318-.823.95v.186a.749.749,0,0,1,.71-.4.705.705,0,0,1,.793.7Zm-.235,0c0-.308-.225-.49-.583-.49a.534.534,0,0,0-.6.49c0,.255.211.49.612.49a.49.49,0,0,0,.568-.48Z" transform="translate(-154.032 -145.302)" fill="#263238"/>
        <path id="Path_5767" data-name="Path 5767" d="M261.919,215v.171l-.979,2.15h-.259l.955-2.105h-1.19v.431h-.235V215Z" transform="translate(-156.028 -145.333)" fill="#263238"/>
        <path id="Path_5768" data-name="Path 5768" d="M265.982,216.655c0,.411-.348.666-.9.666s-.891-.255-.891-.666a.583.583,0,0,1,.446-.573.49.49,0,0,1-.362-.49c0-.377.318-.612.808-.612s.818.235.818.612a.519.519,0,0,1-.372.49A.588.588,0,0,1,265.982,216.655Zm-.245,0c0-.284-.245-.465-.656-.465s-.651.181-.651.465.24.49.651.49.656-.2.656-.495Zm-.661-.656c.362,0,.578-.162.578-.416s-.23-.416-.578-.416-.573.157-.573.416S264.719,216,265.076,216Z" transform="translate(-158.059 -145.323)" fill="#263238"/>
        <path id="Path_5769" data-name="Path 5769" d="M271.9,216.1c0,.788-.431,1.2-1.063,1.2a1.082,1.082,0,0,1-.548-.127l.1-.191a.822.822,0,0,0,.45.108c.49,0,.818-.323.818-.95a1.279,1.279,0,0,0,0-.186.734.734,0,0,1-.705.4.705.705,0,0,1-.783-.7.725.725,0,0,1,.793-.715C271.556,214.937,271.9,215.367,271.9,216.1Zm-.328-.46c0-.255-.211-.49-.612-.49a.49.49,0,0,0-.568.49c0,.308.225.49.583.49a.539.539,0,0,0,.578-.49Z" transform="translate(-161.111 -145.299)" fill="#263238"/>
        <path id="Path_5770" data-name="Path 5770" d="M274.888,215v2.321h-.24v-2.105H274.1V215Z" transform="translate(-163.117 -145.333)" fill="#263238"/>
        <path id="Path_5771" data-name="Path 5771" d="M276.83,216.12c0-.739.392-1.18.925-1.18s.925.441.925,1.18-.387,1.18-.925,1.18S276.83,216.859,276.83,216.12Zm1.606,0c0-.617-.274-.979-.681-.979s-.681.343-.681.979.279.979.681.979S278.436,216.737,278.436,216.12Z" transform="translate(-164.51 -145.302)" fill="#263238"/>
        <path id="Path_5772" data-name="Path 5772" d="M281.788,215v2.321h-.24v-2.105H281V215Z" transform="translate(-166.638 -145.333)" fill="#263238"/>
        <path id="Path_5773" data-name="Path 5773" d="M286,215v2.321h-.24v-2.105h-.548V215Z" transform="translate(-168.787 -145.333)" fill="#263238"/>
        <path id="Path_5774" data-name="Path 5774" d="M288.433,215v2.321H288.2v-2.105h-.548V215Z" transform="translate(-170.032 -145.333)" fill="#263238"/>
        <path id="Path_5775" data-name="Path 5775" d="M291.859,217.064v.215h-1.626v-.171l.979-.945c.26-.255.313-.411.313-.568,0-.269-.191-.436-.544-.436a.779.779,0,0,0-.632.259l-.171-.147a1.058,1.058,0,0,1,.823-.333c.49,0,.769.24.769.627a.979.979,0,0,1-.382.725l-.808.774Z" transform="translate(-171.323 -145.301)" fill="#263238"/>
        <path id="Path_5776" data-name="Path 5776" d="M294.693,215v2.321h-.26v-2.105h-.543V215Z" transform="translate(-173.216 -145.333)" fill="#263238"/>
        <path id="Path_5777" data-name="Path 5777" d="M207.987,212.89v-.353a.617.617,0,0,0-.617-.617h-6.253a.617.617,0,0,0-.617.617v.353Z" transform="translate(-125.555 -143.761)" fill="#263238"/>
        <path id="Path_5778" data-name="Path 5778" d="M200.5,214.89v2.6a.617.617,0,0,0,.617.617h6.253a.617.617,0,0,0,.617-.617v-2.6Z" transform="translate(-125.555 -145.277)" fill="#263238"/>
        <path id="Path_5779" data-name="Path 5779" d="M200.69,241.575c0-.739.387-1.175.925-1.175s.925.436.925,1.175-.392,1.18-.925,1.18S200.69,242.315,200.69,241.575Zm1.606,0c0-.617-.279-.979-.681-.979s-.681.343-.681.979.274.979.681.979.7-.357.7-.979Z" transform="translate(-125.652 -158.296)" fill="#263238"/>
        <path id="Path_5780" data-name="Path 5780" d="M206.932,242.11c0,.411-.348.666-.9.666s-.891-.255-.891-.666a.573.573,0,0,1,.446-.568.524.524,0,0,1-.362-.49c0-.377.318-.612.808-.612s.818.235.818.612a.529.529,0,0,1-.367.49A.578.578,0,0,1,206.932,242.11Zm-.245,0c0-.284-.245-.46-.656-.46s-.651.176-.651.46.245.49.651.49.656-.206.656-.495Zm-.637-.656c.362,0,.578-.162.578-.411s-.23-.421-.578-.421-.573.157-.573.416S205.674,241.454,206.051,241.454Z" transform="translate(-127.923 -158.316)" fill="#263238"/>
        <path id="Path_5781" data-name="Path 5781" d="M210.072,239.48h.215l-1.1,3.114H209Z" transform="translate(-129.893 -157.826)" fill="#263238"/>
        <path id="Path_5782" data-name="Path 5782" d="M213.249,242.518v.215h-1.626v-.171l.979-.94c.26-.26.309-.416.309-.573,0-.269-.186-.436-.539-.436a.788.788,0,0,0-.637.26l-.166-.147a1.038,1.038,0,0,1,.823-.328c.49,0,.764.235.764.622a.95.95,0,0,1-.377.725l-.788.774Z" transform="translate(-131.204 -158.294)" fill="#263238"/>
        <path id="Path_5783" data-name="Path 5783" d="M217.045,242.045c0,.4-.274.705-.842.705a1.209,1.209,0,0,1-.832-.3l.118-.191a.979.979,0,0,0,.71.269c.4,0,.6-.191.6-.49s-.181-.49-.774-.49h-.49l.118-1.16h1.268v.211H215.86l-.078.739h.3C216.78,241.364,217.045,241.639,217.045,242.045Z" transform="translate(-133.144 -158.291)" fill="#263238"/>
        <path id="Path_5784" data-name="Path 5784" d="M201.838,236.027v.132H200.82v-1.44h.979v.137h-.832v.49h.744v.132h-.744v.534Z" transform="translate(-125.718 -155.397)" fill="#263238"/>
        <path id="Path_5785" data-name="Path 5785" d="M204.256,236.16l-.46-.637-.49.637h-.176l.548-.739-.49-.7h.171l.436.588.431-.588h.162l-.49.7.548.744Z" transform="translate(-126.897 -155.397)" fill="#263238"/>
        <path id="Path_5786" data-name="Path 5786" d="M207.376,235.215c0,.3-.225.49-.588.49H206.4v.455h-.152v-1.44h.539C207.151,234.72,207.376,234.906,207.376,235.215Zm-.152,0c0-.23-.152-.362-.441-.362H206.4v.72h.382C207.073,235.572,207.224,235.44,207.224,235.215Z" transform="translate(-128.489 -155.397)" fill="#263238"/>
        <path id="Path_5787" data-name="Path 5787" d="M210.37,234.72h.583a.72.72,0,1,1,0,1.44h-.583Zm.573,1.307a.588.588,0,1,0,0-1.175h-.421v1.175Z" transform="translate(-130.592 -155.397)" fill="#263238"/>
        <path id="Path_5788" data-name="Path 5788" d="M214.5,235.847v.671h-.142v-.171a.4.4,0,0,1-.372.181c-.24,0-.392-.127-.392-.313s.108-.308.416-.308h.343v-.064a.264.264,0,0,0-.3-.289.553.553,0,0,0-.362.127l-.064-.108a.681.681,0,0,1,.441-.147.382.382,0,0,1,.436.421Zm-.147.343v-.176h-.338c-.211,0-.279.083-.279.2s.1.2.274.2a.343.343,0,0,0,.343-.215Z" transform="translate(-132.235 -155.755)" fill="#263238"/>
        <path id="Path_5789" data-name="Path 5789" d="M216.645,236.234a.323.323,0,0,1-.225.078A.289.289,0,0,1,216.1,236v-.656h-.191v-.122h.191V235h.147v.235h.328v.122h-.328v.622a.171.171,0,0,0,.186.2.255.255,0,0,0,.162-.054Z" transform="translate(-133.419 -155.54)" fill="#263238"/>
        <path id="Path_5790" data-name="Path 5790" d="M218.732,236.026h-.881a.4.4,0,0,0,.426.372.421.421,0,0,0,.333-.142l.083.1a.548.548,0,0,1-.421.176.534.534,0,0,1-.563-.553.519.519,0,0,1,.524-.548.49.49,0,0,1,.524.548Zm-.906-.113h.769a.387.387,0,0,0-.769,0Z" transform="translate(-134.337 -155.758)" fill="#263238"/>
        <path id="Path_5791" data-name="Path 5791" d="M255.723,240.44v2.316h-.235v-2.105h-.548v-.211Z" transform="translate(-153.338 -158.316)" fill="#263238"/>
        <path id="Path_5792" data-name="Path 5792" d="M259.149,242.518v.215h-1.626v-.171l.979-.94c.26-.26.313-.416.313-.573,0-.269-.191-.436-.543-.436a.779.779,0,0,0-.632.26l-.171-.147a1.048,1.048,0,0,1,.823-.328c.49,0,.769.235.769.622a.979.979,0,0,1-.382.725l-.788.774Z" transform="translate(-154.629 -158.294)" fill="#263238"/>
        <path id="Path_5793" data-name="Path 5793" d="M262.895,242.09c0,.387-.284.686-.842.686a1.2,1.2,0,0,1-.832-.3l.117-.191a.979.979,0,0,0,.715.269c.387,0,.6-.176.6-.465s-.2-.46-.627-.46h-.166v-.176l.641-.8h-1.185v-.211h1.469v.166l-.656.823C262.645,241.458,262.895,241.718,262.895,242.09Z" transform="translate(-156.543 -158.316)" fill="#263238"/>
        <path id="Path_5794" data-name="Path 5794" d="M255.1,235.424a.725.725,0,0,1,.754-.734.7.7,0,0,1,.524.211l-.093.1a.583.583,0,0,0-.426-.171.6.6,0,1,0,0,1.19.563.563,0,0,0,.426-.171l.093.1a.685.685,0,0,1-.529.211.72.72,0,0,1-.749-.73Z" transform="translate(-153.42 -155.381)" fill="#263238"/>
        <path id="Path_5795" data-name="Path 5795" d="M260.145,234.72l-.49,1.44h-.162l-.421-1.229-.421,1.229h-.162l-.49-1.44h.157l.416,1.239L259,234.72h.142l.421,1.244.421-1.244Z" transform="translate(-154.9 -155.397)" fill="#263238"/>
        <path id="Path_5796" data-name="Path 5796" d="M228.406,268.814h-1.293l-.279.622h-.255l1.058-2.316h.245l1.058,2.316h-.26Zm-.093-.2-.548-1.244-.558,1.244Z" transform="translate(-138.865 -171.933)" fill="#263238"/>
        <path id="Path_5797" data-name="Path 5797" d="M231.689,269.145a.857.857,0,0,1,.9-.886.754.754,0,0,1,.681.348l-.171.118a.6.6,0,0,0-.49-.259.681.681,0,1,0,0,1.361.607.607,0,0,0,.49-.255l.171.118a.764.764,0,0,1-.681.343.857.857,0,0,1-.9-.886Z" transform="translate(-141.472 -172.513)" fill="#263238"/>
        <path id="Path_5798" data-name="Path 5798" d="M236.545,269.527a.543.543,0,0,1-.367.122.46.46,0,0,1-.49-.49v-1.067h-.308v-.2h.3v-.382h.235v.382h.534v.2h-.534v1.038a.279.279,0,0,0,.3.318.407.407,0,0,0,.26-.088Z" transform="translate(-143.356 -172.132)" fill="#263238"/>
        <path id="Path_5799" data-name="Path 5799" d="M238.53,266.991a.171.171,0,1,1,.171.171A.171.171,0,0,1,238.53,266.991Zm.054.548h.235v1.743h-.235Z" transform="translate(-144.963 -171.779)" fill="#263238"/>
        <path id="Path_5800" data-name="Path 5800" d="M240.09,269.146a.886.886,0,1,1,.891.886.862.862,0,0,1-.891-.886Zm1.533,0a.646.646,0,1,0-.641.681.637.637,0,0,0,.641-.681Z" transform="translate(-145.759 -172.514)" fill="#263238"/>
        <path id="Path_5801" data-name="Path 5801" d="M246.331,269.033v1.009H246.1v-.979a.49.49,0,0,0-.524-.553.568.568,0,0,0-.607.627v.916h-.235v-1.743h.225v.338a.739.739,0,0,1,.661-.338.671.671,0,0,1,.715.725Z" transform="translate(-148.128 -172.538)" fill="#263238"/>
        <path id="Path_5802" data-name="Path 5802" d="M251.385,267.325v.911h1.195v.211h-1.195v.979h-.245V267.11h1.586v.211Z" transform="translate(-151.399 -171.927)" fill="#263238"/>
        <path id="Path_5803" data-name="Path 5803" d="M255.14,266.991a.171.171,0,1,1,.171.171.171.171,0,0,1-.171-.171Zm.049.548h.235v1.743h-.235Z" transform="translate(-153.44 -171.779)" fill="#263238"/>
        <path id="Path_5804" data-name="Path 5804" d="M258.451,268.262v1.533a.759.759,0,0,1-.867.867,1.219,1.219,0,0,1-.813-.264l.117-.181a1.048,1.048,0,0,0,.686.24c.441,0,.641-.206.641-.632v-.235a.769.769,0,0,1-.676.338.847.847,0,1,1,0-1.689.788.788,0,0,1,.685.348v-.333Zm-.225.828a.661.661,0,1,0-.661.641.622.622,0,0,0,.661-.632Z" transform="translate(-154.2 -172.502)" fill="#263238"/>
        <path id="Path_5805" data-name="Path 5805" d="M263.242,268.28v1.743h-.225V269.7a.7.7,0,0,1-.627.333.676.676,0,0,1-.734-.749V268.28h.235v.979a.49.49,0,0,0,.524.558.568.568,0,0,0,.592-.632v-.916Z" transform="translate(-156.763 -172.519)" fill="#263238"/>
        <path id="Path_5806" data-name="Path 5806" d="M267.081,268.257v.23h-.059a.568.568,0,0,0-.588.646v.886H266.2v-1.743h.225v.343A.671.671,0,0,1,267.081,268.257Z" transform="translate(-159.085 -172.512)" fill="#263238"/>
        <path id="Path_5807" data-name="Path 5807" d="M270.223,269.22h-1.469a.646.646,0,0,0,.686.607.69.69,0,0,0,.534-.23l.132.152a.921.921,0,0,1-1.586-.6.842.842,0,0,1,.852-.886.827.827,0,0,1,.842.886A.429.429,0,0,1,270.223,269.22Zm-1.469-.176h1.234a.617.617,0,0,0-1.234,0Z" transform="translate(-160.268 -172.514)" fill="#263238"/>
        <path id="Path_5808" data-name="Path 5808" d="M229.123,282.981V284h-.906v-.979a4.3,4.3,0,0,1-2.267-.73l.49-1.107a3.672,3.672,0,0,0,1.768.646v-1.518c-1.014-.25-2.14-.583-2.14-1.885,0-.979.7-1.792,2.14-1.959V275.46h.906v.979a4.108,4.108,0,0,1,1.846.558l-.455,1.116a3.762,3.762,0,0,0-1.391-.49v1.547c1.009.235,2.12.573,2.12,1.856C231.243,281.992,230.553,282.81,229.123,282.981Zm-.906-4.015v-1.283c-.49.108-.676.372-.676.671S227.816,278.839,228.217,278.966Zm1.562,2.189c0-.318-.264-.49-.656-.627v1.253C229.578,281.683,229.779,281.448,229.779,281.155Z" transform="translate(-138.543 -176.189)" fill="#263238"/>
        <path id="Path_5809" data-name="Path 5809" d="M242.392,282.719v1.2h-4.808v-.955l2.448-2.321c.568-.539.666-.862.666-1.175,0-.49-.348-.788-1.018-.788a1.557,1.557,0,0,0-1.317.636l-1.072-.69a2.938,2.938,0,0,1,2.527-1.185c1.42,0,2.365.73,2.365,1.885a2.544,2.544,0,0,1-1.067,2.008l-1.469,1.381Z" transform="translate(-144.33 -177.2)" fill="#263238"/>
        <path id="Path_5810" data-name="Path 5810" d="M248.92,280.745c0-2.1,1.165-3.3,2.727-3.3s2.727,1.195,2.727,3.3-1.156,3.29-2.727,3.29S248.92,282.846,248.92,280.745Zm3.976,0c0-1.469-.49-2.047-1.249-2.047s-1.234.6-1.234,2.047.49,2.042,1.234,2.042,1.229-.6,1.229-2.042Z" transform="translate(-150.266 -177.205)" fill="#263238"/>
        <path id="Path_5811" data-name="Path 5811" d="M261.53,280.745c0-2.1,1.165-3.3,2.727-3.3s2.727,1.195,2.727,3.3-1.156,3.29-2.727,3.29S261.53,282.846,261.53,280.745Zm3.971,0c0-1.469-.49-2.047-1.244-2.047s-1.239.6-1.239,2.047.49,2.042,1.239,2.042S265.5,282.19,265.5,280.745Z" transform="translate(-156.701 -177.205)" fill="#263238"/>
        <path id="Path_5812" data-name="Path 5812" d="M244.04,313.874h-20.3a4.754,4.754,0,0,1-4.75-4.75h0a4.754,4.754,0,0,1,4.75-4.755h20.3a4.75,4.75,0,0,1,4.75,4.754h0A4.75,4.75,0,0,1,244.04,313.874Z" transform="translate(-134.991 -190.943)" fill="#263238"/>
        <path id="Path_5813" data-name="Path 5813" d="M233.839,312c0,.6-.431.955-1.141.955h-.754v.881h-.294V311.05H232.7C233.408,311.07,233.839,311.427,233.839,312Zm-.3,0c0-.446-.294-.7-.852-.7h-.744v1.4h.744C233.246,312.72,233.54,312.465,233.54,312Z" transform="translate(-141.452 -194.352)" fill="#fff"/>
        <path id="Path_5814" data-name="Path 5814" d="M238.658,313.275v1.3h-.269v-.328a.793.793,0,0,1-.725.348c-.49,0-.764-.245-.764-.612s.206-.592.808-.592h.666v-.127c0-.357-.2-.553-.593-.553a1.077,1.077,0,0,0-.7.245l-.127-.211a1.327,1.327,0,0,1,.857-.284.744.744,0,0,1,.847.813Zm-.284.671V313.6h-.656c-.406,0-.539.162-.539.377s.2.4.529.4a.666.666,0,0,0,.666-.431Z" transform="translate(-144.131 -195.069)" fill="#fff"/>
        <path id="Path_5815" data-name="Path 5815" d="M243.243,312.49l-1.048,2.35c-.176.411-.4.544-.7.544a.724.724,0,0,1-.5-.2l.132-.211a.524.524,0,0,0,.382.162c.191,0,.318-.088.436-.353l.093-.206-.94-2.1h.3l.788,1.787.769-1.777Z" transform="translate(-146.224 -195.082)" fill="#fff"/>
        <path id="Path_5816" data-name="Path 5816" d="M249.266,313.4v.46h-.2v-.455a1.469,1.469,0,0,1-.955-.362l.118-.23a1.337,1.337,0,0,0,.837.338V312.1c-.441-.108-.886-.245-.886-.774,0-.382.274-.715.886-.759v-.46h.2v.436a1.542,1.542,0,0,1,.808.245l-.1.235a1.538,1.538,0,0,0-.71-.23v1.058c.45.108.925.235.925.769C250.191,313.028,249.9,313.366,249.266,313.4Zm-.2-1.577v-.979c-.411.034-.6.245-.6.49S248.737,311.736,249.065,311.824Zm.832.837c0-.318-.289-.426-.632-.49v.979C249.7,313.116,249.9,312.916,249.9,312.661Z" transform="translate(-149.853 -193.873)" fill="#fff"/>
        <path id="Path_5817" data-name="Path 5817" d="M254.927,313.6v.255h-1.959v-.2l1.16-1.141c.313-.308.372-.49.372-.69,0-.323-.225-.519-.651-.519a.979.979,0,0,0-.764.308l-.206-.176a1.268,1.268,0,0,1,.979-.4c.563,0,.925.289.925.754a1.146,1.146,0,0,1-.46.872l-.95.935Z" transform="translate(-152.287 -194.346)" fill="#fff"/>
        <path id="Path_5818" data-name="Path 5818" d="M257.76,312.46c0-.891.465-1.42,1.111-1.42s1.116.529,1.116,1.42-.49,1.42-1.116,1.42S257.76,313.351,257.76,312.46Zm1.934,0c0-.744-.333-1.156-.823-1.156s-.823.411-.823,1.156.338,1.156.823,1.156S259.694,313.2,259.694,312.46Z" transform="translate(-154.777 -194.347)" fill="#fff"/>
        <path id="Path_5819" data-name="Path 5819" d="M263.15,312.46c0-.891.49-1.42,1.116-1.42s1.116.529,1.116,1.42-.49,1.42-1.116,1.42S263.15,313.351,263.15,312.46Zm1.959,0c0-.744-.333-1.156-.818-1.156s-.823.411-.823,1.156.333,1.156.823,1.156.793-.411.793-1.156Z" transform="translate(-157.528 -194.347)" fill="#fff"/>
        <path id="Path_5820" data-name="Path 5820" d="M147.429,206.385c.734,11.286-4.495,23.856-4.495,23.856l-28.248-7.952L109.76,220.9c4.9-6.8,7.227-20.2,5.949-31.039-.1-.818-.157-1.586-.2-2.321-.49-8.941,3.227-11.556,6.365-15.507,3.428-4.28,11.056-20.438,11.056-24.262s9.573-13.186,7.443-23.812a6.373,6.373,0,0,1,5.8-.323,8.371,8.371,0,0,1,3.7,4.48c2.492,5.822-1.009,22.279-3.986,26.314l-5.734,23.738a50.711,50.711,0,0,1,3.834,9.387,80.739,80.739,0,0,1,3.437,18.832Z" transform="translate(-79.245 -98.408)" fill="#fff"/>
        <path id="Path_5821" data-name="Path 5821" d="M115.524,254.75c1.6,4.382,3.3,7.345,3.153,13.485s-3.428,15.59-2.492,20.5a4.323,4.323,0,0,0-1.469.764l-4.926-1.391c4.9-6.8,7.227-20.2,5.949-31.039C115.627,256.253,115.568,255.484,115.524,254.75Z" transform="translate(-79.26 -165.62)" fill="#da2f37" opacity="0.4"/>
        <path id="Path_5822" data-name="Path 5822" d="M174.083,155.034l-5.734,23.738a50.712,50.712,0,0,1,3.834,9.387h0C168.3,181.9,165,180.03,165,180.03c2.585-3.1,4.578-25.77,4.578-25.77s8.1-9.524,7.345-19.488a31.827,31.827,0,0,0-2.556-10.532,8.372,8.372,0,0,1,3.7,4.48C180.561,134.542,177.06,151,174.083,155.034Z" transform="translate(-107.437 -99.013)" fill="#da2f37" opacity="0.4"/>
        <path id="Path_5823" data-name="Path 5823" d="M109.76,220.9c4.9-6.8,7.227-20.2,5.954-31.039s2.762-13.553,6.165-17.833S132.93,151.6,132.93,147.767s9.568-13.176,7.443-23.807c0,0,6.106-3.785,9.5,4.157,2.492,5.827-1.009,22.279-3.986,26.319l-5.729,23.733s6.116,10.552,7.266,28.218c.734,11.286-4.495,23.861-4.495,23.861" transform="translate(-79.245 -98.411)" fill="none" stroke="#263238" stroke-linecap="round" stroke-linejoin="round" stroke-width="1"/>
        <path id="Path_5824" data-name="Path 5824" d="M148.32,360.41a34.461,34.461,0,0,1,10.18,10.214" transform="translate(-98.924 -219.543)" fill="none" stroke="#263238" stroke-linecap="round" stroke-linejoin="round" stroke-width="1"/>
        <path id="Path_5825" data-name="Path 5825" d="M158.391,354.025s-5.538.788-10.542-5.2c-3.207-3.834-12.946-5.567-15.179-15.6" transform="translate(-90.937 -205.672)" fill="none" stroke="#263238" stroke-linecap="round" stroke-linejoin="round" stroke-width="1"/>
      </g>
      <g id="freepik--Hand--inject-73" transform="translate(138.914 109.521)">
        <path id="Path_5826" data-name="Path 5826" d="M304.276,310.371c-14.175-6.782-5.592-12.217-25.094-20.634s-19.7-15.61-17.348-32.15.49-34.133,6.16-35.627-4.436-24.306,2.174-32.371L302.7,252.872Z" transform="translate(-260.81 -186.421)" fill="rgba(0,0,0,0.7)" opacity="0.2"/>
        <path id="Path_5827" data-name="Path 5827" d="M364.593,306.438c-.666-1.9-1.342-3.986-1.866-5.876a28.625,28.625,0,0,0-2.448-6.684c-.2-.362-.406-.744-.641-1.156a40.763,40.763,0,0,1-4.206-9.578c-.715-2.678,0-9.274.666-15.669a90.551,90.551,0,0,0,.8-11.384l-.039-.872c-.333-6.429-1.028-19.806-2.448-23.5-1.4-3.565-2.7-4.1-5.073-5.048-.245-.108-.49-.206-.774-.323-.891-.372-2.409-1.156-4.157-2.061-3.942-2.042-8.848-4.583-11.34-4.9a22.211,22.211,0,0,0-6.987.323c-3.07-2.355-8.295-5.386-9.852-5.45a22.2,22.2,0,0,0-5.386,1.151l-.671.215a20.164,20.164,0,0,0-2.673-1.753c-.064-.034-.127-.059-.181-.083a15.971,15.971,0,0,0-5.763-.7,8.3,8.3,0,0,0-.921.059c-2.688-4.138-5.332-8.255-6.483-10.062-2.4-3.8-9.827-19.434-9.9-19.586a.132.132,0,0,0-.1-.078.251.251,0,0,0-.069,0c-.578-.166-4.833-1.249-6.542,2.874-1.87,4.49.8,14.347,3.4,17.926,1.253,1.724,4.676,8.755,8.148,16.031-.891.827-8.02,7.413-11.482,8.642-2.835,1-2.169,15.537-1.635,27.2.2,4.309.367,8.016.318,10.243-.1,4.309,7.741,10.243,15.341,15.982,6.855,5.2,13.965,10.571,14.8,14.474a7.491,7.491,0,0,0,1.67,2.992,15.492,15.492,0,0,1,3.707,7.345c.211,1.116,2,2.576,3.428,4.96h51.433C366.238,310.943,365.426,308.827,364.593,306.438Zm-71.327-77.413c2.492,5.22,4.035,8.324,4.407,8.672s.348,2,.338,3.614a29.054,29.054,0,0,0,.147,4.226c-.607.534-4.441,4.025-5.215,6.855l-3.256-3.834-.823-12.031C289.354,236.007,292.7,232.467,293.266,229.025Z" transform="translate(-268.309 -183.148)" fill="#fff"/>
        <path id="Path_5828" data-name="Path 5828" d="M385.956,294.966c1.209,11.286,1.224,17.407,2.58,20.673,2.292,5.513,5.665,6.63,5.665,6.63a34,34,0,0,1-2.659-6.713c-.71-2.678,0-9.274.666-15.669a91.946,91.946,0,0,0,.813-11.389l-.044-.872c-.333-6.424-1.028-19.8-2.448-23.5-1.391-3.565-2.7-4.1-5.073-5.053-.245-.1-.49-.2-.774-.318-.891-.372-2.4-1.156-4.157-2.061-3.942-2.042-8.848-4.583-11.34-4.9a22.035,22.035,0,0,0-6.987.323c-3.07-2.355-8.295-5.386-9.852-5.45-1.273-.064-4.725.94-6.067,1.366,5.876,4.794,14.337,10.772,14.337,10.772,6.693,1.332,5.837,4.235,8.544,5.876,2.448,1.469,4.789-2.83,6.855-3.207,2.7-.49,5.773,2.36,5.636,5.817C381.231,276.815,384.918,285.276,385.956,294.966Z" transform="translate(-304.43 -215.549)" fill="#da2f37" opacity="0.4"/>
        <path id="Path_5829" data-name="Path 5829" d="M343.129,258.76a88.463,88.463,0,0,0-7.834-5.876c-2.531-1.469-2.938-6.532-.94-7.761a.558.558,0,0,1,.25-.078l-.181-.083a15.863,15.863,0,0,0-5.763-.7c2.938,5.469,5.283,9.666,5.915,10.586C336.7,257.927,343.129,258.76,343.129,258.76Z" transform="translate(-295.437 -214.318)" fill="#da2f37" opacity="0.4"/>
        <path id="Path_5830" data-name="Path 5830" d="M307.94,296.09c.225-1.17-1.7-4.6-2.551-5.988-1.924-3.173-24.267-22.915-21.03-28.184s6.194-1.371,8.241-1.028c1.469.245,5.5-2.159,5.484-2.36-.46-4.059,3.286-6.7,3.286-6.7s-.343-16.158-1.2-15.884-11.174-24.262-11.174-24.262-10.9-14.494-10.283-21.256,5.347-6.88,5.347-6.88v-.181c-.578-.166-4.833-1.249-6.542,2.874-1.87,4.49.8,14.347,3.4,17.926,1.253,1.724,4.676,8.755,8.148,16.031-.891.827-8.02,7.413-11.482,8.642-2.835,1-2.169,15.536-1.635,27.2.2,4.309.367,8.016.318,10.243-.1,4.309,7.741,10.243,15.341,15.982,6.855,5.2,13.965,10.572,14.8,14.474a7.49,7.49,0,0,0,1.67,2.992A19.859,19.859,0,0,1,307.94,296.09Zm-14.689-67.082c2.492,5.22,4.035,8.324,4.407,8.672s.348,2,.338,3.614a29.054,29.054,0,0,0,.147,4.226c-.607.534-4.441,4.025-5.215,6.855l-3.256-3.834-.823-12.031c.49-.534,3.839-4.074,4.4-7.516Z" transform="translate(-268.293 -183.118)" fill="#da2f37" opacity="0.4"/>
        <path id="Path_5831" data-name="Path 5831" d="M314.586,227.665a11.135,11.135,0,0,1-5.5-3.858c-2.238-3-11.027-16.648-13.46-20.5s-9.925-19.591-9.925-19.591-4.6-1.542-6.395,2.757.661,14.014,3.388,17.755,15.688,32.547,16.717,33.477-.514,8.618,1.547,10.478" transform="translate(-269.935 -183.287)" fill="none" stroke="#263238" stroke-linecap="round" stroke-linejoin="round" stroke-width="1"/>
        <path id="Path_5832" data-name="Path 5832" d="M312.066,292.752s-4.75,4.137-5.308,7.159l-3.525-4.147L302.4,283.61s4.255-4.26,4.49-8.05" transform="translate(-282.035 -230.296)" fill="none" stroke="#263238" stroke-linecap="round" stroke-linejoin="round" stroke-width="1"/>
        <path id="Path_5833" data-name="Path 5833" d="M289.425,258.88s-7.888,7.443-11.639,8.77-1.014,29.212-1.2,37.287,28.375,22.142,30.128,30.407c.7,3.29,3.574,3.961,5.332,10.283" transform="translate(-268.458 -221.783)" fill="none" stroke="#263238" stroke-linecap="round" stroke-linejoin="round" stroke-width="1"/>
        <path id="Path_5834" data-name="Path 5834" d="M326.56,244.654s4.294-.387,6.713.622,12.241,9.445,14.611,11.056,5.935,2.223,6.61,3.961" transform="translate(-294.366 -214.486)" fill="none" stroke="#263238" stroke-linecap="round" stroke-linejoin="round" stroke-width="1"/>
        <path id="Path_5835" data-name="Path 5835" d="M346.17,248.362s4.407-1.469,6.091-1.386,8.02,3.819,10.86,6.316a24.209,24.209,0,0,0,7.4,4.495" transform="translate(-304.374 -215.706)" fill="none" stroke="#263238" stroke-linecap="round" stroke-linejoin="round" stroke-width="1"/>
        <path id="Path_5836" data-name="Path 5836" d="M378.68,257.648a21.491,21.491,0,0,1,7-.338c3.584.49,12.584,5.778,15.453,6.973s4.24,1.415,5.748,5.273,2.2,18.528,2.5,24.326-2.718,22.4-1.469,27.073a45.965,45.965,0,0,0,4.867,10.772" transform="translate(-320.965 -220.909)" fill="none" stroke="#263238" stroke-linecap="round" stroke-linejoin="round" stroke-width="1"/>
        <path id="Path_5837" data-name="Path 5837" d="M300.665,288.632s-.685-2.864-1.665-3.232" transform="translate(-280.3 -235.318)" fill="none" stroke="#263238" stroke-linecap="round" stroke-linejoin="round" stroke-width="1"/>
        <path id="Path_5838" data-name="Path 5838" d="M304.1,316.82a36.491,36.491,0,0,0,1.337,4.921c.705,1.738-.392,4.255-.392,4.255" transform="translate(-282.903 -251.353)" fill="none" stroke="#263238" stroke-linecap="round" stroke-linejoin="round" stroke-width="1"/>
        <path id="Path_5839" data-name="Path 5839" d="M311.3,325.29c-.113,2.781,2.654,6.032,3.325,5.572" transform="translate(-286.574 -255.676)" fill="none" stroke="#263238" stroke-linecap="round" stroke-linejoin="round" stroke-width="1"/>
        <path id="Path_5840" data-name="Path 5840" d="M340.07,283.64s2.972-4.808,5.822-5.043,6.14,3.809,7.9,3.428,3.971-2.967,6.928-3.428,4.343.95,6.689,1.067,2.585-3.016,5.386-3.428,3.756.979,5.636,1.342,2.35-1.121,3.873-1.959" transform="translate(-301.26 -230.327)" fill="none" stroke="#263238" stroke-linecap="round" stroke-linejoin="round" stroke-width="1"/>
      </g>
    </g>
  </g>
</svg>
