<svg xmlns="http://www.w3.org/2000/svg" xmlns:xlink="http://www.w3.org/1999/xlink" width="199.552" height="176.529" viewBox="0 0 199.552 176.529">
  <defs>
    <clipPath id="clip-path">
      <path id="Path_5862" data-name="Path 5862" d="M91.634,201.909,77.4,197.261l-1.267-3.346-2.892-.091-5.248-.994.631,1.085,6.606,4.794,1.63.813L91.746,207.3Z" transform="translate(-67.99 -192.83)" fill="#fff" stroke="#263238" stroke-miterlimit="10" stroke-width="1.004"/>
    </clipPath>
    <clipPath id="clip-path-2">
      <path id="Path_5866" data-name="Path 5866" d="M81.478,194.273l-1.357-.813-2.711.994.45.54Z" transform="translate(-77.41 -193.46)" fill="#fff" stroke="#263238" stroke-linejoin="round" stroke-width="1.004"/>
    </clipPath>
    <clipPath id="clip-path-3">
      <path id="Path_5870" data-name="Path 5870" d="M123.033,142.747a7.557,7.557,0,0,0,.329,3.195,61.847,61.847,0,0,0,3.6,5.482l-5.689,4.561s-2.36-4.756-2.81-5.525a7.837,7.837,0,0,1,.476-6.455C120.4,141.631,122.51,140.992,123.033,142.747Z" transform="translate(-117.978 -141.747)" fill="#fff" stroke="#263238" stroke-miterlimit="10" stroke-width="1.004"/>
    </clipPath>
    <clipPath id="clip-path-4">
      <path id="Path_5874" data-name="Path 5874" d="M112.169,127.424c-.35-2.162-2.827-6.558-6.757-6.39a9.557,9.557,0,0,0-4.851,1.254,14.266,14.266,0,0,0-2.507,1.876c-1.92,2.3-2.594,2.935-2.222,4.7a5.291,5.291,0,0,0,.324,2.067,16.476,16.476,0,0,0,1.5,3.342c-.156.731-.562,2.659-.584,3.1s1.3.134,1.963-.035c1.236,2.767,3.5,4.686,4.207,4.907,1.228.385,3.169-1.634,4.2-3.2s.251-3.325.255-4.025,2.313-2.239,3.169-2.728S112.515,129.581,112.169,127.424Z" transform="translate(-95.733 -121.029)" fill="#fff" stroke="#263238" stroke-miterlimit="10" stroke-width="1"/>
    </clipPath>
    <clipPath id="clip-path-5">
      <path id="Path_5901" data-name="Path 5901" d="M99.679,171.54s3.065,2.088,3.134,7.021a48.935,48.935,0,0,1-.692,7.721c-.5,3.541-3.584,15.071-5.988,16.472S90,201.509,90,201.509l-18.045-11.98-4.362-3.523-2.162-4.081.679-1.3,5.322,4.081-2.866-2.65.562-.713,1.038.722L73.19,183.2l.661,4.323.934.64,17.263,6.308s-.216-9.291-.056-11.068.38-6.243,2.283-9.481" transform="translate(-65.43 -171.54)" fill="#fff" stroke="#263238" stroke-miterlimit="10" stroke-width="1.004"/>
    </clipPath>
  </defs>
  <g id="Group_5925" data-name="Group 5925" transform="translate(-91 -73)">
    <ellipse id="freepik--path--inject-1" cx="99.776" cy="48.515" rx="99.776" ry="48.515" transform="translate(91 152.5)" fill="#fff"/>
    <g id="Mobile_login-bro" data-name="Mobile login-bro" transform="translate(108 73)">
      <g id="freepik--Device--inject-1--inject-32" transform="translate(43.578 0)">
        <rect id="Rectangle_4329" data-name="Rectangle 4329" width="83.996" height="158.663" rx="19.43" fill="#454545"/>
        <rect id="Rectangle_4330" data-name="Rectangle 4330" width="76.53" height="123.818" transform="translate(3.731 17.423)" fill="#fff" stroke="#263238" stroke-miterlimit="10" stroke-width="1.337"/>
        <circle id="Ellipse_51" data-name="Ellipse 51" cx="16.588" cy="16.588" r="16.588" transform="translate(18.539 55.83) rotate(-45)" fill="#da2f37"/>
        <path id="Path_5842" data-name="Path 5842" d="M250.46,368.591H206.908a.743.743,0,0,1-.748-.744h0a.743.743,0,0,1,.748-.748H250.46a.744.744,0,0,1,.744.748h0A.744.744,0,0,1,250.46,368.591Z" transform="translate(-186.684 -235.137)" fill="#da2f37"/>
        <rect id="Rectangle_4331" data-name="Rectangle 4331" width="49.86" height="8.936" rx="4.01" transform="translate(17.068 81.744)" fill="#da2f37"/>
        <rect id="Rectangle_4332" data-name="Rectangle 4332" width="49.86" height="8.936" rx="4.01" transform="translate(17.068 98.458)" fill="#da2f37"/>
        <path id="Path_5843" data-name="Path 5843" d="M253.205,182.582l-4.881-2.81V177.45a7.636,7.636,0,0,0,1.5-2.927,1.574,1.574,0,0,0,.523.091c.605,0,.99-1.876,1.055-3.216a1.992,1.992,0,0,0-.255-2.365,4.023,4.023,0,0,0,.661-1.993c.264-1.6-.93-.929-1.859-2.391s-1.6-3.052-4.647-3.052a4.194,4.194,0,0,0-3.986,2.525,10.1,10.1,0,0,0-2.257.264c-.934.264-1.2,3.32-.4,4.518a4.552,4.552,0,0,1,.553,2.131c-.212-.259-.432-.329-.553.259a5.856,5.856,0,0,0,.8,3.186l.549-.156a7.782,7.782,0,0,0,1.561,3.126v2.322l-4.881,2.81a3.753,3.753,0,0,0-1.876,3.247v1.608a16.58,16.58,0,0,0,20.272,0v-1.608A3.744,3.744,0,0,0,253.205,182.582Z" transform="translate(-202.948 -118.477)" fill="#263238"/>
        <path id="Path_5844" data-name="Path 5844" d="M213.194,299.215a.432.432,0,0,1-.3-.125.4.4,0,0,1-.134-.3.432.432,0,0,1,.065-.221l.778-1.245-1.517.048a.406.406,0,0,1-.311-.117.432.432,0,0,1,0-.575.393.393,0,0,1,.311-.121l1.5.056-.77-1.241a.432.432,0,0,1-.065-.225.4.4,0,0,1,.134-.3.432.432,0,0,1,.3-.125.389.389,0,0,1,.35.225l.739,1.336.731-1.327a.432.432,0,0,1,.376-.242.393.393,0,0,1,.29.13.441.441,0,0,1,.065.519l-.783,1.254,1.517-.056a.393.393,0,0,1,.311.121.4.4,0,0,1,.112.285.432.432,0,0,1-.112.29.406.406,0,0,1-.311.117l-1.526-.048.761,1.232a.433.433,0,0,1-.368.661.38.38,0,0,1-.346-.233l-.722-1.3-.718,1.3A.406.406,0,0,1,213.194,299.215Z" transform="translate(-189.81 -194.043)" fill="#263238"/>
        <path id="Path_5845" data-name="Path 5845" d="M229.406,299.215a.432.432,0,0,1-.3-.125.4.4,0,0,1-.134-.3.433.433,0,0,1,.065-.221l.778-1.245-1.513.048a.432.432,0,0,1-.316-.117.411.411,0,0,1,.316-.7l1.492.056-.77-1.241a.432.432,0,0,1-.065-.225.4.4,0,0,1,.134-.3.432.432,0,0,1,.3-.125.389.389,0,0,1,.35.225l.739,1.336.731-1.327a.432.432,0,0,1,.376-.242.385.385,0,0,1,.29.13.423.423,0,0,1,.065.519l-.783,1.254,1.522-.047a.385.385,0,0,1,.307.121.4.4,0,0,1,.112.285.433.433,0,0,1-.112.29.4.4,0,0,1-.307.117l-1.53-.048.761,1.232a.433.433,0,0,1-.367.661.38.38,0,0,1-.346-.233l-.722-1.3-.718,1.3A.406.406,0,0,1,229.406,299.215Z" transform="translate(-199.009 -194.043)" fill="#263238"/>
        <path id="Path_5846" data-name="Path 5846" d="M245.636,299.215a.433.433,0,0,1-.3-.125.4.4,0,0,1-.134-.3.432.432,0,0,1,.065-.221l.778-1.245-1.513.048a.411.411,0,0,1-.316-.692.406.406,0,0,1,.316-.121l1.492.056-.77-1.241a.434.434,0,0,1,.372-.653.389.389,0,0,1,.346.225l.739,1.336.731-1.327a.432.432,0,0,1,.376-.242.385.385,0,0,1,.29.13.423.423,0,0,1,.065.519l-.783,1.254,1.522-.056a.394.394,0,0,1,.432.406.433.433,0,0,1-.108.29.406.406,0,0,1-.311.117l-1.526-.048.757,1.232a.42.42,0,0,1-.069.532.406.406,0,0,1-.294.13.376.376,0,0,1-.342-.233l-.726-1.3-.718,1.3A.4.4,0,0,1,245.636,299.215Z" transform="translate(-208.223 -194.043)" fill="#263238"/>
        <path id="Path_5847" data-name="Path 5847" d="M261.859,299.215a.436.436,0,0,1-.432-.428.406.406,0,0,1,.061-.221l.778-1.245-1.513.048a.407.407,0,1,1,0-.813l1.5.056-.765-1.241a.434.434,0,0,1,.372-.653.389.389,0,0,1,.35.225l.735,1.336.731-1.327a.432.432,0,0,1,.376-.242.385.385,0,0,1,.29.13.423.423,0,0,1,.065.519l-.783,1.254,1.522-.056a.394.394,0,0,1,.432.406.433.433,0,0,1-.108.29.407.407,0,0,1-.311.117l-1.526-.048.757,1.232a.432.432,0,0,1,.065.229.4.4,0,0,1-.134.3.406.406,0,0,1-.294.13.376.376,0,0,1-.342-.234l-.726-1.3-.718,1.3A.4.4,0,0,1,261.859,299.215Z" transform="translate(-217.433 -194.043)" fill="#263238"/>
        <path id="Path_5848" data-name="Path 5848" d="M278.079,299.215a.429.429,0,0,1-.367-.649l.774-1.245-1.513.048a.407.407,0,1,1,0-.813l1.5.056-.77-1.241a.431.431,0,0,1,.367-.653.389.389,0,0,1,.35.225l.735,1.336.731-1.327a.432.432,0,0,1,.376-.242.394.394,0,0,1,.294.13.429.429,0,0,1,.061.519l-.783,1.254,1.522-.056a.393.393,0,0,1,.432.406.432.432,0,0,1-.108.29.406.406,0,0,1-.311.117l-1.526-.048.757,1.232a.433.433,0,0,1,.065.229.4.4,0,0,1-.134.3.407.407,0,0,1-.294.13.376.376,0,0,1-.342-.233l-.726-1.3-.718,1.3A.4.4,0,0,1,278.079,299.215Z" transform="translate(-226.641 -194.043)" fill="#263238"/>
        <path id="Path_5849" data-name="Path 5849" d="M294.289,299.215a.433.433,0,0,1-.3-.125.4.4,0,0,1-.134-.3.433.433,0,0,1,.065-.221l.774-1.245-1.513.048a.407.407,0,0,1-.316-.692.393.393,0,0,1,.311-.121l1.5.056-.77-1.241a.43.43,0,0,1,.367-.653.389.389,0,0,1,.35.225l.735,1.336.735-1.327a.432.432,0,0,1,.372-.242.393.393,0,0,1,.294.13.441.441,0,0,1,.065.519l-.783,1.254,1.517-.056a.393.393,0,0,1,.311.121.4.4,0,0,1,.112.285.433.433,0,0,1-.112.29.406.406,0,0,1-.311.117l-1.526-.048.757,1.232a.438.438,0,0,1-.363.661.376.376,0,0,1-.342-.233l-.726-1.3-.718,1.3A.4.4,0,0,1,294.289,299.215Z" transform="translate(-235.839 -194.043)" fill="#263238"/>
        <rect id="Rectangle_4333" data-name="Rectangle 4333" width="76.53" height="4.794" transform="translate(3.731 17.587)" fill="#da2f37"/>
        <path id="Path_5850" data-name="Path 5850" d="M254.157,79.135H237.513A1.133,1.133,0,0,1,236.38,78h0a1.133,1.133,0,0,1,1.133-1.133h16.645A1.133,1.133,0,0,1,255.29,78h0A1.133,1.133,0,0,1,254.157,79.135Z" transform="translate(-203.839 -70.381)" fill="#da2f37" stroke="#263238" stroke-linecap="round" stroke-linejoin="round" stroke-width="1.337"/>
        <path id="Path_5851" data-name="Path 5851" d="M256.829,398.774a4.539,4.539,0,1,0-4.535,4.535A4.539,4.539,0,0,0,256.829,398.774Z" transform="translate(-210.293 -250.538)" fill="#da2f37"/>
        <rect id="Rectangle_4334" data-name="Rectangle 4334" width="4.6" height="4.6" transform="translate(39.7 145.936)" fill="#da2f37" stroke="#263238" stroke-linecap="round" stroke-linejoin="round" stroke-width="1.337"/>
      </g>
      <g id="freepik--Plant--inject-1--inject-32" transform="translate(120.699 75.802)">
        <path id="Path_5852" data-name="Path 5852" d="M359.169,257.43s-6.027-15.313-.661-17.133c5.586-1.9,5.339,8.214,5.123,13.143-.454,10.531-1.617,12.49-2.486,9.918Zm-1.811,11.945c1.656,2.162,2.123-.078-.865-10.19-1.4-4.756-4.444-14.375-9.113-10.765-4.483,3.459,6.187,16,6.187,16Zm-3.2,8.776c1.578,1.4,1.608-.367-2.14-7.669-1.76-3.42-5.482-10.341-8.53-6.917-2.927,3.3,7.047,11.331,7.047,11.331ZM350.7,288.588c1.578,1.405,1.608-.367-2.14-7.665-1.76-3.42-5.482-10.346-8.53-6.917-2.91,3.312,7.034,11.34,7.034,11.34Zm9.987-21.244c-2.525.986-.519,2.058,10.026,2.028,4.946,0,15.045-.225,12.892-5.72-2.062-5.279-17.081,1.444-17.081,1.444Zm-2.875,7.021c-2.672.463-.917,1.915,9.425,3.982,4.846.973,14.785,2.767,13.77-3.026-.973-5.586-17.029-1.98-17.029-1.98Zm-3.216,8.573c-2.274.329-.821,1.6,7.873,3.584,4.077.934,12.442,2.685,11.716-2.257-.692-4.756-14.353-2.067-14.353-2.067Zm-2.443,7.942c-2.226.566-.648,1.673,8.214,2.728,4.15.493,12.654,1.349,11.413-3.489-1.2-4.643-14.5-.532-14.5-.532Zm13.03-32.152c-1.3,2.905,1.4,2.464,10.553-5.525,4.289-3.748,12.892-11.591,6.078-15.495-6.541-3.753-13.575,14.353-13.575,14.353Zm-12.693,42.5c-1.37.8-.026,1.111,6.26-.143,2.949-.584,8.945-1.881,6.917-4.44-1.963-2.464-10,2.724-10,2.724Z" transform="translate(-339.496 -237.196)" fill="#da2f37"/>
        <path id="Path_5853" data-name="Path 5853" d="M359.169,257.43s-6.027-15.313-.661-17.133c5.586-1.9,5.339,8.214,5.123,13.143-.454,10.531-1.617,12.49-2.486,9.918Zm-1.811,11.945c1.656,2.162,2.123-.078-.865-10.19-1.4-4.756-4.444-14.375-9.113-10.765-4.483,3.459,6.187,16,6.187,16Zm-3.2,8.776c1.578,1.4,1.608-.367-2.14-7.669-1.76-3.42-5.482-10.341-8.53-6.917-2.927,3.3,7.047,11.331,7.047,11.331ZM350.7,288.588c1.578,1.405,1.608-.367-2.14-7.665-1.76-3.42-5.482-10.346-8.53-6.917-2.91,3.312,7.034,11.34,7.034,11.34Zm9.987-21.244c-2.525.986-.519,2.058,10.026,2.028,4.946,0,15.045-.225,12.892-5.72-2.062-5.279-17.081,1.444-17.081,1.444Zm-2.875,7.021c-2.672.463-.917,1.915,9.425,3.982,4.846.973,14.785,2.767,13.77-3.026-.973-5.586-17.029-1.98-17.029-1.98Zm-3.216,8.573c-2.274.329-.821,1.6,7.873,3.584,4.077.934,12.442,2.685,11.716-2.257-.692-4.756-14.353-2.067-14.353-2.067Zm-2.443,7.942c-2.226.566-.648,1.673,8.214,2.728,4.15.493,12.654,1.349,11.413-3.489-1.2-4.643-14.5-.532-14.5-.532Zm13.03-32.152c-1.3,2.905,1.4,2.464,10.553-5.525,4.289-3.748,12.892-11.591,6.078-15.495-6.541-3.753-13.575,14.353-13.575,14.353Zm-12.693,42.5c-1.37.8-.026,1.111,6.26-.143,2.949-.584,8.945-1.881,6.917-4.44-1.963-2.464-10,2.724-10,2.724Z" transform="translate(-339.496 -237.196)" fill="#fff" opacity="0.3"/>
        <path id="Path_5854" data-name="Path 5854" d="M370.565,273.268l-1.051-17.479m-2.274,23.246L360.6,264m23.778,10.661-15.914,2.283m-4.665,10.19-8.616-11.055m10.129,7.665,11.872.6M362.5,292.226l9.079.9m-11.271,4.488-4.509-6.783m3.99,9.178,10.674.1M357.63,320.033a.272.272,0,0,0,.251-.29c-.679-10.194,3.264-26.891,9.589-40.6,4.042-8.759,19.887-25.974,20.056-26.147a.272.272,0,0,0,0-.385.268.268,0,0,0-.381,0c-.16.173-16.069,17.453-20.146,26.29-6.442,14.038-10.333,30.431-9.641,40.872A.277.277,0,0,0,357.63,320.033Zm12.931-46.5a.272.272,0,0,0,.255-.285l-1.033-17.488a.268.268,0,0,0-.285-.255.272.272,0,0,0-.255.285l1.051,17.479a.268.268,0,0,0,.268.255Zm-3.225,5.746a.272.272,0,0,0,.138-.355L360.83,263.9a.269.269,0,0,0-.493.216l6.641,15.032a.272.272,0,0,0,.246.164.269.269,0,0,0,.13-.026Zm1.15-2.075,15.905-2.274a.272.272,0,1,0-.074-.536l-15.905,2.274a.269.269,0,1,0,.035.536Zm-4.535,10.147a.272.272,0,0,0,.048-.38L355.378,275.9a.273.273,0,1,0-.432.333l8.638,11.093a.268.268,0,0,0,.212.1.272.272,0,0,0,.173-.073Zm13.471-3a.272.272,0,0,0-.259-.281l-11.85-.6a.272.272,0,0,0-.026.54l11.872.6h0a.272.272,0,0,0,.281-.259Zm-5.59,8.793a.268.268,0,0,0-.242-.3l-9.079-.895a.268.268,0,0,0-.294.242.272.272,0,0,0,.242.294l9.079.9h.026a.268.268,0,0,0,.285-.242Zm-11.392,4.686a.272.272,0,0,0,.078-.376l-4.488-6.783a.277.277,0,0,0-.376-.074.272.272,0,0,0-.078.376l4.488,6.783a.281.281,0,0,0,.229.121.259.259,0,0,0,.164-.047Zm10.3,2.27a.277.277,0,0,0-.268-.272l-10.674-.1h0a.268.268,0,0,0-.268.268.264.264,0,0,0,.268.272l10.674.1h0a.272.272,0,0,0,.285-.268Zm-14.323,15.961a10.551,10.551,0,0,1,7.315-6.26.272.272,0,0,0,.208-.324.277.277,0,0,0-.324-.2,11.107,11.107,0,0,0-7.708,6.61.277.277,0,0,0,.169.346h.087a.268.268,0,0,0,.272-.169Zm1.215,3.964a.272.272,0,0,0,.251-.29c-.679-10.194,3.264-26.891,9.589-40.6,4.042-8.759,19.887-25.974,20.056-26.147a.272.272,0,0,0,0-.385.268.268,0,0,0-.381,0c-.16.173-16.069,17.453-20.146,26.29-6.442,14.038-10.333,30.431-9.641,40.872A.277.277,0,0,0,357.63,320.033Zm12.931-46.5a.272.272,0,0,0,.255-.285l-1.033-17.488a.268.268,0,0,0-.285-.255.272.272,0,0,0-.255.285l1.051,17.479a.268.268,0,0,0,.268.255Zm-3.225,5.746a.272.272,0,0,0,.138-.355L360.83,263.9a.269.269,0,0,0-.493.216l6.641,15.032a.272.272,0,0,0,.246.164.269.269,0,0,0,.13-.026Zm1.15-2.075,15.905-2.274a.272.272,0,1,0-.074-.536l-15.905,2.274a.269.269,0,1,0,.035.536Zm-4.535,10.147a.272.272,0,0,0,.048-.38L355.378,275.9a.273.273,0,1,0-.432.333l8.638,11.093a.268.268,0,0,0,.212.1.272.272,0,0,0,.173-.073Zm13.471-3a.272.272,0,0,0-.259-.281l-11.85-.6a.272.272,0,0,0-.026.54l11.872.6h0a.272.272,0,0,0,.281-.259Zm-5.59,8.793a.268.268,0,0,0-.242-.3l-9.079-.895a.268.268,0,0,0-.294.242.272.272,0,0,0,.242.294l9.079.9h.026a.268.268,0,0,0,.285-.242Zm-11.392,4.686a.272.272,0,0,0,.078-.376l-4.488-6.783a.277.277,0,0,0-.376-.074.272.272,0,0,0-.078.376l4.488,6.783a.281.281,0,0,0,.229.121.259.259,0,0,0,.164-.047Zm10.3,2.27a.277.277,0,0,0-.268-.272l-10.674-.1h0a.268.268,0,0,0-.268.268.264.264,0,0,0,.268.272l10.674.1h0a.272.272,0,0,0,.285-.268Zm-14.323,15.961a10.551,10.551,0,0,1,7.315-6.26.272.272,0,0,0,.208-.324.277.277,0,0,0-.324-.2,11.107,11.107,0,0,0-7.708,6.61.277.277,0,0,0,.169.346h.086a.268.268,0,0,0,.272-.169Z" transform="translate(-348.234 -245.904)" fill="#da2f37"/>
        <path id="Path_5855" data-name="Path 5855" d="M370.565,273.268l-1.051-17.479m-2.274,23.246L360.6,264m23.778,10.661-15.914,2.283m-4.665,10.19-8.616-11.055m10.129,7.665,11.872.6M362.5,292.226l9.079.9m-11.271,4.488-4.509-6.783m3.99,9.178,10.674.1M357.63,320.033a.272.272,0,0,0,.251-.29c-.679-10.194,3.264-26.891,9.589-40.6,4.042-8.759,19.887-25.974,20.056-26.147a.272.272,0,0,0,0-.385.268.268,0,0,0-.381,0c-.16.173-16.069,17.453-20.146,26.29-6.442,14.038-10.333,30.431-9.641,40.872A.277.277,0,0,0,357.63,320.033Zm12.931-46.5a.272.272,0,0,0,.255-.285l-1.033-17.488a.268.268,0,0,0-.285-.255.272.272,0,0,0-.255.285l1.051,17.479a.268.268,0,0,0,.268.255Zm-3.225,5.746a.272.272,0,0,0,.138-.355L360.83,263.9a.269.269,0,0,0-.493.216l6.641,15.032a.272.272,0,0,0,.246.164.269.269,0,0,0,.13-.026Zm1.15-2.075,15.905-2.274a.272.272,0,1,0-.074-.536l-15.905,2.274a.269.269,0,1,0,.035.536Zm-4.535,10.147a.272.272,0,0,0,.048-.38L355.378,275.9a.273.273,0,1,0-.432.333l8.638,11.093a.268.268,0,0,0,.212.1.272.272,0,0,0,.173-.073Zm13.471-3a.272.272,0,0,0-.259-.281l-11.85-.6a.272.272,0,0,0-.026.54l11.872.6h0a.272.272,0,0,0,.281-.259Zm-5.59,8.793a.268.268,0,0,0-.242-.3l-9.079-.895a.268.268,0,0,0-.294.242.272.272,0,0,0,.242.294l9.079.9h.026a.268.268,0,0,0,.285-.242Zm-11.392,4.686a.272.272,0,0,0,.078-.376l-4.488-6.783a.277.277,0,0,0-.376-.074.272.272,0,0,0-.078.376l4.488,6.783a.281.281,0,0,0,.229.121.259.259,0,0,0,.164-.047Zm10.3,2.27a.277.277,0,0,0-.268-.272l-10.674-.1h0a.268.268,0,0,0-.268.268.264.264,0,0,0,.268.272l10.674.1h0a.272.272,0,0,0,.285-.268Zm-14.323,15.961a10.551,10.551,0,0,1,7.315-6.26.272.272,0,0,0,.208-.324.277.277,0,0,0-.324-.2,11.107,11.107,0,0,0-7.708,6.61.277.277,0,0,0,.169.346h.087a.268.268,0,0,0,.272-.169Zm1.215,3.964a.272.272,0,0,0,.251-.29c-.679-10.194,3.264-26.891,9.589-40.6,4.042-8.759,19.887-25.974,20.056-26.147a.272.272,0,0,0,0-.385.268.268,0,0,0-.381,0c-.16.173-16.069,17.453-20.146,26.29-6.442,14.038-10.333,30.431-9.641,40.872A.277.277,0,0,0,357.63,320.033Zm12.931-46.5a.272.272,0,0,0,.255-.285l-1.033-17.488a.268.268,0,0,0-.285-.255.272.272,0,0,0-.255.285l1.051,17.479a.268.268,0,0,0,.268.255Zm-3.225,5.746a.272.272,0,0,0,.138-.355L360.83,263.9a.269.269,0,0,0-.493.216l6.641,15.032a.272.272,0,0,0,.246.164.269.269,0,0,0,.13-.026Zm1.15-2.075,15.905-2.274a.272.272,0,1,0-.074-.536l-15.905,2.274a.269.269,0,1,0,.035.536Zm-4.535,10.147a.272.272,0,0,0,.048-.38L355.378,275.9a.273.273,0,1,0-.432.333l8.638,11.093a.268.268,0,0,0,.212.1.272.272,0,0,0,.173-.073Zm13.471-3a.272.272,0,0,0-.259-.281l-11.85-.6a.272.272,0,0,0-.026.54l11.872.6h0a.272.272,0,0,0,.281-.259Zm-5.59,8.793a.268.268,0,0,0-.242-.3l-9.079-.895a.268.268,0,0,0-.294.242.272.272,0,0,0,.242.294l9.079.9h.026a.268.268,0,0,0,.285-.242Zm-11.392,4.686a.272.272,0,0,0,.078-.376l-4.488-6.783a.277.277,0,0,0-.376-.074.272.272,0,0,0-.078.376l4.488,6.783a.281.281,0,0,0,.229.121.259.259,0,0,0,.164-.047Zm10.3,2.27a.277.277,0,0,0-.268-.272l-10.674-.1h0a.268.268,0,0,0-.268.268.264.264,0,0,0,.268.272l10.674.1h0a.272.272,0,0,0,.285-.268Zm-14.323,15.961a10.551,10.551,0,0,1,7.315-6.26.272.272,0,0,0,.208-.324.277.277,0,0,0-.324-.2,11.107,11.107,0,0,0-7.708,6.61.277.277,0,0,0,.169.346h.086a.268.268,0,0,0,.272-.169Z" transform="translate(-348.234 -245.904)" opacity="0.2"/>
        <path id="Path_5856" data-name="Path 5856" d="M361.489,391.03H349.25v2.533h1.068l2.209,13.821h5.685l2.209-13.821h1.068Z" transform="translate(-345.033 -324.524)" fill="#da2f37"/>
        <path id="Path_5857" data-name="Path 5857" d="M361.489,391.03H349.25v2.533h1.068l2.209,13.821h5.685l2.209-13.821h1.068Z" transform="translate(-345.033 -324.524)" fill="#fff" opacity="0.3"/>
      </g>
      <g id="freepik--Character--inject-1--inject-32" transform="translate(0 22.554)">
        <path id="Path_5858" data-name="Path 5858" d="M91.634,201.909,77.4,197.261l-1.267-3.346-2.892-.091-5.248-.994.631,1.085,6.606,4.794,1.63.813L91.746,207.3Z" transform="translate(-64.67 -158.763)" fill="#fff" stroke="#263238" stroke-miterlimit="10" stroke-width="1.004"/>
        <path id="Path_5859" data-name="Path 5859" d="M81.478,194.273l-1.357-.813-2.711.994.45.54Z" transform="translate(-70.017 -159.12)" fill="#fff" stroke="#263238" stroke-linejoin="round" stroke-width="1.004"/>
        <path id="Path_5860" data-name="Path 5860" d="M91.634,201.909,77.4,197.261l-1.267-3.346-2.892-.091-5.248-.994.631,1.085,6.606,4.794,1.63.813L91.746,207.3Z" transform="translate(-64.67 -158.763)" fill="#fff"/>
        <g id="Group_5750" data-name="Group 5750" transform="translate(3.32 34.067)" clip-path="url(#clip-path)">
          <path id="Path_5861" data-name="Path 5861" d="M91.634,201.909,77.4,197.261l-1.267-3.346-2.892-.091-5.248-.994.631,1.085,6.606,4.794,1.63.813L91.746,207.3Z" transform="translate(-67.99 -192.83)" fill="#da2f37" stroke="#263238" stroke-miterlimit="10" stroke-width="1.004" opacity="0.5"/>
        </g>
        <path id="Path_5863" data-name="Path 5863" d="M91.634,201.909,77.4,197.261l-1.267-3.346-2.892-.091-5.248-.994.631,1.085,6.606,4.794,1.63.813L91.746,207.3Z" transform="translate(-64.67 -158.763)" fill="none" stroke="#263238" stroke-miterlimit="10" stroke-width="1.004"/>
        <path id="Path_5864" data-name="Path 5864" d="M81.478,194.273l-1.357-.813-2.711.994.45.54Z" transform="translate(-70.017 -159.12)" fill="#fff"/>
        <g id="Group_5751" data-name="Group 5751" transform="translate(7.393 34.34)" clip-path="url(#clip-path-2)">
          <path id="Path_5865" data-name="Path 5865" d="M81.478,194.273l-1.357-.813-2.711.994.45.54Z" transform="translate(-77.41 -193.46)" fill="#da2f37" stroke="#263238" stroke-linejoin="round" stroke-width="1.004" opacity="0.5"/>
        </g>
        <path id="Path_5867" data-name="Path 5867" d="M81.478,194.273l-1.357-.813-2.711.994.45.54Z" transform="translate(-70.017 -159.12)" fill="none" stroke="#263238" stroke-linejoin="round" stroke-width="1.004"/>
        <path id="Path_5868" data-name="Path 5868" d="M123.033,142.747a7.557,7.557,0,0,0,.329,3.195,61.847,61.847,0,0,0,3.6,5.482l-5.689,4.561s-2.36-4.756-2.81-5.525a7.837,7.837,0,0,1,.476-6.455C120.4,141.631,122.51,140.992,123.033,142.747Z" transform="translate(-93.047 -129.764)" fill="#fff"/>
        <g id="Group_5752" data-name="Group 5752" transform="translate(24.931 11.983)" clip-path="url(#clip-path-3)">
          <path id="Path_5869" data-name="Path 5869" d="M121.167,158.52l2.469,5.119-1.314,1.872-2.482-4.431Z" transform="translate(-119.035 -151.269)" fill="#da2f37" opacity="0.5"/>
        </g>
        <path id="Path_5871" data-name="Path 5871" d="M123.033,142.747a7.557,7.557,0,0,0,.329,3.195,61.847,61.847,0,0,0,3.6,5.482l-5.689,4.561s-2.36-4.756-2.81-5.525a7.837,7.837,0,0,1,.476-6.455C120.4,141.631,122.51,140.992,123.033,142.747Z" transform="translate(-93.047 -129.764)" fill="none" stroke="#263238" stroke-miterlimit="10" stroke-width="1.004"/>
        <path id="Path_5872" data-name="Path 5872" d="M112.169,127.424c-.35-2.162-2.827-6.558-6.757-6.39a9.557,9.557,0,0,0-4.851,1.254,14.266,14.266,0,0,0-2.507,1.876c-1.92,2.3-2.594,2.935-2.222,4.7a5.291,5.291,0,0,0,.324,2.067,16.476,16.476,0,0,0,1.5,3.342c-.156.731-.562,2.659-.584,3.1s1.3.134,1.963-.035c1.236,2.767,3.5,4.686,4.207,4.907,1.228.385,3.169-1.634,4.2-3.2s.251-3.325.255-4.025,2.313-2.239,3.169-2.728S112.515,129.581,112.169,127.424Z" transform="translate(-80.419 -118.003)" fill="#fff"/>
        <g id="Group_5753" data-name="Group 5753" transform="translate(15.314 3.026)" clip-path="url(#clip-path-4)">
          <path id="Path_5873" data-name="Path 5873" d="M95.868,131.537a5.292,5.292,0,0,0,.324,2.067,16.476,16.476,0,0,0,1.5,3.342c-.156.731-.562,2.659-.584,3.1s1.3.134,1.963-.035c1.236,2.767,3.5,4.686,4.207,4.907,1.228.385,3.169-1.634,4.2-3.2a3.152,3.152,0,0,0,.489-1.3c-.056-.2-.1-.329-.1-.329s-.579,2.226-1.729,1.937-2.91-2.594-3.891-3.389-.579-1.842-.774-3.026-3.1-2.227-3.294-2.905a14.243,14.243,0,0,1,.484-3.489s1.1-1.47.865-.865a4.116,4.116,0,0,0,.29,3.195,2.2,2.2,0,0,0,2.036,1.258l1.055-5.227-2.226-1.842-2.594,1.081C96.153,129.142,95.491,129.774,95.868,131.537Z" transform="translate(-95.752 -123.703)" fill="#da2f37" opacity="0.5"/>
        </g>
        <path id="Path_5875" data-name="Path 5875" d="M112.169,127.424c-.35-2.162-2.827-6.558-6.757-6.39a9.557,9.557,0,0,0-4.851,1.254,14.266,14.266,0,0,0-2.507,1.876c-1.92,2.3-2.594,2.935-2.222,4.7a5.291,5.291,0,0,0,.324,2.067,16.476,16.476,0,0,0,1.5,3.342c-.156.731-.562,2.659-.584,3.1s1.3.134,1.963-.035c1.236,2.767,3.5,4.686,4.207,4.907,1.228.385,3.169-1.634,4.2-3.2s.251-3.325.255-4.025,2.313-2.239,3.169-2.728S112.515,129.581,112.169,127.424Z" transform="translate(-80.419 -118.003)" fill="none" stroke="#263238" stroke-miterlimit="10" stroke-width="1"/>
        <path id="Path_5876" data-name="Path 5876" d="M101.42,148.64l.432,1.236s.929.307,2.062-.93" transform="translate(-83.647 -133.677)" fill="none" stroke="#263238" stroke-linecap="round" stroke-miterlimit="10" stroke-width="1"/>
        <path id="Path_5877" data-name="Path 5877" d="M108.81,159.968s1.029-.1,1.444-1.548" transform="translate(-87.842 -139.229)" fill="none" stroke="#263238" stroke-linecap="round" stroke-miterlimit="10" stroke-width="1"/>
        <path id="Path_5878" data-name="Path 5878" d="M99.75,145.029s.307-.93,2.162-.93" transform="translate(-82.699 -131.1)" fill="none" stroke="#263238" stroke-linecap="round" stroke-miterlimit="10" stroke-width="1"/>
        <path id="Path_5879" data-name="Path 5879" d="M102.289,115.34a30.724,30.724,0,0,0-4.068-.311s-4.072-2.348-7.985.156-2.032,6.887-2.032,7.981-1.254,1.1-.471,2.508,3.428.631,3.428.631a3.761,3.761,0,0,1,1.414-2.745c1.409-1.094,2.533-1.332,3-1.016a8.225,8.225,0,0,0,.156,3.286,9.2,9.2,0,0,0,2.036.783c.471,0-.307.661,1.254,1.249a1.954,1.954,0,0,0,1.729-.2c.229-.951.731-2.382,1.664-2.049,1.37.489,2.62,3.861.765,5.011,2.231.406,4.933-3.541,5.093-7.138S104.606,115.746,102.289,115.34Z" transform="translate(-75.731 -114.03)" fill="#263238"/>
        <path id="Path_5880" data-name="Path 5880" d="M106.37,129.961a2.26,2.26,0,0,1,2.559.7,8.133,8.133,0,0,0,7.782,2.118" transform="translate(-86.457 -122.991)" fill="none" stroke="#fff" stroke-linecap="round" stroke-linejoin="round" stroke-width="0.5"/>
        <path id="Path_5881" data-name="Path 5881" d="M106,126.076a2.786,2.786,0,0,1,2.114-1.236c1.323,0,4.414,1.855,6.883,1.855" transform="translate(-86.247 -120.167)" fill="none" stroke="#fff" stroke-linecap="round" stroke-linejoin="round" stroke-width="0.5"/>
        <path id="Path_5882" data-name="Path 5882" d="M99.056,131.98s-1.5-1.85-2.91-.35a2.4,2.4,0,0,0-.514,2.918" transform="translate(-80.203 -123.688)" fill="none" stroke="#fff" stroke-linecap="round" stroke-linejoin="round" stroke-width="0.5"/>
        <path id="Path_5883" data-name="Path 5883" d="M90.05,128.636a4.583,4.583,0,0,0,1.5-3c.177-1.941,2.827-3.619,4.5-2.028" transform="translate(-77.193 -119.107)" fill="none" stroke="#fff" stroke-linecap="round" stroke-linejoin="round" stroke-width="0.5"/>
        <path id="Path_5884" data-name="Path 5884" d="M96.37,118.487a3.016,3.016,0,0,1,4.855.7" transform="translate(-80.781 -116.018)" fill="none" stroke="#fff" stroke-linecap="round" stroke-linejoin="round" stroke-width="0.5"/>
        <path id="Path_5885" data-name="Path 5885" d="M127.553,410.81s1.63,2.533,1.448,4.163l-.177,1.63a64.87,64.87,0,0,1-7.246,1.639c-1.267,0-7.972-.636-7.972-.636l-.29-1.15a.38.38,0,0,1,.208-.432l5.979-2.788,1.885-2.062Z" transform="translate(-90.395 -282.505)" fill="#fff" stroke="#263238" stroke-miterlimit="10" stroke-width="1.004"/>
        <path id="Path_5886" data-name="Path 5886" d="M122.607,423.086c1.621.125,4.7-.865,6.485-1.5l-.125,1.133a65.429,65.429,0,0,1-7.267,1.639c-1.267,0-7.972-.636-7.972-.636l-.208-.821C114.592,422.909,120.463,422.922,122.607,423.086Z" transform="translate(-90.516 -288.624)" fill="#da2f37" stroke="#263238" stroke-miterlimit="10" stroke-width="1.004"/>
        <path id="Path_5887" data-name="Path 5887" d="M115.8,416.168l-8.7,3.787s-.744,1.863,0,2.235,16.956,0,16.956,0,1.12-2.944-.648-4.92S115.8,416.168,115.8,416.168Z" transform="translate(-86.682 -285.437)" fill="#fff" stroke="#263238" stroke-miterlimit="10" stroke-width="1.004"/>
        <path id="Path_5888" data-name="Path 5888" d="M124.051,428.772s-16.212.372-16.956,0c-.359-.182-.372-.7-.29-1.2h17.531A6.593,6.593,0,0,1,124.051,428.772Z" transform="translate(-86.681 -292.019)" fill="#da2f37" stroke="#263238" stroke-miterlimit="10" stroke-width="1.004"/>
        <path id="Path_5889" data-name="Path 5889" d="M112.421,262.161s-2.274,10.077-3.134,16.381a177.36,177.36,0,0,0-1.185,20.38c.182,1.448,9.234,25.715,9.234,25.715l.9,2.162,6.338-1.267s-2.9-9.234-3.982-14.306-3.459-13.4-3.459-14.85,5.62-29.108,6.022-30.924a19.007,19.007,0,0,1,2.226-4.6l-12.135-.246Z" transform="translate(-87.419 -197.234)" fill="#da2f37" stroke="#263238" stroke-miterlimit="10" stroke-width="1.004"/>
        <path id="Path_5890" data-name="Path 5890" d="M116.938,260.112s-1.332,9.2-.783,15.6,1.729,20.021,1.729,22.049,3.273,14.137,3.459,17.941a45.922,45.922,0,0,1-.117,8.214l-.195,1.993s3.817.545,4.652.783a10.335,10.335,0,0,0,2.953.32,60.6,60.6,0,0,0,1.388-11.314c0-5.205-1.154-15.918-1.729-20.259s1.236-21.084,2.265-24.21,3.277-9.745,1.764-13.125S116.938,260.112,116.938,260.112Z" transform="translate(-91.937 -195.186)" fill="#da2f37" stroke="#263238" stroke-miterlimit="10" stroke-width="1.004"/>
        <path id="Path_5891" data-name="Path 5891" d="M133.2,255.65l-.138,4.116s-2.464.489-5.785,1.064c-2.741.476-9.624-.125-11.941-.35a.8.8,0,0,1-.731-.865l.225-3.718Z" transform="translate(-91.132 -194.424)" fill="#263238"/>
        <path id="Path_5892" data-name="Path 5892" d="M123.787,160.75a50.758,50.758,0,0,0-5.357,6.822c-1.466,2.616-2.045,6.623-2.594,9.779s.938,10.566.519,13.968l-1.327,10.717s-.285.726.67,1.522,5.62,1.085,9.835,1.3c1.539.078,6.135-.912,6.887-.96.908-.056.938-1.21.977-2.118.182-4.267.951-15.641,1.457-20.6C135.9,171.078,130.194,161.325,123.787,160.75Z" transform="translate(-91.349 -140.552)" fill="#fff" stroke="#263238" stroke-miterlimit="10" stroke-width="1.004"/>
        <path id="Path_5893" data-name="Path 5893" d="M135.379,210.35c.173-2.244.346-4.28.5-5.746.043-.432.069-.865.091-1.3l-10.337,1.729-8.88-3.026a49.194,49.194,0,0,0,.311,5.5l8.711,2.438Z" transform="translate(-92.35 -163.974)" fill="#da2f37"/>
        <path id="Path_5894" data-name="Path 5894" d="M130.686,161.73c-.588.653-1.755,1.98-2.866,3.389l6.563,6.671,2.162-.865Z" transform="translate(-98.634 -141.108)" fill="#da2f37"/>
        <path id="Path_5895" data-name="Path 5895" d="M126.927,160.75a50.76,50.76,0,0,0-5.357,6.822,13.268,13.268,0,0,0-1.051,2.5l7.825-9.04A7.35,7.35,0,0,0,126.927,160.75Z" transform="translate(-94.49 -140.552)" fill="#263238"/>
        <path id="Path_5896" data-name="Path 5896" d="M117.65,187.45l8.491,2.793,10.311-1.185a24.18,24.18,0,0,0-1.69-7.484l-8.314,3.333-7.432-3.368a39.109,39.109,0,0,0-1.366,5.91Z" transform="translate(-92.861 -152.354)" fill="#da2f37"/>
        <path id="Path_5897" data-name="Path 5897" d="M131.012,243.47a26.29,26.29,0,0,1-12.857-1.051l-2.071-.709-.644,5.188,2.361.661a35.594,35.594,0,0,0,13.8,1.064l1.907-.229a1.73,1.73,0,0,0,.164-.67c.052-1.154.143-2.832.259-4.756Z" transform="translate(-91.606 -186.511)" fill="#da2f37"/>
        <path id="Path_5898" data-name="Path 5898" d="M133.33,226.868a26.19,26.19,0,0,1-12.857-1.055l-2.637-.9a17.034,17.034,0,0,1-.039,2.827l-.307,2.495,2.629.735a35.574,35.574,0,0,0,13.8,1.068l1.3-.156c.108-1.729.233-3.571.367-5.391Z" transform="translate(-92.77 -176.974)" fill="#da2f37"/>
        <rect id="Rectangle_4335" data-name="Rectangle 4335" width="10.726" height="0.575" transform="matrix(-0.779, -0.627, 0.627, -0.779, 8.359, 38.333)" fill="#263238"/>
        <path id="Path_5899" data-name="Path 5899" d="M99.679,171.54s3.065,2.088,3.134,7.021a48.935,48.935,0,0,1-.692,7.721c-.5,3.541-3.584,15.071-5.988,16.472S90,201.509,90,201.509l-18.045-11.98-4.362-3.523-2.162-4.081.679-1.3,5.322,4.081-2.866-2.65.562-.713,1.038.722L73.19,183.2l.661,4.323.934.64,17.263,6.308s-.216-9.291-.056-11.068.38-6.243,2.283-9.481" transform="translate(-63.217 -146.677)" fill="#fff"/>
        <g id="Group_5754" data-name="Group 5754" transform="translate(2.213 24.863)" clip-path="url(#clip-path-5)">
          <path id="Path_5900" data-name="Path 5900" d="M91.973,199.382c0,3.208.108,7.021.108,7.021l-17.245-6.282-.934-.64-.661-4.323-3.026-1.133-1.033-.735-.562.713,2.858,2.637-5.322-4.081-.644,1.275,2.162,4.081,4.362,3.545,1.1.731,23.843,7.682Z" transform="translate(-65.475 -183.473)" fill="#da2f37" opacity="0.5"/>
        </g>
        <path id="Path_5902" data-name="Path 5902" d="M99.679,171.54s3.065,2.088,3.134,7.021a48.935,48.935,0,0,1-.692,7.721c-.5,3.541-3.584,15.071-5.988,16.472S90,201.509,90,201.509l-18.045-11.98-4.362-3.523-2.162-4.081.679-1.3,5.322,4.081-2.866-2.65.562-.713,1.038.722L73.19,183.2l.661,4.323.934.64,17.263,6.308s-.216-9.291-.056-11.068.38-6.243,2.283-9.481" transform="translate(-63.217 -146.677)" fill="none" stroke="#263238" stroke-miterlimit="10" stroke-width="1.004"/>
        <path id="Path_5903" data-name="Path 5903" d="M125.3,192.815l6.589,4.756,1.708-3.026s1.18-.93,1.353-1.63-.048-1.837.13-2.538,1.059-1.357,1.141-3.052,0-3.108,0-3.108,1.427-5.867,1.271-8.417-2.616-7.06-4.587-7.159a6.745,6.745,0,0,0-6.524,3.208c-1.989,3.009-1.582,11.794-1.894,12.343s.121,3.26.121,3.26a1.518,1.518,0,0,0-.605,1.094,8.9,8.9,0,0,0,.726,2.438Z" transform="translate(-96.464 -145.022)" fill="#fff" stroke="#263238" stroke-miterlimit="10" stroke-width="1.004"/>
        <path id="Path_5904" data-name="Path 5904" d="M125.152,199.41a12.2,12.2,0,0,1-.169,2.252c-.277.493.039,2.719.108,3.173a25.663,25.663,0,0,0,11.461.865,4.275,4.275,0,0,0,.147-.921,31.079,31.079,0,0,0,0-3.108s.125-.523.3-1.319A41.728,41.728,0,0,1,125.152,199.41Z" transform="translate(-96.96 -162.498)" fill="#da2f37"/>
        <path id="Path_5905" data-name="Path 5905" d="M127.353,177.19a15.78,15.78,0,0,0-1.163,4.993,25.754,25.754,0,0,0,12.326,1.5,16.488,16.488,0,0,0,.22-3.026,8.422,8.422,0,0,0-.562-2.335A42.739,42.739,0,0,1,127.353,177.19Z" transform="translate(-97.709 -149.884)" fill="#da2f37"/>
        <path id="Path_5906" data-name="Path 5906" d="M125.68,220.45l.558,1.786,6.589,4.756,1.708-3.026s1.18-.93,1.353-1.63a1.921,1.921,0,0,0,.056-.372,40.288,40.288,0,0,1-10.263-1.513Z" transform="translate(-97.419 -174.442)" fill="#263238"/>
        <path id="Path_5907" data-name="Path 5907" d="M132.841,333.654s.147-3.744.865-9.217-1.007-13.246-1.3-14.543.147-4.176-.143-5.188a23.162,23.162,0,0,1-.865-10.333c.826-5.006,1.5-18.24,1.5-18.24a8.961,8.961,0,0,1-2.689-3.891c-.61-2.2-.143-2.892-.143-2.892" transform="translate(-99.812 -202.201)" fill="none" stroke="#263238" stroke-miterlimit="10" stroke-width="1.004"/>
        <line id="Line_39" data-name="Line 39" x1="0.8" y2="4.427" transform="translate(33.194 67.352)" fill="none" stroke="#263238" stroke-miterlimit="10" stroke-width="1.004"/>
      </g>
    </g>
  </g>
</svg>
