<svg xmlns="http://www.w3.org/2000/svg" width="274.552" height="244.022" viewBox="0 0 274.552 244.022">
  <g id="Reset_password-rafiki" data-name="Reset password-rafiki" transform="translate(-56.11 -82.9)">
    <g id="freepik--Shadow--inject-1" transform="translate(56.11 310.893)">
      <ellipse id="freepik--path--inject-1" cx="137.276" cy="8.015" rx="137.276" ry="8.015" fill="rgba(248,68,68,0.05)"/>
    </g>
    <g id="freepik--Tab--inject-1" transform="translate(145.914 118.669)">
      <rect id="Rectangle_4357" data-name="Rectangle 4357" width="137.035" height="165.894" rx="7.32" fill="#da2f37"/>
      <rect id="Rectangle_4358" data-name="Rectangle 4358" width="137.035" height="165.894" rx="7.32" fill="#f6f6f6"/>
      <rect id="Rectangle_4359" data-name="Rectangle 4359" width="92.636" height="15.859" transform="translate(22.196 102.201)" fill="#fff"/>
      <g id="Group_5776" data-name="Group 5776" transform="translate(26.869 107.24)" opacity="0.4">
        <path id="Path_6321" data-name="Path 6321" d="M220.9,287.574a2.287,2.287,0,0,1,2.379-2.315,2.216,2.216,0,0,1,1.664.666l-.3.3a1.813,1.813,0,0,0-1.345-.538,1.883,1.883,0,0,0,0,3.767,1.791,1.791,0,0,0,1.345-.545l.3.3a2.216,2.216,0,0,1-1.671.666,2.273,2.273,0,0,1-2.372-2.308Z" transform="translate(-220.9 -284.995)" fill="#263238"/>
        <path id="Path_6322" data-name="Path 6322" d="M227.22,288.609a1.742,1.742,0,1,1,1.742,1.735,1.685,1.685,0,0,1-1.742-1.735Zm3.009,0a1.274,1.274,0,1,0-1.267,1.331,1.246,1.246,0,0,0,1.267-1.331Z" transform="translate(-222.745 -285.463)" fill="#263238"/>
        <path id="Path_6323" data-name="Path 6323" d="M236.6,288.337v1.982h-.46v-1.94a.956.956,0,0,0-1.027-1.09,1.126,1.126,0,0,0-1.2,1.239v1.791h-.46V286.9h.439v.63a1.416,1.416,0,0,1,1.3-.651,1.31,1.31,0,0,1,1.4,1.458Z" transform="translate(-224.567 -285.467)" fill="#263238"/>
        <path id="Path_6324" data-name="Path 6324" d="M240.574,284.889a1.1,1.1,0,0,1,.708.212l-.156.347a.765.765,0,0,0-.51-.17c-.389,0-.6.219-.6.644v.4h1.055v.389h-1.041v3.03h-.46v-3.03h-.609v-.389h.609V285.9a.942.942,0,0,1,1.005-1.012Zm2.181.347a.373.373,0,1,1-.34-.319.326.326,0,0,1,.34.319Zm-.573,1.083h.46v3.42h-.46Z" transform="translate(-226.173 -284.887)" fill="#263238"/>
        <path id="Path_6325" data-name="Path 6325" d="M247.706,286.878v.446h-.113a1.1,1.1,0,0,0-1.147,1.26v1.742H246v-3.42h.439v.673A1.289,1.289,0,0,1,247.706,286.878Z" transform="translate(-228.229 -285.466)" fill="#263238"/>
        <path id="Path_6326" data-name="Path 6326" d="M255.216,288.337v1.982h-.46v-1.94c0-.708-.361-1.09-.977-1.09a1.1,1.1,0,0,0-1.147,1.239v1.791h-.46v-1.94c0-.708-.361-1.09-.984-1.09a1.112,1.112,0,0,0-1.147,1.239v1.791h-.46V286.9h.446v.623a1.416,1.416,0,0,1,1.253-.644,1.225,1.225,0,0,1,1.211.708,1.487,1.487,0,0,1,1.352-.708,1.289,1.289,0,0,1,1.374,1.459Z" transform="translate(-229.274 -285.467)" fill="#263238"/>
        <path id="Path_6327" data-name="Path 6327" d="M265.652,285.32v4.545h-.4l-2.924-3.689v3.689h-.481V285.32h.4l2.931,3.689V285.32Z" transform="translate(-232.857 -285.013)" fill="#263238"/>
        <path id="Path_6328" data-name="Path 6328" d="M272.011,288.756h-2.832a1.26,1.26,0,0,0,1.345,1.189,1.324,1.324,0,0,0,1.041-.453l.262.3a1.805,1.805,0,0,1-3.108-1.182,1.663,1.663,0,1,1,3.321,0A.281.281,0,0,0,272.011,288.756Zm-2.832-.347H271.6a1.211,1.211,0,0,0-2.421,0Z" transform="translate(-234.862 -285.469)" fill="#263238"/>
        <path id="Path_6329" data-name="Path 6329" d="M279.39,286.91l-1.3,3.42h-.432l-1.076-2.8-1.076,2.8h-.439l-1.281-3.42h.439l1.069,2.9,1.1-2.9h.375l1.09,2.9,1.083-2.9Z" transform="translate(-236.343 -285.478)" fill="#263238"/>
        <path id="Path_6330" data-name="Path 6330" d="M288.781,286.869c0,.97-.708,1.551-1.862,1.551H285.7v1.416h-.481V285.29h1.7C288.08,285.311,288.781,285.892,288.781,286.869Zm-.481,0c0-.708-.481-1.14-1.416-1.14H285.7V288h1.211C287.818,288,288.3,287.584,288.3,286.869Z" transform="translate(-239.681 -285.004)" fill="#263238"/>
        <path id="Path_6331" data-name="Path 6331" d="M293.99,288.2v2.124h-.439v-.531a1.289,1.289,0,0,1-1.175.559c-.772,0-1.246-.4-1.246-.991s.333-.984,1.324-.984h1.083v-.205c0-.581-.333-.9-.97-.9a1.756,1.756,0,0,0-1.133.4l-.205-.34a2.167,2.167,0,0,1,1.416-.46,1.211,1.211,0,0,1,1.345,1.331Zm-.46,1.09v-.559h-1.076c-.666,0-.878.262-.878.609s.319.644.864.644A1.1,1.1,0,0,0,293.53,289.288Z" transform="translate(-241.406 -285.462)" fill="#263238"/>
        <path id="Path_6332" data-name="Path 6332" d="M296.27,289.931l.212-.368a2,2,0,0,0,1.211.382c.651,0,.913-.219.913-.552,0-.892-2.209-.191-2.209-1.543,0-.559.481-.97,1.345-.97a2.273,2.273,0,0,1,1.211.319l-.2.368a1.791,1.791,0,0,0-1.012-.29c-.616,0-.885.241-.885.559,0,.927,2.216.234,2.216,1.543,0,.588-.524.97-1.416.97a2.3,2.3,0,0,1-1.388-.418Z" transform="translate(-242.907 -285.469)" fill="#263238"/>
        <path id="Path_6333" data-name="Path 6333" d="M300.76,289.931l.205-.368a2.046,2.046,0,0,0,1.218.382c.644,0,.913-.219.913-.552,0-.892-2.216-.191-2.216-1.543,0-.559.481-.97,1.352-.97a2.266,2.266,0,0,1,1.2.319l-.2.368a1.77,1.77,0,0,0-1.005-.29c-.616,0-.892.241-.892.559,0,.927,2.216.234,2.216,1.543,0,.588-.517.97-1.416.97A2.266,2.266,0,0,1,300.76,289.931Z" transform="translate(-244.218 -285.469)" fill="#263238"/>
        <path id="Path_6334" data-name="Path 6334" d="M310.593,286.91l-1.3,3.42h-.432l-1.076-2.8-1.076,2.8h-.439L305,286.91h.439l1.069,2.9,1.1-2.9h.4l1.09,2.9,1.083-2.9Z" transform="translate(-245.456 -285.478)" fill="#263238"/>
        <path id="Path_6335" data-name="Path 6335" d="M313.26,288.615A1.735,1.735,0,1,1,315,290.349a1.678,1.678,0,0,1-1.742-1.735Zm3,0a1.267,1.267,0,1,0-1.26,1.331,1.246,1.246,0,0,0,1.26-1.331Z" transform="translate(-247.868 -285.469)" fill="#263238"/>
        <path id="Path_6336" data-name="Path 6336" d="M321.21,286.878v.446H321.1a1.1,1.1,0,0,0-1.147,1.26v1.742h-.467v-3.42h.446v.673A1.288,1.288,0,0,1,321.21,286.878Z" transform="translate(-249.687 -285.466)" fill="#263238"/>
        <path id="Path_6337" data-name="Path 6337" d="M326.01,284.918v4.822h-.439v-.708a1.473,1.473,0,0,1-1.317.708,1.735,1.735,0,1,1,0-3.469,1.487,1.487,0,0,1,1.3.673V284.89Zm-.453,3.115a1.267,1.267,0,1,0-1.267,1.331,1.246,1.246,0,0,0,1.267-1.331Z" transform="translate(-250.572 -284.888)" fill="#263238"/>
      </g>
      <rect id="Rectangle_4360" data-name="Rectangle 4360" width="92.636" height="15.859" transform="translate(22.196 133.24)" opacity="0.2"/>
      <g id="Group_5777" data-name="Group 5777" transform="translate(22.479 64.287)" opacity="0.5">
        <path id="Path_6338" data-name="Path 6338" d="M214.99,224.7v1.062h1.416v.248H214.99v1.154h-.29V224.45h1.862v.248Z" transform="translate(-214.7 -224.287)"/>
        <path id="Path_6339" data-name="Path 6339" d="M217.7,226.411a1.041,1.041,0,1,1,1.041,1.041,1.005,1.005,0,0,1-1.041-1.041Zm1.8,0a.765.765,0,1,0-.758.793.743.743,0,0,0,.758-.793Z" transform="translate(-215.576 -224.556)"/>
        <path id="Path_6340" data-name="Path 6340" d="M222.448,225.378v.269h-.064a.658.658,0,0,0-.708.75v1.041H221.4v-2.046h.262v.425A.772.772,0,0,1,222.448,225.378Z" transform="translate(-216.656 -224.557)"/>
        <path id="Path_6341" data-name="Path 6341" d="M225.336,225.393v1.791a.892.892,0,0,1-1.02,1.02,1.416,1.416,0,0,1-.949-.312l.142-.212a1.2,1.2,0,0,0,.8.283c.517,0,.75-.241.75-.743v-.262a.913.913,0,0,1-.793.4.991.991,0,1,1,0-1.975.935.935,0,0,1,.807.4v-.389Zm-.269.97a.772.772,0,1,0-.772.75.708.708,0,0,0,.772-.75Z" transform="translate(-217.179 -224.557)"/>
        <path id="Path_6342" data-name="Path 6342" d="M227,226.411a1.041,1.041,0,1,1,1.041,1.041A1.005,1.005,0,0,1,227,226.411Zm1.8,0a.758.758,0,1,0-.758.793.743.743,0,0,0,.772-.793Z" transform="translate(-218.291 -224.556)"/>
        <path id="Path_6343" data-name="Path 6343" d="M231.695,227.135a.708.708,0,0,1-.432.142.538.538,0,0,1-.595-.595V225.45H230.3v-.234h.368v-.446h.276v.446h.616v.234h-.616v1.218c0,.241.12.368.347.368a.489.489,0,0,0,.3-.1Z" transform="translate(-219.255 -224.381)"/>
        <path id="Path_6344" data-name="Path 6344" d="M236.63,225.377c0,.581-.425.927-1.112.927h-.708v.857h-.29V224.45h1.02C236.205,224.45,236.63,224.8,236.63,225.377Zm-.29,0c0-.432-.283-.708-.828-.708H234.8v1.352h.708C236.056,226.05,236.34,225.8,236.34,225.377Z" transform="translate(-220.487 -224.287)"/>
        <path id="Path_6345" data-name="Path 6345" d="M239.73,226.165v1.26h-.262v-.319a.772.772,0,0,1-.708.34c-.467,0-.75-.241-.75-.595s.205-.581.793-.581h.644v-.12a.5.5,0,0,0-.573-.538,1.02,1.02,0,0,0-.708.241l-.127-.205a1.281,1.281,0,0,1,.828-.276.708.708,0,0,1,.864.793Zm-.276.651v-.34h-.637c-.4,0-.524.156-.524.368s.191.382.517.382a.651.651,0,0,0,.644-.411Z" transform="translate(-221.506 -224.551)"/>
        <path id="Path_6346" data-name="Path 6346" d="M241.1,227.25l.127-.212a1.218,1.218,0,0,0,.708.227c.389,0,.545-.135.545-.333,0-.531-1.324-.113-1.324-.92,0-.333.29-.581.807-.581a1.331,1.331,0,0,1,.708.191l-.12.219a1.02,1.02,0,0,0-.6-.177c-.368,0-.531.142-.531.34,0,.552,1.324.135,1.324.92,0,.354-.312.581-.843.581A1.345,1.345,0,0,1,241.1,227.25Z" transform="translate(-222.409 -224.573)"/>
        <path id="Path_6347" data-name="Path 6347" d="M243.78,227.25l.127-.212a1.232,1.232,0,0,0,.708.227c.389,0,.545-.135.545-.333,0-.531-1.317-.113-1.317-.92,0-.333.283-.581.8-.581a1.331,1.331,0,0,1,.708.191l-.12.219a1.02,1.02,0,0,0-.6-.177c-.368,0-.531.142-.531.34,0,.552,1.324.135,1.324.92,0,.354-.312.581-.843.581A1.345,1.345,0,0,1,243.78,227.25Z" transform="translate(-223.191 -224.573)"/>
        <path id="Path_6348" data-name="Path 6348" d="M249.645,225.4l-.708,2.039h-.262l-.644-1.671-.644,1.671h-.262l-.765-2.039h.262l.637,1.735.658-1.735h.234l.651,1.735.651-1.735Z" transform="translate(-223.944 -224.565)"/>
        <path id="Path_6349" data-name="Path 6349" d="M251.25,226.411a1.041,1.041,0,1,1,1.041,1.041,1.005,1.005,0,0,1-1.041-1.041Zm1.8,0a.758.758,0,1,0-.758.793.743.743,0,0,0,.758-.793Z" transform="translate(-225.372 -224.556)"/>
        <path id="Path_6350" data-name="Path 6350" d="M256.012,225.379v.269h-.064a.658.658,0,0,0-.708.75v1.041H255v-2.046h.262v.425A.772.772,0,0,1,256.012,225.379Z" transform="translate(-226.467 -224.558)"/>
        <path id="Path_6351" data-name="Path 6351" d="M258.911,224.22v2.875h-.269v-.4a.871.871,0,0,1-.786.425,1.041,1.041,0,0,1,0-2.074.9.9,0,0,1,.779.4V224.22Zm-.276,1.855a.758.758,0,1,0-.758.793.743.743,0,0,0,.758-.793Z" transform="translate(-227.022 -224.22)"/>
        <path id="Path_6352" data-name="Path 6352" d="M261.922,225.131c0-.283-.227-.474-.623-.474a.9.9,0,0,0-.743.312l-.205-.156a1.2,1.2,0,0,1,.97-.4c.538,0,.892.262.892.708,0,.658-.708.708-.708,1.246h-.283C261.214,225.7,261.922,225.634,261.922,225.131Zm-.765,1.82a.205.205,0,1,1,.088.209.205.205,0,0,1-.088-.209Z" transform="translate(-228.029 -224.275)"/>
      </g>
      <rect id="Rectangle_4361" data-name="Rectangle 4361" width="92.636" height="15.859" transform="translate(22.196 132.263)" fill="#da2f37"/>
      <path id="Path_6353" data-name="Path 6353" d="M242.83,331.991l.29-.609a2.768,2.768,0,0,0,1.791.63c.935,0,1.338-.361,1.338-.835,0-1.324-3.285-.489-3.285-2.506,0-.835.651-1.551,2.074-1.551a3.2,3.2,0,0,1,1.749.481l-.255.616a2.832,2.832,0,0,0-1.494-.439c-.92,0-1.317.389-1.317.864,0,1.324,3.292.5,3.292,2.485,0,.835-.708,1.543-2.124,1.543a3.214,3.214,0,0,1-2.06-.68Z" transform="translate(-200.434 -189.979)" fill="#fff"/>
      <path id="Path_6354" data-name="Path 6354" d="M253.727,331.39h-3.335a1.416,1.416,0,0,0,1.494,1.2,1.543,1.543,0,0,0,1.182-.5l.411.481a2.237,2.237,0,0,1-3.83-1.416,2.018,2.018,0,0,1,2.06-2.124,1.982,1.982,0,0,1,2.032,2.124C253.741,331.227,253.734,331.319,253.727,331.39Zm-3.335-.531h2.641a1.331,1.331,0,0,0-2.641,0Z" transform="translate(-202.425 -190.539)" fill="#fff"/>
      <path id="Path_6355" data-name="Path 6355" d="M258.96,332.621a1.416,1.416,0,0,1-.9.283,1.175,1.175,0,0,1-1.3-1.289v-2.237h-.708v-.609h.708v-.9h.743v.9h1.182v.609H257.5v2.23a.6.6,0,0,0,.644.708.906.906,0,0,0,.581-.191Z" transform="translate(-204.295 -190.198)" fill="#fff"/>
      <path id="Path_6356" data-name="Path 6356" d="M268.923,329.14c0,1.182-.857,1.89-2.266,1.89h-1.345v1.65h-.772v-5.43h2.124C268.066,327.25,268.923,327.958,268.923,329.14Zm-.779,0c0-.779-.517-1.218-1.508-1.218h-1.324v2.436h1.324C267.627,330.358,268.144,329.905,268.144,329.14Z" transform="translate(-206.774 -190.017)" fill="#fff"/>
      <path id="Path_6357" data-name="Path 6357" d="M275.265,330.72v2.485h-.708v-.545a1.536,1.536,0,0,1-1.352.588c-.927,0-1.515-.5-1.515-1.211s.425-1.2,1.65-1.2h1.182v-.142c0-.63-.368-1-1.1-1a2.124,2.124,0,0,0-1.3.446l-.311-.56a2.747,2.747,0,0,1,1.7-.531C274.628,329.05,275.265,329.595,275.265,330.72Zm-.743,1.225v-.573h-1.154c-.708,0-.942.29-.942.637s.34.666.906.666A1.2,1.2,0,0,0,274.522,331.945Z" transform="translate(-208.861 -190.542)" fill="#fff"/>
      <path id="Path_6358" data-name="Path 6358" d="M278,332.767l.312-.588a2.634,2.634,0,0,0,1.416.425c.708,0,.977-.205.977-.559,0-.92-2.6-.12-2.6-1.756,0-.708.658-1.239,1.713-1.239a2.981,2.981,0,0,1,1.5.375l-.319.588a2.124,2.124,0,0,0-1.189-.326c-.651,0-.97.241-.97.566,0,.97,2.613.177,2.613,1.777,0,.743-.708,1.218-1.777,1.218a2.924,2.924,0,0,1-1.678-.481Z" transform="translate(-210.704 -190.542)" fill="#fff"/>
      <path id="Path_6359" data-name="Path 6359" d="M283.45,332.767l.312-.588a2.633,2.633,0,0,0,1.416.425c.708,0,.977-.205.977-.559,0-.92-2.6-.12-2.6-1.756,0-.708.658-1.239,1.713-1.239a2.974,2.974,0,0,1,1.494.375l-.319.588a2.124,2.124,0,0,0-1.182-.326c-.651,0-.97.241-.97.566,0,.97,2.605.177,2.605,1.777,0,.743-.708,1.218-1.777,1.218A2.938,2.938,0,0,1,283.45,332.767Z" transform="translate(-212.295 -190.542)" fill="#fff"/>
      <path id="Path_6360" data-name="Path 6360" d="M295.518,329.11l-1.536,4.114h-.708l-1.189-3.122-1.2,3.122h-.708l-1.522-4.114h.708l1.2,3.271,1.239-3.271h.644l1.218,3.285,1.225-3.285Z" transform="translate(-213.813 -190.56)" fill="#fff"/>
      <path id="Path_6361" data-name="Path 6361" d="M298.719,331.124a2.124,2.124,0,1,1,2.124,2.124,2.046,2.046,0,0,1-2.124-2.124Zm3.54,0a1.416,1.416,0,1,0-1.381,1.451,1.352,1.352,0,0,0,1.366-1.451Z" transform="translate(-216.753 -190.528)" fill="#fff"/>
      <path id="Path_6362" data-name="Path 6362" d="M308.444,329.048v.708h-.17a1.225,1.225,0,0,0-1.3,1.416v2.053h-.708v-4.114h.708v.708a1.572,1.572,0,0,1,1.466-.772Z" transform="translate(-218.958 -190.541)" fill="#fff"/>
      <path id="Path_6363" data-name="Path 6363" d="M314.421,326.79v5.756h-.708v-.651a1.742,1.742,0,0,1-1.466.708,2.124,2.124,0,0,1,0-4.2,1.749,1.749,0,0,1,1.416.666V326.8Zm-.75,3.689a1.416,1.416,0,1,0-1.381,1.451,1.352,1.352,0,0,0,1.381-1.451Z" transform="translate(-220.178 -189.882)" fill="#fff"/>
      <g id="Group_5778" data-name="Group 5778" transform="translate(35.294 18.295)" opacity="0.6">
        <path id="Path_6364" data-name="Path 6364" d="M236.772,165.709l-1.281-1.827H233.65v1.805h-.85V159.74h2.315c1.543,0,2.478.786,2.478,2.074a1.876,1.876,0,0,1-1.3,1.876l1.416,2Zm0-3.873c0-.85-.566-1.331-1.657-1.331H233.7v2.676h1.416c1.062,0,1.628-.5,1.628-1.345Z" transform="translate(-232.8 -159.4)" fill="#263238"/>
        <path id="Path_6365" data-name="Path 6365" d="M245.23,164.32h-3.646a1.515,1.515,0,0,0,1.628,1.31,1.678,1.678,0,0,0,1.3-.538l.453.524a2.45,2.45,0,0,1-4.191-1.572,2.2,2.2,0,0,1,2.259-2.294,2.174,2.174,0,0,1,2.223,2.3A1.6,1.6,0,0,1,245.23,164.32Zm-3.646-.588h2.889a1.441,1.441,0,0,0-2.882,0Z" transform="translate(-235.126 -159.987)" fill="#263238"/>
        <path id="Path_6366" data-name="Path 6366" d="M247.89,165.821l.34-.644a2.924,2.924,0,0,0,1.579.467c.758,0,1.069-.234,1.069-.616,0-1.005-2.832-.135-2.832-1.926,0-.807.708-1.352,1.876-1.352a3.271,3.271,0,0,1,1.635.411l-.347.644a2.358,2.358,0,0,0-1.3-.354c-.708,0-1.062.262-1.062.616,0,1.062,2.832.2,2.832,1.947,0,.814-.75,1.331-1.947,1.331A3.25,3.25,0,0,1,247.89,165.821Z" transform="translate(-237.206 -159.987)" fill="#263238"/>
        <path id="Path_6367" data-name="Path 6367" d="M258.587,164.311h-3.653a1.529,1.529,0,0,0,1.628,1.31,1.692,1.692,0,0,0,1.3-.538l.453.524a2.28,2.28,0,0,1-1.777.708,2.251,2.251,0,0,1-2.421-2.3,2.209,2.209,0,0,1,2.259-2.294,2.167,2.167,0,0,1,2.223,2.322C258.6,164.127,258.594,164.233,258.587,164.311Zm-3.653-.588h2.889a1.451,1.451,0,0,0-2.889,0Z" transform="translate(-239.025 -159.978)" fill="#263238"/>
        <path id="Path_6368" data-name="Path 6368" d="M264.325,165.642a1.543,1.543,0,0,1-.984.312,1.289,1.289,0,0,1-1.416-1.416v-2.471h-.765v-.673h.765v-.984h.814v.984h1.289v.673h-1.289V164.5a.666.666,0,0,0,.708.758,1.048,1.048,0,0,0,.637-.212Z" transform="translate(-241.081 -159.596)" fill="#263238"/>
        <path id="Path_6369" data-name="Path 6369" d="M275.213,161.844c0,1.289-.935,2.074-2.478,2.074H271.27v1.8h-.85V159.77h2.315C274.279,159.77,275.213,160.556,275.213,161.844Zm-.85,0c0-.85-.566-1.331-1.657-1.331h-1.416v2.662h1.416c1.09,0,1.664-.481,1.664-1.331Z" transform="translate(-243.785 -159.409)" fill="#263238"/>
        <path id="Path_6370" data-name="Path 6370" d="M282.155,163.576v2.719h-.772V165.7a1.671,1.671,0,0,1-1.48.644c-1.02,0-1.664-.545-1.664-1.324s.467-1.317,1.805-1.317h1.3v-.163c0-.708-.4-1.083-1.211-1.083a2.266,2.266,0,0,0-1.416.481l-.34-.609a3,3,0,0,1,1.862-.581A1.672,1.672,0,0,1,282.155,163.576Zm-.814,1.345v-.63h-1.26c-.807,0-1.034.312-1.034.708s.375.708.991.708A1.3,1.3,0,0,0,281.341,164.921Z" transform="translate(-246.068 -159.987)" fill="#263238"/>
        <path id="Path_6371" data-name="Path 6371" d="M285.1,165.821l.34-.644a2.924,2.924,0,0,0,1.579.467c.758,0,1.076-.234,1.076-.616,0-1.005-2.832-.135-2.832-1.926,0-.807.708-1.352,1.876-1.352a3.25,3.25,0,0,1,1.635.411l-.347.644a2.344,2.344,0,0,0-1.3-.354c-.708,0-1.062.262-1.062.616,0,1.062,2.832.2,2.832,1.947,0,.814-.75,1.331-1.947,1.331A3.271,3.271,0,0,1,285.1,165.821Z" transform="translate(-248.071 -159.987)" fill="#263238"/>
        <path id="Path_6372" data-name="Path 6372" d="M291.12,165.821l.34-.644a2.91,2.91,0,0,0,1.579.467c.75,0,1.069-.234,1.069-.616,0-1.005-2.832-.135-2.832-1.926,0-.807.708-1.352,1.876-1.352a3.3,3.3,0,0,1,1.643.411l-.354.644a2.343,2.343,0,0,0-1.3-.354c-.708,0-1.062.262-1.062.616,0,1.062,2.832.2,2.832,1.947,0,.814-.75,1.331-1.947,1.331A3.228,3.228,0,0,1,291.12,165.821Z" transform="translate(-249.829 -159.987)" fill="#263238"/>
        <path id="Path_6373" data-name="Path 6373" d="M304.338,161.81l-1.678,4.5h-.75l-1.3-3.413-1.317,3.413h-.786l-1.671-4.5h.772l1.31,3.59,1.359-3.59h.708l1.331,3.6,1.345-3.6Z" transform="translate(-251.499 -160.005)" fill="#263238"/>
        <path id="Path_6374" data-name="Path 6374" d="M307.83,164.016a2.344,2.344,0,1,1,2.344,2.3,2.244,2.244,0,0,1-2.344-2.3Zm3.859,0a1.515,1.515,0,1,0-1.515,1.586,1.48,1.48,0,0,0,1.515-1.586Z" transform="translate(-254.708 -159.952)" fill="#263238"/>
        <path id="Path_6375" data-name="Path 6375" d="M318.45,161.745v.793h-.191a1.338,1.338,0,0,0-1.416,1.515V166.3H316v-4.5h.779v.758a1.728,1.728,0,0,1,1.671-.807Z" transform="translate(-257.094 -159.982)" fill="#263238"/>
        <path id="Path_6376" data-name="Path 6376" d="M324.93,159.267v6.3h-.779v-.708a1.9,1.9,0,0,1-1.607.765,2.3,2.3,0,0,1,0-4.595,1.926,1.926,0,0,1,1.572.708V159.26Zm-.807,4.057a1.515,1.515,0,1,0-1.508,1.586,1.48,1.48,0,0,0,1.508-1.586Z" transform="translate(-258.37 -159.26)" fill="#263238"/>
      </g>
      <rect id="Rectangle_4362" data-name="Rectangle 4362" width="92.636" height="15.859" transform="translate(22.196 78.405)" fill="#fff"/>
      <g id="Group_5779" data-name="Group 5779" transform="translate(27.265 83.481)" opacity="0.4">
        <path id="Path_6377" data-name="Path 6377" d="M225.262,251.71v4.545h-.4l-2.924-3.689v3.689h-.481V251.71h.382l2.931,3.689V251.71Z" transform="translate(-221.46 -251.441)" fill="#263238"/>
        <path id="Path_6378" data-name="Path 6378" d="M231.641,255.146h-2.832a1.26,1.26,0,0,0,1.345,1.189,1.338,1.338,0,0,0,1.041-.446l.262.3A1.805,1.805,0,0,1,228.349,255a1.663,1.663,0,1,1,3.321,0A.244.244,0,0,0,231.641,255.146Zm-2.832-.34h2.421a1.211,1.211,0,0,0-2.421,0Z" transform="translate(-223.471 -251.896)" fill="#263238"/>
        <path id="Path_6379" data-name="Path 6379" d="M239,253.31l-1.289,3.413h-.439l-1.076-2.8-1.076,2.8h-.439L233.4,253.31h.425l1.069,2.9,1.1-2.9h.4l1.09,2.9,1.083-2.9Z" transform="translate(-224.946 -251.908)" fill="#263238"/>
        <path id="Path_6380" data-name="Path 6380" d="M248.391,253.262c0,.97-.708,1.558-1.855,1.558h-1.225v1.416h-.481V251.69h1.706C247.69,251.7,248.391,252.292,248.391,253.262Zm-.481,0c0-.708-.481-1.14-1.416-1.14h-1.211v2.273h1.211c.935,0,1.416-.418,1.416-1.133Z" transform="translate(-228.284 -251.435)" fill="#263238"/>
        <path id="Path_6381" data-name="Path 6381" d="M253.6,254.593v2.124h-.439v-.531a1.274,1.274,0,0,1-1.175.566c-.772,0-1.246-.4-1.246-.991s.34-.97,1.317-.97h1.083v-.205a.835.835,0,0,0-.963-.906,1.728,1.728,0,0,0-1.14.4l-.205-.347a2.167,2.167,0,0,1,1.416-.46,1.211,1.211,0,0,1,1.352,1.317Zm-.46,1.09v-.559h-1.069c-.666,0-.878.262-.878.616s.319.644.864.644a1.09,1.09,0,0,0,1.083-.7Z" transform="translate(-230.01 -251.896)" fill="#263238"/>
        <path id="Path_6382" data-name="Path 6382" d="M255.88,256.321l.212-.361a2.053,2.053,0,0,0,1.211.382c.651,0,.92-.219.92-.559,0-.892-2.216-.184-2.216-1.536,0-.559.481-.977,1.352-.977a2.337,2.337,0,0,1,1.2.319l-.2.368a1.784,1.784,0,0,0-1.005-.29c-.623,0-.892.241-.892.566,0,.92,2.216.227,2.216,1.536,0,.595-.524.977-1.416.977a2.3,2.3,0,0,1-1.388-.425Z" transform="translate(-231.51 -251.896)" fill="#263238"/>
        <path id="Path_6383" data-name="Path 6383" d="M260.37,256.321l.205-.361a2.124,2.124,0,0,0,1.218.382c.644,0,.913-.219.913-.559,0-.892-2.216-.184-2.216-1.536,0-.559.481-.977,1.352-.977a2.379,2.379,0,0,1,1.211.319l-.205.368a1.756,1.756,0,0,0-1.005-.29c-.616,0-.892.241-.892.566,0,.92,2.216.227,2.216,1.536,0,.595-.517.977-1.416.977A2.266,2.266,0,0,1,260.37,256.321Z" transform="translate(-232.821 -251.896)" fill="#263238"/>
        <path id="Path_6384" data-name="Path 6384" d="M270.192,253.31l-1.289,3.413h-.439l-1.076-2.8-1.1,2.8h-.439l-1.281-3.413h.439l1.069,2.9,1.1-2.9h.4l1.09,2.9,1.083-2.9Z" transform="translate(-234.048 -251.908)" fill="#263238"/>
        <path id="Path_6385" data-name="Path 6385" d="M272.869,255.008a1.735,1.735,0,1,1,1.742,1.742,1.678,1.678,0,0,1-1.742-1.742Zm3,0a1.267,1.267,0,1,0-1.26,1.331,1.246,1.246,0,0,0,1.26-1.331Z" transform="translate(-236.471 -251.899)" fill="#263238"/>
        <path id="Path_6386" data-name="Path 6386" d="M280.828,253.267v.453h-.113a1.1,1.1,0,0,0-1.147,1.253v1.742H279.1V253.3h.446v.666a1.289,1.289,0,0,1,1.281-.7Z" transform="translate(-238.29 -251.894)" fill="#263238"/>
        <path id="Path_6387" data-name="Path 6387" d="M285.663,251.33v4.814h-.439v-.673a1.473,1.473,0,0,1-1.317.708,1.742,1.742,0,0,1,0-3.476,1.48,1.48,0,0,1,1.3.708v-2.053Zm-.453,3.108a1.267,1.267,0,1,0-1.267,1.331,1.246,1.246,0,0,0,1.267-1.331Z" transform="translate(-239.218 -251.33)" fill="#263238"/>
      </g>
      <rect id="Rectangle_4363" data-name="Rectangle 4363" width="92.636" height="15.859" transform="translate(22.196 42.573)" fill="#fff"/>
      <g id="Group_5780" data-name="Group 5780" transform="translate(26.868 47.642)" opacity="0.4">
        <path id="Path_6388" data-name="Path 6388" d="M220.9,203.294a2.386,2.386,0,1,1,2.386,2.308,2.287,2.287,0,0,1-2.386-2.308Zm4.291,0a1.912,1.912,0,1,0-1.9,1.883,1.841,1.841,0,0,0,1.933-1.883Z" transform="translate(-220.898 -200.745)" fill="#263238"/>
        <path id="Path_6389" data-name="Path 6389" d="M229,200.71h.46v4.822H229Z" transform="translate(-223.264 -200.71)" fill="#263238"/>
        <path id="Path_6390" data-name="Path 6390" d="M234.45,200.71v4.822h-.439v-.708a1.487,1.487,0,0,1-1.317.708,1.735,1.735,0,0,1,0-3.469,1.487,1.487,0,0,1,1.3.708v-2.053ZM234,203.818a1.274,1.274,0,1,0-1.267,1.331A1.253,1.253,0,0,0,234,203.818Z" transform="translate(-223.836 -200.71)" fill="#263238"/>
        <path id="Path_6391" data-name="Path 6391" d="M243.8,202.658c0,.963-.708,1.551-1.855,1.551h-1.218v1.416h-.481V201.1h1.7C243.1,201.1,243.8,201.681,243.8,202.658Zm-.481,0c0-.708-.481-1.147-1.416-1.147h-1.2v2.273h1.2c.935,0,1.416-.411,1.416-1.126Z" transform="translate(-226.549 -200.824)" fill="#263238"/>
        <path id="Path_6392" data-name="Path 6392" d="M249.017,203.983v2.124h-.446v-.538a1.274,1.274,0,0,1-1.175.566c-.772,0-1.246-.4-1.246-.991s.34-.97,1.317-.97h1.09v-.205c0-.588-.333-.906-.97-.906a1.756,1.756,0,0,0-1.14.4l-.205-.34a2.124,2.124,0,0,1,1.416-.46,1.218,1.218,0,0,1,1.359,1.317Zm-.46,1.09v-.559h-1.1c-.658,0-.878.262-.878.609s.319.644.864.644a1.1,1.1,0,0,0,1.112-.694Z" transform="translate(-228.271 -201.279)" fill="#263238"/>
        <path id="Path_6393" data-name="Path 6393" d="M251.3,205.741l.205-.368a2.046,2.046,0,0,0,1.218.382c.644,0,.913-.219.913-.552,0-.892-2.216-.191-2.216-1.543,0-.559.481-.97,1.352-.97a2.315,2.315,0,0,1,1.211.319l-.205.368a1.756,1.756,0,0,0-1.005-.29c-.616,0-.892.234-.892.559,0,.927,2.216.227,2.216,1.543,0,.588-.517.97-1.416.97A2.265,2.265,0,0,1,251.3,205.741Z" transform="translate(-229.775 -201.288)" fill="#263238"/>
        <path id="Path_6394" data-name="Path 6394" d="M255.78,205.741l.212-.368a2,2,0,0,0,1.211.382c.651,0,.913-.219.913-.552,0-.892-2.209-.191-2.209-1.543,0-.559.481-.97,1.345-.97a2.273,2.273,0,0,1,1.211.319l-.2.368a1.791,1.791,0,0,0-1.012-.29c-.616,0-.885.234-.885.559,0,.927,2.216.227,2.216,1.543,0,.588-.524.97-1.416.97a2.3,2.3,0,0,1-1.388-.418Z" transform="translate(-231.083 -201.288)" fill="#263238"/>
        <path id="Path_6395" data-name="Path 6395" d="M265.607,202.69l-1.289,3.42h-.432l-1.083-2.832-1.076,2.832H261.3l-1.3-3.42h.439l1.076,2.9,1.1-2.9h.4l1.09,2.9,1.083-2.9Z" transform="translate(-232.316 -201.288)" fill="#263238"/>
        <path id="Path_6396" data-name="Path 6396" d="M268.279,204.382a1.742,1.742,0,1,1,1.742,1.742,1.678,1.678,0,0,1-1.742-1.742Zm3.009,0a1.274,1.274,0,1,0-1.267,1.331,1.246,1.246,0,0,0,1.267-1.331Z" transform="translate(-234.733 -201.274)" fill="#263238"/>
        <path id="Path_6397" data-name="Path 6397" d="M276.29,202.657v.446h-.113a1.1,1.1,0,0,0-1.147,1.26v1.742h-.46v-3.42h.439v.673a1.3,1.3,0,0,1,1.281-.7Z" transform="translate(-236.57 -201.277)" fill="#263238"/>
        <path id="Path_6398" data-name="Path 6398" d="M281.038,200.71v4.822H280.6v-.708a1.494,1.494,0,0,1-1.324.708,1.735,1.735,0,0,1,0-3.469,1.508,1.508,0,0,1,1.3.708v-2.053Zm-.453,3.108a1.274,1.274,0,1,0-1.267,1.331,1.253,1.253,0,0,0,1.267-1.331Z" transform="translate(-237.437 -200.71)" fill="#263238"/>
      </g>
    </g>
    <g id="freepik--Plant--inject-1" transform="translate(285.996 252.332)">
      <path id="Path_6399" data-name="Path 6399" d="M393.375,372.375s-4.375.581-6.245,0-1.168-9.062-3.073-9.24c-4.4-.4-3.646,10.861-1.777,13.233s11.491,1.366,11.491,1.366Z" transform="translate(-380.804 -334.155)" fill="#da2f37"/>
      <path id="Path_6400" data-name="Path 6400" d="M393.375,372.375s-4.375.581-6.245,0-1.168-9.062-3.073-9.24c-4.4-.4-3.646,10.861-1.777,13.233s11.491,1.366,11.491,1.366Z" transform="translate(-380.804 -334.155)" fill="#fff" opacity="0.2"/>
      <path id="Path_6401" data-name="Path 6401" d="M398.022,380.4s-6.478-57.519,1.253-58.177,9.6,19.619,6.613,57.448Z" transform="translate(-385.089 -322.208)" fill="#da2f37"/>
      <path id="Path_6402" data-name="Path 6402" d="M398.022,380.4s-6.478-57.519,1.253-58.177,9.6,19.619,6.613,57.448Z" transform="translate(-385.089 -322.208)" fill="#fff" opacity="0.3"/>
      <path id="Path_6403" data-name="Path 6403" d="M386.24,394.57h25.439l-2.124,16.27H388.364Z" transform="translate(-382.391 -343.337)" fill="#263238"/>
      <path id="Path_6404" data-name="Path 6404" d="M409.7,345.538s7.08.375,7.257,0,.212-8.5,3.2-8.036,1.678,10.28,0,11.42-10.457,1.756-10.457,1.756S408.529,347.053,409.7,345.538Z" transform="translate(-389.09 -326.668)" fill="#da2f37"/>
      <path id="Path_6405" data-name="Path 6405" d="M409.7,345.538s7.08.375,7.257,0,.212-8.5,3.2-8.036,1.678,10.28,0,11.42-10.457,1.756-10.457,1.756S408.529,347.053,409.7,345.538Z" transform="translate(-389.09 -326.668)" fill="#fff" opacity="0.4"/>
      <path id="Path_6406" data-name="Path 6406" d="M402.4,375.4c-1.565-15.343-3.264-30.763-2.875-46.2.113-1.182.191-6.974,2.159-6.089a1.883,1.883,0,0,1,.559.793,24.851,24.851,0,0,1,1.133,5.742c1.487,15.378,1.374,30.855,1.3,46.283-.29-15.413-.312-30.876-1.82-46.219-.2-1.876-1.331-10.11-2.485-3.745a67.349,67.349,0,0,0-.418,9.855c.262,13.219,1.331,26.409,2.45,39.585Z" transform="translate(-386.254 -322.442)" fill="#da2f37"/>
      <path id="Path_6407" data-name="Path 6407" d="M411.161,347.838a65.381,65.381,0,0,0,7.519-.786,29.4,29.4,0,0,1,1.728-8.312c-.248,1.154-.489,2.832-.708,4.043a29.655,29.655,0,0,0-.51,4.418c-.113.347-.545.411-.821.481a32.049,32.049,0,0,1-7.229.156Z" transform="translate(-389.662 -327.035)" fill="#da2f37"/>
      <path id="Path_6408" data-name="Path 6408" d="M411.17,349.974c2.952-.545,6.245-.758,9.14-1.451.75-1.189.708-2.867.92-4.248.17-1.543.3-3.094.446-4.645a44.871,44.871,0,0,1,0,4.68,15.478,15.478,0,0,1-.637,4.106,1.132,1.132,0,0,1-.474.609,50.718,50.718,0,0,1-9.374.949Z" transform="translate(-389.67 -327.295)" fill="#da2f37"/>
      <path id="Path_6409" data-name="Path 6409" d="M392.437,374.278a17.513,17.513,0,0,1-6.124-.538,2.584,2.584,0,0,1-.864-1.671,20.315,20.315,0,0,1-.382-3.908,34.148,34.148,0,0,1,.134-3.9c.1,1.3.177,2.591.29,3.88a30.606,30.606,0,0,0,.5,3.809c.149.581.29,1.31.765,1.416a34.628,34.628,0,0,0,5.664.928Z" transform="translate(-382.046 -334.487)" fill="#da2f37"/>
      <path id="Path_6410" data-name="Path 6410" d="M383.412,365.7l.46,4.524c.283,1.975.234,4.128,1.02,5.954a1.736,1.736,0,0,0,.4.227,33.3,33.3,0,0,0,6.655,1.02,31.657,31.657,0,0,1-4.56-.092c-1.048-.177-2.832-.142-3.193-1.416a38.251,38.251,0,0,1-.786-10.245Z" transform="translate(-381.56 -334.899)" fill="#da2f37"/>
    </g>
    <g id="freepik--Icon--inject-1" transform="translate(265.512 110.403)">
      <path id="Path_6411" data-name="Path 6411" d="M358.335,134.365a16.744,16.744,0,0,1,22.833-6.2l-.708,1.2,4.744-1.289-1.289-4.744-.708,1.189a20.929,20.929,0,0,0-26.14,31.959l3.158-2.768a16.723,16.723,0,0,1-1.89-19.343Z" transform="translate(-351.872 -121.745)" fill="#263238"/>
      <path id="Path_6412" data-name="Path 6412" d="M392.32,132.19l-3.186,2.7a16.73,16.73,0,0,1-21.077,25.34l.708-1.2L364,160.376l1.289,4.744.708-1.2A20.936,20.936,0,0,0,392.32,132.19Z" transform="translate(-355.413 -124.795)" fill="#263238"/>
      <g id="Group_5781" data-name="Group 5781" transform="translate(0 0)" opacity="0.6">
        <path id="Path_6413" data-name="Path 6413" d="M358.335,134.365a16.744,16.744,0,0,1,22.833-6.2l-.708,1.2,4.744-1.289-1.289-4.744-.708,1.189a20.929,20.929,0,0,0-26.14,31.959l3.158-2.768a16.723,16.723,0,0,1-1.89-19.343Z" transform="translate(-351.872 -121.745)" fill="#fff"/>
        <path id="Path_6414" data-name="Path 6414" d="M392.32,132.19l-3.186,2.7a16.73,16.73,0,0,1-21.077,25.34l.708-1.2L364,160.376l1.289,4.744.708-1.2A20.936,20.936,0,0,0,392.32,132.19Z" transform="translate(-355.413 -124.795)" fill="#fff"/>
      </g>
    </g>
    <g id="freepik--Padlock--inject-1" transform="translate(249.297 82.9)">
      <path id="Path_6415" data-name="Path 6415" d="M365.313,111.5H360.7V97.336a9.82,9.82,0,1,0-19.64,0V111.5H336.44V97.336a14.436,14.436,0,1,1,28.873,0Z" transform="translate(-331.151 -82.9)" fill="#263238"/>
      <g id="Group_5782" data-name="Group 5782" transform="translate(5.289)" opacity="0.3">
        <path id="Path_6416" data-name="Path 6416" d="M365.313,111.5H360.7V97.336a9.82,9.82,0,1,0-19.64,0V111.5H336.44V97.336a14.436,14.436,0,1,1,28.873,0Z" transform="translate(-336.44 -82.9)" fill="#fff"/>
      </g>
      <path id="Path_6417" data-name="Path 6417" d="M368.42,117.09v23.173a2.69,2.69,0,0,1-2.69,2.69H331.646a2.683,2.683,0,0,1-2.676-2.69V117.09a2.683,2.683,0,0,1,2.676-2.69H365.73a2.584,2.584,0,0,1,1.274.326A2.669,2.669,0,0,1,368.42,117.09Z" transform="translate(-328.97 -92.098)" fill="#da2f37"/>
      <path id="Path_6418" data-name="Path 6418" d="M367,114.726v22.706a2.683,2.683,0,0,1-2.69,2.683H330.23a2.62,2.62,0,0,1-1.26-.319V117.09a2.683,2.683,0,0,1,2.676-2.69H365.73a2.584,2.584,0,0,1,1.274.326Z" transform="translate(-328.97 -92.098)" fill="#fff" opacity="0.2"/>
      <path id="Path_6419" data-name="Path 6419" d="M359.813,128.4a5.076,5.076,0,1,0-6.846,4.829l-.234,6.174h4.057l-.6-6.053a5.147,5.147,0,0,0,3.625-4.949Z" transform="translate(-335.011 -94.723)" opacity="0.5"/>
    </g>
    <g id="freepik--speech-bubble--inject-1" transform="translate(83.609 104.976)">
      <path id="Path_6420" data-name="Path 6420" d="M127.37,139.57l2.351,7.554,2.344-7.554Z" transform="translate(-104.416 -121.523)" fill="#da2f37"/>
      <rect id="Rectangle_4364" data-name="Rectangle 4364" width="50.601" height="20.355" rx="8.59" transform="translate(0 0)" fill="#da2f37"/>
      <path id="Path_6421" data-name="Path 6421" d="M110.605,127.582l1.331.75-.347.609-1.352-.793v1.522h-.708v-1.522l-1.352.793-.347-.609,1.345-.75-1.345-.708.347-.623,1.352.793V125.5h.708v1.508l1.352-.793.347.623Z" transform="translate(-98.711 -117.415)" fill="#fff"/>
      <path id="Path_6422" data-name="Path 6422" d="M117.257,127.582l1.331.75-.347.609-1.352-.793v1.522h-.666v-1.522l-1.366.793-.347-.609,1.345-.75-1.345-.708.347-.623,1.352.793V125.5h.666v1.508l1.352-.793.347.623Z" transform="translate(-100.661 -117.415)" fill="#fff"/>
      <path id="Path_6423" data-name="Path 6423" d="M123.855,127.6l1.331.75-.347.609-1.352-.793v1.522h-.708v-1.522l-1.352.793-.347-.609,1.338-.75-1.338-.708.347-.623,1.352.793V125.55h.708v1.508l1.352-.793.347.623Z" transform="translate(-102.58 -117.429)" fill="#fff"/>
      <path id="Path_6424" data-name="Path 6424" d="M130.54,127.6l1.331.75-.347.609-1.352-.793v1.522H129.5v-1.522l-1.352.793-.347-.609,1.338-.75-1.338-.708.347-.623,1.352.793V125.55h.673v1.508l1.352-.793.347.623Z" transform="translate(-104.542 -117.429)" fill="#fff"/>
      <path id="Path_6425" data-name="Path 6425" d="M137.2,127.6l1.331.75-.347.609-1.359-.793v1.522h-.708v-1.522l-1.26.793-.354-.609,1.345-.75-1.345-.708.354-.623,1.352.793V125.55h.708v1.508l1.359-.793.347.623Z" transform="translate(-106.498 -117.429)" fill="#fff"/>
      <path id="Path_6426" data-name="Path 6426" d="M143.807,127.6l1.338.75-.347.609-1.359-.793v1.522h-.673v-1.522l-1.359.793-.347-.609,1.345-.75-1.345-.708.347-.623,1.359.793V125.55h.673v1.508l1.359-.793.347.623Z" transform="translate(-108.414 -117.429)" fill="#fff"/>
      <path id="Path_6427" data-name="Path 6427" d="M150.435,127.582l1.331.75-.347.609-1.352-.793v1.522h-.708v-1.522l-1.352.793-.347-.609,1.345-.75-1.345-.708.347-.623,1.352.793V125.5h.708v1.508l1.352-.793.347.623Z" transform="translate(-110.341 -117.415)" fill="#fff"/>
    </g>
    <g id="freepik--Character--inject-1" transform="translate(71.121 136.294)">
      <path id="Path_6428" data-name="Path 6428" d="M172.786,211.684l4.319-2.8-4.864-2.988s-3.7,2.726-2.216,4.574Z" transform="translate(-104.28 -172.209)" fill="#b55b52"/>
      <path id="Path_6429" data-name="Path 6429" d="M180.38,203.157l-5.055-1.147-2.025,2.754,4.864,2.988Z" transform="translate(-105.339 -171.074)" fill="#b55b52"/>
      <path id="Path_6430" data-name="Path 6430" d="M146.547,201.25c2.733,4.135,5.473,9.162,9.2,12.383.071.057.042,0-.234,0-.142.035-.071.106.219,0a7.569,7.569,0,0,0,2.2-1.9,36.566,36.566,0,0,0,3.682-5.374c.05-.078,0,0,0,.085a1.416,1.416,0,0,0,0,.389c.064.064-.163-.12.276.85a1.883,1.883,0,0,0,1.933.8,1.728,1.728,0,0,0,1.126-.814h0a3.046,3.046,0,0,0-.3.418l-3.172-1.352a2.832,2.832,0,0,1,.538-1.239,1.884,1.884,0,0,1,.97-.581,1.9,1.9,0,0,1,1.947.807c.439.977.219.793.283.864a2.613,2.613,0,0,1-.064.673c-1.112,4.722-4.014,12.5-10.032,12.546-4.248-.389-7.469-5.055-9.855-8a73.1,73.1,0,0,1-4.673-7.08l5.912-3.469Z" transform="translate(-95.791 -170.852)" fill="#b55b52"/>
      <path id="Path_6431" data-name="Path 6431" d="M144.754,196.86c2.832.935,8.574,13.983,8.574,13.983l-9.756,4.63s-1.982-10.252-1.593-13.558a7.788,7.788,0,0,1,2.775-5.055Z" transform="translate(-96.179 -169.57)" fill="#da2f37"/>
      <path id="Path_6432" data-name="Path 6432" d="M144.754,196.86c2.832.935,8.574,13.983,8.574,13.983l-9.756,4.63s-1.982-10.252-1.593-13.558a7.788,7.788,0,0,1,2.775-5.055Z" transform="translate(-96.179 -169.57)" fill="#fff" opacity="0.7"/>
      <path id="Path_6433" data-name="Path 6433" d="M159.32,405.633l-4.97,1.409-1.182-7.739-.637-4.135,4.97-1.409.85,5.544Z" transform="translate(-99.275 -227.063)" fill="#b55b52"/>
      <path id="Path_6434" data-name="Path 6434" d="M119.611,406.148l-5.126.68-.05-7.413-.035-4.609,5.133-.665.035,5.275Z" transform="translate(-88.141 -227.174)" fill="#b55b52"/>
      <path id="Path_6435" data-name="Path 6435" d="M119.533,394.14l.035,5.275h-5.133l-.035-4.609Z" transform="translate(-88.141 -227.174)" opacity="0.2"/>
      <path id="Path_6436" data-name="Path 6436" d="M158.35,399.3h-5.183l-.637-4.135,4.97-1.409Z" transform="translate(-99.275 -227.063)" opacity="0.2"/>
      <path id="Path_6437" data-name="Path 6437" d="M158.974,409.369l-5.664-.149a.453.453,0,0,0-.453.34l-1.182,4.545a.708.708,0,0,0,.708.935c2.039,0,4.956,0,7.54.05,2.995.085,4.9-.064,8.411,0,2.124.057,2.782-2.06,1.9-2.28-4.014-.991-6.634-.793-10.054-3.03A2.365,2.365,0,0,0,158.974,409.369Z" transform="translate(-99.014 -231.577)" fill="#263238"/>
      <path id="Path_6438" data-name="Path 6438" d="M162.609,409.927a.12.12,0,0,1,.064-.127c.241-.113,2.358-1.112,2.974-.743a.382.382,0,0,1,.191.333.708.708,0,0,1-.255.588c-.581.481-2.053.241-2.882.05h0A.113.113,0,0,1,162.609,409.927Zm.5-.057a3.293,3.293,0,0,0,2.315-.085.425.425,0,0,0,.163-.382.142.142,0,0,0-.071-.135h-.042a4.838,4.838,0,0,0-2.365.6Z" transform="translate(-102.217 -231.506)" fill="#da2f37"/>
      <path id="Path_6439" data-name="Path 6439" d="M162.651,409.493a.1.1,0,0,1-.042-.106,3.448,3.448,0,0,1,.871-1.961.878.878,0,0,1,.708-.191c.333.042.425.212.446.354.071.581-1.2,1.664-1.841,1.926a.17.17,0,0,1-.085,0Zm1.48-2.018a.658.658,0,0,0-.5.142,2.832,2.832,0,0,0-.708,1.565c.651-.361,1.522-1.211,1.473-1.565,0,0,0-.078-.106-.113Z" transform="translate(-102.217 -230.994)" fill="#da2f37"/>
      <path id="Path_6440" data-name="Path 6440" d="M118.446,409.369l-5.664-.149a.453.453,0,0,0-.453.34l-1.189,4.545a.743.743,0,0,0,.708.935c2.032,0,4.956,0,7.54.05,2.995.085,4.892-.064,8.4,0,2.124.057,2.79-2.06,1.9-2.28-4.007-.991-6.634-.793-10.047-3.03A2.386,2.386,0,0,0,118.446,409.369Z" transform="translate(-87.182 -231.577)" fill="#263238"/>
      <path id="Path_6441" data-name="Path 6441" d="M122,409.927a.12.12,0,0,1,.071-.127c.241-.113,2.351-1.112,2.967-.743a.382.382,0,0,1,.191.333.708.708,0,0,1-.248.588c-.588.481-2.06.241-2.889.05h0a.128.128,0,0,1-.092-.1Zm.51-.057a3.3,3.3,0,0,0,2.315-.085.439.439,0,0,0,.163-.382.156.156,0,0,0-.078-.135h-.042a4.808,4.808,0,0,0-2.329.6Z" transform="translate(-90.36 -231.506)" fill="#da2f37"/>
      <path id="Path_6442" data-name="Path 6442" d="M122.089,409.493a.106.106,0,0,1-.05-.106,3.469,3.469,0,0,1,.878-1.961.871.871,0,0,1,.708-.191c.333.042.425.212.439.354.078.581-1.2,1.664-1.834,1.926a.205.205,0,0,1-.092,0Zm1.48-2.018a.651.651,0,0,0-.5.142,2.889,2.889,0,0,0-.708,1.565c.651-.361,1.522-1.211,1.48-1.565a.149.149,0,0,0-.113-.113A.432.432,0,0,0,123.569,407.475Z" transform="translate(-90.371 -230.994)" fill="#da2f37"/>
      <path id="Path_6443" data-name="Path 6443" d="M106.479,252c-2.719,11.767,1.94,104.353,1.94,104.353h9.006l3.852-77.173,14.16,77.173,9.629-.708c-6.294-59.77-11.852-95.454-11.852-95.454v-4.51Z" transform="translate(-85.579 -185.67)" fill="#263238"/>
      <path id="Path_6444" data-name="Path 6444" d="M145.081,355.631l-9.629.708L124.3,295.592l-3.016-16.419-3.852,77.173h-9.006s-4.659-92.6-1.947-104.346l26.763,3.689v4.51S138.787,295.9,145.081,355.631Z" transform="translate(-85.581 -185.67)" fill="#454545" opacity="0.2"/>
      <path id="Path_6445" data-name="Path 6445" d="M106,195.353a113.418,113.418,0,0,1,1.579,16.808c.092,3.929,0,7.668-.135,11.052-.354,7.937-1.119,13.941-1.083,16l27.018.481c6.443-28.25.906-43.585.906-43.585a53.753,53.753,0,0,0-6.372-1.359q-.708-.092-1.416-.17a100.088,100.088,0,0,0-11.484-.212c-.708,0-1.466.064-2.181.12C109.221,194.794,106,195.353,106,195.353Z" transform="translate(-85.688 -168.82)" fill="#da2f37"/>
      <path id="Path_6446" data-name="Path 6446" d="M131.492,190.219s-1.607,2.329-2.9,2.492c-1.827.248-8.5-3.837-8.5-3.837,1.543-1.14,2.3-3.625,2.634-6.252a35.64,35.64,0,0,0,.135-6.422l6.238,6.783c-.821,2.124-1.31,4.39.3,5.983h0A5.579,5.579,0,0,0,131.492,190.219Z" transform="translate(-89.805 -163.537)" fill="#b55b52"/>
      <path id="Path_6447" data-name="Path 6447" d="M130.477,188.924a17.778,17.778,0,0,1-6.677-6.372,35.64,35.64,0,0,0,.135-6.422l6.238,6.783C129.351,185.058,128.9,187.366,130.477,188.924Z" transform="translate(-90.886 -163.517)" opacity="0.2"/>
      <path id="Path_6448" data-name="Path 6448" d="M141.571,167.162c.531,1.961,0,5.94-2.634,4.524S140.686,163.778,141.571,167.162Z" transform="translate(-95.063 -160.616)" fill="#263238"/>
      <path id="Path_6449" data-name="Path 6449" d="M122.923,167.828c-.517,4.956-1.069,7.859,1.005,10.783,3.129,4.39,9.608,3.08,11.6-1.657,1.8-4.248,2.336-11.682-2.174-14.4a6.9,6.9,0,0,0-10.429,5.275Z" transform="translate(-90.491 -159.265)" fill="#b55b52"/>
      <path id="Path_6450" data-name="Path 6450" d="M125.157,164.463l.248-5.572s-5.919-.708-5.784,2.351c-3.356,1.487-2.025,6.662,2.28,9.36,2.506-1.827,2.428-6.507,2.428-6.507C124.584,164.222,124.867,164.342,125.157,164.463Z" transform="translate(-89.114 -158.462)" fill="#263238"/>
      <path id="Path_6451" data-name="Path 6451" d="M119.452,174.689a4.694,4.694,0,0,0,1.869,3.1c1.345.977,2.613-.1,2.726-1.671.106-1.416-.467-3.632-2.053-3.986a2.167,2.167,0,0,0-2.542,2.556Z" transform="translate(-89.604 -162.338)" fill="#b55b52"/>
      <path id="Path_6452" data-name="Path 6452" d="M133.383,173.73c-.071.4.092.758.354.8s.531-.248.595-.651-.092-.758-.354-.8S133.447,173.326,133.383,173.73Z" transform="translate(-93.679 -162.625)" fill="#263238"/>
      <path id="Path_6453" data-name="Path 6453" d="M139.8,174.73c-.064.4.1.765.361.8s.531-.248.595-.651-.092-.758-.354-.8S139.875,174.333,139.8,174.73Z" transform="translate(-95.555 -162.917)" fill="#263238"/>
      <path id="Path_6454" data-name="Path 6454" d="M137.492,175a14.16,14.16,0,0,0,1.416,3.611,2.421,2.421,0,0,1-1.968,0Z" transform="translate(-94.722 -163.187)" fill="#a02724"/>
      <path id="Path_6455" data-name="Path 6455" d="M132.677,181.042a3.462,3.462,0,0,0,.517.12.122.122,0,0,0,.035-.241,3.214,3.214,0,0,1-2.393-1.643.113.113,0,0,0-.156-.064.12.12,0,0,0-.064.156,3.335,3.335,0,0,0,2.06,1.671Z" transform="translate(-92.873 -164.414)" fill="#263238"/>
      <path id="Path_6456" data-name="Path 6456" d="M131.683,171.165a.227.227,0,0,0,.234-.057,1.954,1.954,0,0,1,1.65-.552.236.236,0,1,0,.106-.46,2.365,2.365,0,0,0-2.082.673.241.241,0,0,0,0,.34.262.262,0,0,0,.092.057Z" transform="translate(-93.14 -161.745)" fill="#263238"/>
      <path id="Path_6457" data-name="Path 6457" d="M142.386,172.447a.219.219,0,0,0,.135,0,.241.241,0,0,0,.163-.3,2.344,2.344,0,0,0-1.48-1.593.248.248,0,0,0-.3.163.241.241,0,0,0,.163.3,1.805,1.805,0,0,1,1.154,1.274.241.241,0,0,0,.163.156Z" transform="translate(-95.878 -161.887)" fill="#263238"/>
      <path id="Path_6458" data-name="Path 6458" d="M120.227,161.094s-3.059-3.037,7.321-2.761,12.107,6.1,7.349,7.448l-.212-.949a6.457,6.457,0,0,1-5.324.269l.75-.467S123.023,165.356,120.227,161.094Z" transform="translate(-89.719 -158.315)" fill="#263238"/>
      <path id="Path_6459" data-name="Path 6459" d="M128.008,197.379s-1.324,1.529-2.832,3.037c-2.2-1.112-7.356-4.092-7.08-6.846.3-.8,2.4-1.31,2.4-1.31S122.719,195.227,128.008,197.379Z" transform="translate(-89.217 -168.227)" fill="#da2f37"/>
      <path id="Path_6460" data-name="Path 6460" d="M132.1,197.671a14.678,14.678,0,0,1,2.832,3.037c1.621-1.048.807-6.174.212-6.74a5.785,5.785,0,0,0-2.8-.708A4.729,4.729,0,0,1,132.1,197.671Z" transform="translate(-93.309 -168.519)" fill="#da2f37"/>
      <g id="Group_5783" data-name="Group 5783" transform="translate(28.868 24.033)" opacity="0.5">
        <path id="Path_6461" data-name="Path 6461" d="M128.008,197.379s-1.324,1.529-2.832,3.037c-2.2-1.112-7.356-4.092-7.08-6.846.3-.8,2.4-1.31,2.4-1.31S122.719,195.227,128.008,197.379Z" transform="translate(-118.085 -192.26)" fill="#fff"/>
        <path id="Path_6462" data-name="Path 6462" d="M132.1,197.671a14.678,14.678,0,0,1,2.832,3.037c1.621-1.048.807-6.174.212-6.74a5.785,5.785,0,0,0-2.8-.708A4.729,4.729,0,0,1,132.1,197.671Z" transform="translate(-122.177 -192.552)" fill="#fff"/>
      </g>
      <path id="Path_6463" data-name="Path 6463" d="M130.756,303.216,127.74,286.8l.581-8.687S132.448,293.176,130.756,303.216Z" transform="translate(-92.036 -193.294)" opacity="0.2"/>
      <path id="Path_6464" data-name="Path 6464" d="M103.21,204.862c-2.62,4.368-6.677,10.62-8.9,15.059-1.182,2.513-1.551,5.2-2.195,7.916-.616,2.9-1.232,5.848-1.912,8.765l-3.384-.3c-.12-3.066-.092-6.1.092-9.169.234-3.193.4-6.641,1.607-9.671A100.841,100.841,0,0,1,97.44,201.18l5.77,3.7Z" transform="translate(-80.067 -170.831)" fill="#b55b52"/>
      <path id="Path_6465" data-name="Path 6465" d="M101.62,195.79c-3.8.984-10.62,14.649-10.62,14.649l8.078,5.232,7.285-7.08a17.509,17.509,0,0,0-.46-7.682C104.721,196.647,101.62,195.79,101.62,195.79Z" transform="translate(-81.308 -169.257)" fill="#da2f37"/>
      <path id="Path_6466" data-name="Path 6466" d="M101.62,195.79c-3.8.984-10.62,14.649-10.62,14.649l8.078,5.232,7.285-7.08a17.509,17.509,0,0,0-.46-7.682C104.721,196.647,101.62,195.79,101.62,195.79Z" transform="translate(-81.308 -169.257)" fill="#fff" opacity="0.7"/>
      <path id="Path_6467" data-name="Path 6467" d="M0,0H81.8a3.356,3.356,0,0,1,3.356,3.356V5.218A3.356,3.356,0,0,1,81.8,8.574H0Z" transform="matrix(0.686, -0.728, 0.728, 0.686, 23.177, 68.655)" fill="#263238"/>
      <path id="Path_6468" data-name="Path 6468" d="M0,0H81.8a3.356,3.356,0,0,1,3.356,3.356V5.218A3.356,3.356,0,0,1,81.8,8.574H0Z" transform="matrix(0.686, -0.728, 0.728, 0.686, 23.177, 68.655)" fill="#fff" opacity="0.6"/>
      <path id="Path_6469" data-name="Path 6469" d="M173.515,171.59l.942.885a3.349,3.349,0,0,1,.142,4.737l-56.124,59.522-.935-.885,56.124-59.522a3.349,3.349,0,0,0-.149-4.737Z" transform="translate(-89.058 -162.191)" opacity="0.2"/>
      <path id="Path_6470" data-name="Path 6470" d="M171.31,197.208l10.4,9.813,1.352-1.437-1.345-1.267,2.138-2.273-.786-.743,3.214-3.406.786.743,2.011-2.131,1.345,1.274,1.395-1.487-.786-.743,2.011-2.138-1.579-1.487,1.317-1.395,2.372,2.23,2.407-2.549-10.4-9.813Z" transform="translate(-104.758 -164.764)" fill="#263238"/>
      <path id="Path_6471" data-name="Path 6471" d="M171.31,197.208l10.4,9.813,1.352-1.437-1.345-1.267,2.138-2.273-.786-.743,3.214-3.406.786.743,2.011-2.131,1.345,1.274,1.395-1.487-.786-.743,2.011-2.138-1.579-1.487,1.317-1.395,2.372,2.23,2.407-2.549-10.4-9.813Z" transform="translate(-104.758 -164.764)" fill="#fff" opacity="0.6"/>
      <g id="Group_5784" data-name="Group 5784" transform="translate(76.016 24.569)" opacity="0.2">
        <rect id="Rectangle_4365" data-name="Rectangle 4365" width="1.968" height="1.289" transform="matrix(0.686, -0.728, 0.728, 0.686, 0, 16.808)" opacity="0.6"/>
        <path id="Path_6472" data-name="Path 6472" d="M190.974,204.916l-.786-.75-3.214,3.413.786.743-2.138,2.273-.942-.885,2.145-2.273-.793-.743,3.214-3.413.793.75,2-2.131.942.885Z" transform="translate(-184.678 -195.611)" opacity="0.6"/>
        <path id="Path_6473" data-name="Path 6473" d="M197.592,199.661l2.018-2.131.942.885-2.018,2.138.793.743-1.4,1.487-.935-.885,1.395-1.487Z" transform="translate(-188.273 -194.335)" opacity="0.6"/>
        <rect id="Rectangle_4366" data-name="Rectangle 4366" width="1.919" height="1.289" transform="matrix(0.686, -0.728, 0.728, 0.686, 9.748, 1.707)" opacity="0.6"/>
        <rect id="Rectangle_4367" data-name="Rectangle 4367" width="3.512" height="1.289" transform="matrix(0.686, -0.728, 0.728, 0.686, 13.439, 2.555)" opacity="0.6"/>
      </g>
      <rect id="Rectangle_4368" data-name="Rectangle 4368" width="26.579" height="10.082" rx="1.06" transform="matrix(0.686, -0.728, 0.728, 0.686, 60.086, 28.419)" fill="#263238"/>
      <path id="Path_6474" data-name="Path 6474" d="M107.054,278.855h0a14.493,14.493,0,0,1-20.49.6l-4.7-4.432a14.493,14.493,0,0,1-.6-20.49h0a14.5,14.5,0,0,1,20.532-.6l4.694,4.432a14.493,14.493,0,0,1,.566,20.49Z" transform="translate(-77.311 -185.076)" fill="#263238"/>
      <path id="Path_6475" data-name="Path 6475" d="M104.714,276.8h0a7.215,7.215,0,0,1-10.2.3l-4.446-4.248a7.215,7.215,0,0,1-.3-10.2h0a7.2,7.2,0,0,1,10.2-.3l4.489,4.248A7.215,7.215,0,0,1,104.714,276.8Z" transform="translate(-80.374 -188.119)" fill="#fff"/>
      <rect id="Rectangle_4369" data-name="Rectangle 4369" width="26.579" height="10.082" rx="1.06" transform="matrix(0.686, -0.728, 0.728, 0.686, 60.086, 28.419)" fill="#fff" opacity="0.5"/>
      <g id="Group_5785" data-name="Group 5785" transform="translate(0 64.889)" opacity="0.5">
        <path id="Path_6476" data-name="Path 6476" d="M107.054,278.855h0a14.493,14.493,0,0,1-20.49.6l-4.7-4.432a14.493,14.493,0,0,1-.6-20.49h0a14.5,14.5,0,0,1,20.532-.6l4.694,4.432a14.493,14.493,0,0,1,.566,20.49Z" transform="translate(-77.311 -249.966)" fill="#fff"/>
        <path id="Path_6477" data-name="Path 6477" d="M104.714,276.8h0a7.215,7.215,0,0,1-10.2.3l-4.446-4.248a7.215,7.215,0,0,1-.3-10.2h0a7.2,7.2,0,0,1,10.2-.3l4.489,4.248A7.215,7.215,0,0,1,104.714,276.8Z" transform="translate(-80.374 -253.008)" fill="#fff"/>
      </g>
      <path id="Path_6478" data-name="Path 6478" d="M187.34,177.68l1.883,1.77a.751.751,0,0,1,0,1.069l-17.2,18.238a.743.743,0,0,1-1.062,0l-1.876-1.77a.75.75,0,0,0,1.055,0l17.2-18.245a.743.743,0,0,0,0-1.062Z" transform="translate(-104.107 -163.969)" opacity="0.2"/>
      <g id="Group_5786" data-name="Group 5786" transform="translate(6.012 70.937)" opacity="0.2">
        <path id="Path_6479" data-name="Path 6479" d="M97.979,260.5l1.416,1.324a7.222,7.222,0,0,0-9.912,10.486l-1.416-1.331a7.22,7.22,0,1,1,9.912-10.5Z" transform="translate(-85.803 -258.508)"/>
        <path id="Path_6480" data-name="Path 6480" d="M108.285,260l1.416,1.331a14.5,14.5,0,1,1-19.9,21.094L88.39,281.1a14.5,14.5,0,1,0,19.9-21.1Z" transform="translate(-86.558 -258.943)"/>
      </g>
      <g id="Group_5787" data-name="Group 5787" transform="translate(6.012 70.937)" opacity="0.2">
        <path id="Path_6481" data-name="Path 6481" d="M97.979,260.5l1.416,1.324a7.222,7.222,0,0,0-9.912,10.486l-1.416-1.331a7.22,7.22,0,1,1,9.912-10.5Z" transform="translate(-85.803 -258.508)"/>
        <path id="Path_6482" data-name="Path 6482" d="M97.979,260.5l1.416,1.324a7.222,7.222,0,0,0-9.912,10.486l-1.416-1.331a7.22,7.22,0,1,1,9.912-10.5Z" transform="translate(-85.803 -258.508)"/>
      </g>
      <path id="Path_6483" data-name="Path 6483" d="M87.07,260.1l5.2-1.3-.581-3.8-6.344,1.281Z" transform="translate(-79.659 -186.546)" fill="#b55b52"/>
      <path id="Path_6484" data-name="Path 6484" d="M86.561,249.339,85.35,254.3l6.372-1.281s.085-4.453-2.28-4.744Z" transform="translate(-79.659 -184.581)" fill="#b55b52"/>
    </g>
  </g>
</svg>
