<svg xmlns="http://www.w3.org/2000/svg" width="199.552" height="200.529" viewBox="0 0 199.552 200.529">
  <g id="Group_5926" data-name="Group 5926" transform="translate(-88 -49)">
    <ellipse id="freepik--path--inject-1" cx="99.776" cy="48.515" rx="99.776" ry="48.515" transform="translate(88 152.5)" fill="#fff"/>
    <g id="Mobile_login-pana" data-name="Mobile login-pana" transform="translate(22.987 10.281)">
      <g id="freepik--Plant--inject-5" transform="translate(196.66 124.006)">
        <path id="Path_5909" data-name="Path 5909" d="M326.239,273.167c-7.105-4.962-8.715-14.173-8.434-22.456.046-1.38-.106-2.842.552-4.051a2.824,2.824,0,0,1,3.431-1.462c1.026.483,1.472,1.679,2.047,2.667a8.075,8.075,0,0,0,3.242,3.095,3.072,3.072,0,0,0,2.837.258c1.2-.658,1.334-2.3,1.324-3.679q0-3.849-.046-7.689a12.8,12.8,0,0,1,.414-4.084,4.28,4.28,0,0,1,2.681-2.883,2.618,2.618,0,0,1,3.219,1.734,13.254,13.254,0,0,1,.041,1.711,1.486,1.486,0,0,0,.842,1.38c.538.175,1.1-.225,1.513-.63a18.17,18.17,0,0,0,3.279-4.953,25.282,25.282,0,0,1,3.063-5.114,7.453,7.453,0,0,1,5.059-2.828,4.431,4.431,0,0,1,4.562,3.04c.5,1.931-.63,3.9-1.84,5.473a30.752,30.752,0,0,1-6.388,6.093,2.5,2.5,0,0,0-1.072,1.145c-.3.92.57,1.84,1.476,2.129a16.206,16.206,0,0,0,3.219.363,3.092,3.092,0,0,1,2.64,1.61c.561,1.407-.616,2.879-1.771,3.845a26.388,26.388,0,0,1-7.781,4.493,8.9,8.9,0,0,0-2.893,1.4,2.541,2.541,0,0,0-.814,2.916,2.588,2.588,0,0,0,2.819,1.081,18.323,18.323,0,0,0,3.017-1.15c1.89-.713,4.327-.584,5.519,1.048a4.351,4.351,0,0,1,.46,3.849,10.04,10.04,0,0,1-2.083,3.4,26.5,26.5,0,0,1-11.341,7.924c-4.383,1.518-8.443,1.931-12.8.336" transform="translate(-317.775 -224.174)" fill="#da2f37"/>
        <path id="Path_5910" data-name="Path 5910" d="M363.4,226.66s-.041.046-.133.129l-.409.363c-.359.322-.888.791-1.554,1.412a51.326,51.326,0,0,0-5.252,5.67c-1.025,1.274-2.088,2.718-3.219,4.286s-2.3,3.261-3.458,5.059a62.386,62.386,0,0,0-3.389,5.877c-.533,1.053-1,2.152-1.485,3.274l-1.426,3.426a126.408,126.408,0,0,0-4.9,13.231,61.621,61.621,0,0,0-2.3,11.281,44.855,44.855,0,0,0-.129,7.767c.074.92.143,1.623.207,2.1.028.23.046.414.064.547v.189a.962.962,0,0,1-.041-.184c-.023-.133-.051-.313-.087-.543-.083-.46-.17-1.186-.253-2.106a42.733,42.733,0,0,1,.046-7.79,60.621,60.621,0,0,1,2.249-11.331,123.439,123.439,0,0,1,4.888-13.263l1.462-3.412c.483-1.117.957-2.226,1.495-3.284a61.567,61.567,0,0,1,3.417-5.891c1.177-1.84,2.364-3.5,3.481-5.059s2.2-3.008,3.219-4.277a48.886,48.886,0,0,1,5.321-5.629c.681-.612,1.223-1.071,1.591-1.38l.428-.345a1,1,0,0,1,.17-.12Z" transform="translate(-327.339 -225.517)" fill="#263238"/>
        <path id="Path_5911" data-name="Path 5911" d="M355.645,258.235a2.85,2.85,0,0,1-.133-.584c-.074-.382-.156-.92-.253-1.619-.2-1.38-.4-3.27-.616-5.362s-.46-3.987-.662-5.353c-.106-.681-.2-1.228-.262-1.61a2.481,2.481,0,0,1-.078-.6,2.541,2.541,0,0,1,.17.575c.1.377.216.92.345,1.6.262,1.38.52,3.256.736,5.353s.4,3.937.543,5.367c.069.644.129,1.191.175,1.628A2.55,2.55,0,0,1,355.645,258.235Z" transform="translate(-337.146 -234.402)" fill="#263238"/>
        <path id="Path_5912" data-name="Path 5912" d="M375.772,268.783a3.677,3.677,0,0,1-.681.083c-.46.041-1.113.1-1.922.189-1.619.175-3.845.5-6.287.957s-4.636.98-6.213,1.38c-.786.2-1.421.386-1.839.511a3.359,3.359,0,0,1-.69.165,4,4,0,0,1,.662-.262c.432-.152,1.058-.363,1.839-.589,1.568-.46,3.762-1.007,6.213-1.476a62.6,62.6,0,0,1,6.277-.874c.814-.069,1.472-.1,1.931-.106A3.543,3.543,0,0,1,375.772,268.783Z" transform="translate(-339.577 -248.252)" fill="#263238"/>
        <path id="Path_5913" data-name="Path 5913" d="M330.849,292.2a.955.955,0,0,1-.12-.216l-.3-.639c-.262-.556-.616-1.38-1.039-2.387-.855-2.023-1.945-4.856-3.1-8s-2.226-5.978-3.035-8.025c-.4-.993-.722-1.807-.966-2.414l-.257-.658a.885.885,0,0,1-.074-.239.956.956,0,0,1,.12.216l.3.639c.258.556.616,1.38,1.039,2.387.855,2.023,1.945,4.856,3.1,8s2.226,5.978,3.035,8.025c.4.993.722,1.807.961,2.414.106.262.193.46.262.658A.89.89,0,0,1,330.849,292.2Z" transform="translate(-320.03 -248.72)" fill="#263238"/>
        <path id="Path_5914" data-name="Path 5914" d="M364.785,302.25a.974.974,0,0,1-.235.1l-.681.23-2.515.814c-2.125.69-5.059,1.674-8.278,2.759s-6.167,2.051-8.305,2.695c-1.067.327-1.936.575-2.539.74l-.694.179a1.193,1.193,0,0,1-.248.051.976.976,0,0,1,.235-.1l.681-.23,2.516-.814c2.125-.69,5.059-1.674,8.278-2.759s6.162-2.051,8.3-2.695c1.072-.327,1.936-.575,2.543-.74l.694-.179A1.191,1.191,0,0,1,364.785,302.25Z" transform="translate(-330.476 -266.345)" fill="#263238"/>
      </g>
      <g id="freepik--Padlock--inject-5" transform="translate(194.428 38.719)">
        <path id="Path_5915" data-name="Path 5915" d="M339.878,48.359l-2.368.846-1.016-3.095A10.388,10.388,0,0,0,323.208,39.3,11.061,11.061,0,0,0,316.7,53.192l1.016,3.095-2.378.851a3.78,3.78,0,0,0-2.217,4.728L319.708,82a3.555,3.555,0,0,0,4.534,2.35l24.544-8.779a3.8,3.8,0,0,0,2.24-4.774l-6.595-20.138a3.546,3.546,0,0,0-4.553-2.3Zm-18.708,3.219a6.066,6.066,0,0,1,3.569-7.611,5.684,5.684,0,0,1,7.28,3.73l1.012,3.095-10.848,3.881Zm13.8,17.871,1.683,5.141a.419.419,0,0,1-.262.515l-2.359.842a.377.377,0,0,1-.46-.248l-1.7-5.118a4.6,4.6,0,0,1-4.139-3.219A4.833,4.833,0,0,1,330.58,61.3a4.53,4.53,0,0,1,5.8,2.971,4.912,4.912,0,0,1-1.407,5.192Z" transform="translate(-312.921 -38.719)" fill="#fff"/>
        <path id="Path_5916" data-name="Path 5916" d="M342.908,61.4c0,.064-4.392,1.715-9.855,3.679s-9.92,3.541-9.943,3.5,4.392-1.711,9.86-3.679S342.885,61.338,342.908,61.4Z" transform="translate(-318.424 -50.968)" fill="#da2f37"/>
        <path id="Path_5917" data-name="Path 5917" d="M356.2,63.24a.812.812,0,0,1,.051.124c.037.092.078.212.133.359l.492,1.38,1.766,5.141c.736,2.18,1.614,4.764,2.589,7.634.46,1.439,1,2.939,1.508,4.516a6.9,6.9,0,0,1,.345,2.525,3.39,3.39,0,0,1-.373,1.274,3.513,3.513,0,0,1-.869,1.026,8.279,8.279,0,0,1-2.336,1.191l-2.368.851-4.484,1.6-7.593,2.7-5.128,1.8-1.38.46-.368.12a.391.391,0,0,1-.124.032.242.242,0,0,0,.115-.055l.359-.143,1.38-.52,5.1-1.876,7.579-2.759,4.475-1.619,2.368-.855A7.877,7.877,0,0,0,361.7,87a3.269,3.269,0,0,0,.809-.952,3.026,3.026,0,0,0,.345-1.182,6.617,6.617,0,0,0-.331-2.433c-.5-1.564-1.021-3.077-1.495-4.516-.957-2.874-1.839-5.468-2.538-7.648S357.2,66.34,356.8,65.107c-.193-.6-.34-1.072-.46-1.412l-.11-.368A.429.429,0,0,1,356.2,63.24Z" transform="translate(-326.499 -51.964)" fill="#da2f37"/>
        <path id="Path_5918" data-name="Path 5918" d="M337.835,48.41s-.244-.12-.694-.3a6.126,6.126,0,0,0-2.01-.4,6.9,6.9,0,0,0-2.971.561,6.622,6.622,0,0,0-2.81,2.35,6.217,6.217,0,0,0-1.081,3.49,10.757,10.757,0,0,0,.46,3.012c.239.837.487,1.5.653,1.968a5.139,5.139,0,0,1,.239.727,4.04,4.04,0,0,1-.327-.694c-.189-.46-.46-1.113-.727-1.954a10.459,10.459,0,0,1-.529-3.058,6.305,6.305,0,0,1,1.1-3.624,6.728,6.728,0,0,1,2.92-2.419,6.843,6.843,0,0,1,3.058-.524,5.79,5.79,0,0,1,2.037.483,3.8,3.8,0,0,1,.5.276A.685.685,0,0,1,337.835,48.41Z" transform="translate(-321.087 -43.475)" fill="#da2f37"/>
        <path id="Path_5919" data-name="Path 5919" d="M346.563,87.9a1.584,1.584,0,0,1,.23-.115,4.565,4.565,0,0,1,.713-.253,5.1,5.1,0,0,1,1.191-.2,4.037,4.037,0,0,1,1.614.244A4.984,4.984,0,0,1,353.1,90.8a4.635,4.635,0,0,1,0,2.64,5.978,5.978,0,0,1-1.481,2.479l.028-.124c.612,1.679,1.278,3.5,1.968,5.4l.041.115-.115.041-1.053.35-2.3.768-.115.037-.037-.115c-.63-1.9-1.32-3.679-1.839-5.422l.1.078a4.6,4.6,0,0,1-2.465-.97,5.564,5.564,0,0,1-1.541-1.84,4.2,4.2,0,0,1-.488-2.069,4.994,4.994,0,0,1,1.927-3.8,2.926,2.926,0,0,1,.8-.46,8.876,8.876,0,0,0-.754.5,4.889,4.889,0,0,0-1.421,2.019,4.35,4.35,0,0,0,.143,3.711A5.4,5.4,0,0,0,346,95.9a4.378,4.378,0,0,0,2.35.92h.078l.023.069c.506,1.711,1.2,3.5,1.84,5.413l-.152-.074,2.3-.768,1.048-.354-.074.156c-.685-1.9-1.347-3.725-1.954-5.4V95.79l.055-.055a5.86,5.86,0,0,0,1.453-2.378,4.448,4.448,0,0,0,0-2.525,4.862,4.862,0,0,0-2.658-3.132,3.95,3.95,0,0,0-1.559-.262,5.27,5.27,0,0,0-1.177.161C346.89,87.77,346.568,87.926,346.563,87.9Z" transform="translate(-329.603 -64.974)" fill="#da2f37"/>
      </g>
      <g id="freepik--Device--inject-5" transform="translate(141.279 59.051)">
        <path id="Path_5920" data-name="Path 5920" d="M253.243,218.313l-45.937-.212a10.012,10.012,0,0,1-9.956-10.053l.487-115.158A10,10,0,0,1,207.89,82.93l45.933.212a10.011,10.011,0,0,1,9.961,10.048L263.3,208.343A10.011,10.011,0,0,1,253.243,218.313Z" transform="translate(-197.35 -82.93)" fill="#454545"/>
        <path id="Path_5921" data-name="Path 5921" d="M257.346,91.816h-8.9a2.212,2.212,0,0,0-2.171,2.253v1.614a2.207,2.207,0,0,1-2.171,2.249l-17.356-.078a2.217,2.217,0,0,1-2.157-2.272V93.968a2.217,2.217,0,0,0-2.152-2.272H219.3l-7.795-.037a7.009,7.009,0,0,0-7.05,6.94L204,211a7,7,0,0,0,6.972,7.036l45.841.212a7.009,7.009,0,0,0,7.041-6.976l.46-112.4a7.013,7.013,0,0,0-6.967-7.054Z" transform="translate(-200.942 -87.645)" fill="#fff"/>
        <path id="Path_5922" data-name="Path 5922" d="M265.811,321.665l-34.086-.147c-.354,0-.639-.386-.635-.855l.037-8.917c0-.46.29-.855.644-.855l34.086.156a.773.773,0,0,1,.635.86l-.032,8.908C266.459,321.288,266.165,321.67,265.811,321.665Z" transform="translate(-215.574 -206.056)" fill="#da2f37"/>
        <text id="SING_UP" data-name="SING UP" transform="translate(25.404 109.621)" fill="#e8e8e3" font-size="2" font-family="Montserrat-Regular, Montserrat"><tspan x="0" y="0">SING UP</tspan></text>
        <rect id="Rectangle_4336" data-name="Rectangle 4336" width="11.828" height="2.171" transform="translate(11.122 37.16) rotate(0.26)" fill="#da2f37"/>
        <rect id="Rectangle_4337" data-name="Rectangle 4337" width="11.828" height="2.171" transform="translate(11.122 37.16) rotate(0.26)" opacity="0.1"/>
        <path id="Path_5923" data-name="Path 5923" d="M267.847,183.313a1.057,1.057,0,0,0,.271-.064.727.727,0,0,0,.46-.621v-6.107a.892.892,0,0,0-.129-.6.69.69,0,0,0-.547-.281h-7.363l-38.464-.143a.612.612,0,0,0-.506.253.878.878,0,0,0-.12.6q0,.69,0,1.38v4.139a3.628,3.628,0,0,0,0,.644.621.621,0,0,0,.359.414.717.717,0,0,0,.285.051h2.341l10.214.055,17.291.106,11.658.092,3.169.037H251.94l-17.291-.055-10.214-.041h-2.341a.92.92,0,0,1-.377-.064.865.865,0,0,1-.5-.575,1.3,1.3,0,0,1-.028-.368V176.3a2.583,2.583,0,0,1,0-.368.782.782,0,0,1,.152-.373.846.846,0,0,1,.7-.354l38.464.212,6.645.046h.717a.786.786,0,0,1,.644.336.979.979,0,0,1,.147.676v2.939c0,1.38-.032,2.437-.041,3.173a.745.745,0,0,1-.483.639.552.552,0,0,1-.29.083Z" transform="translate(-210.224 -132.772)" fill="#e0e0e0"/>
        <rect id="Rectangle_4338" data-name="Rectangle 4338" width="21.633" height="2.028" transform="translate(14.675 45.031)" fill="#da2f37"/>
        <rect id="Rectangle_4339" data-name="Rectangle 4339" width="21.633" height="2.028" transform="translate(14.675 45.031)" fill="#fff" opacity="0.2"/>
        <rect id="Rectangle_4340" data-name="Rectangle 4340" width="11.828" height="2.171" transform="translate(11.041 56.962) rotate(0.26)" fill="#da2f37"/>
        <rect id="Rectangle_4341" data-name="Rectangle 4341" width="11.828" height="2.171" transform="translate(11.041 56.962) rotate(0.26)" opacity="0.1"/>
        <path id="Path_5924" data-name="Path 5924" d="M267.423,226.432a2.383,2.383,0,0,0,.276-.051.943.943,0,0,0,.579-.524,1.288,1.288,0,0,0,.083-.584v-5.486a.989.989,0,0,0-.133-.607.892.892,0,0,0-.5-.391,2.818,2.818,0,0,0-.694-.037h-6.618l-38.331-.143a.851.851,0,0,0-.842.74c0,.437,0,.92,0,1.38v4.139a2.638,2.638,0,0,0,.028.644.874.874,0,0,0,.336.46.957.957,0,0,0,.57.147h1.968l10.177.051,17.232.106,11.617.092,3.159.037H251.552l-17.241-.018-10.177-.037h-2a1.154,1.154,0,0,1-.7-.189,1.1,1.1,0,0,1-.432-.6,2.9,2.9,0,0,1-.037-.708v-5.518a1.09,1.09,0,0,1,1.081-.952l38.331.212,6.618.051a2.847,2.847,0,0,1,.736.051,1.016,1.016,0,0,1,.566.46,1.108,1.108,0,0,1,.147.671v5.509a1.284,1.284,0,0,1-.1.6.975.975,0,0,1-.621.524A.864.864,0,0,1,267.423,226.432Z" transform="translate(-210.099 -156.089)" fill="#e0e0e0"/>
        <rect id="Rectangle_4342" data-name="Rectangle 4342" width="11.828" height="2.171" transform="translate(10.952 77.624) rotate(0.26)" fill="#da2f37"/>
        <rect id="Rectangle_4343" data-name="Rectangle 4343" width="11.828" height="2.171" transform="translate(10.952 77.624) rotate(0.26)" opacity="0.1"/>
        <path id="Path_5925" data-name="Path 5925" d="M267.271,271.272a2.209,2.209,0,0,0,.276-.051.947.947,0,0,0,.579-.52,1.3,1.3,0,0,0,.083-.584v-5.491a.989.989,0,0,0-.133-.607.92.92,0,0,0-.5-.386,2.814,2.814,0,0,0-.694-.041h-6.618l-38.331-.143a.851.851,0,0,0-.842.74q0,.69,0,1.38v4.139a2.6,2.6,0,0,0,.028.639.841.841,0,0,0,.336.46.919.919,0,0,0,.57.147h2l10.177.055,17.232.106,11.616.092,3.159.037H251.433l-17.232-.051-10.177-.041h-2a1.126,1.126,0,0,1-.7-.189,1.1,1.1,0,0,1-.432-.6,2.9,2.9,0,0,1-.037-.708v-5.541a1.085,1.085,0,0,1,1.076-.952l38.331.212,6.618.051a2.844,2.844,0,0,1,.736.051,1.017,1.017,0,0,1,.566.46,1.108,1.108,0,0,1,.147.671v5.509a1.26,1.26,0,0,1-.1.6.975.975,0,0,1-.621.524A.727.727,0,0,1,267.271,271.272Z" transform="translate(-210.04 -180.276)" fill="#e0e0e0"/>
        <rect id="Rectangle_4344" data-name="Rectangle 4344" width="21.633" height="2.028" transform="translate(14.213 65.309) rotate(0.26)" fill="#da2f37"/>
        <rect id="Rectangle_4345" data-name="Rectangle 4345" width="21.633" height="2.028" transform="translate(14.213 65.309) rotate(0.26)" fill="#fff" opacity="0.2"/>
        <path id="Path_5926" data-name="Path 5926" d="M230.288,271.446a.947.947,0,1,1-.92-1.016A.975.975,0,0,1,230.288,271.446Z" transform="translate(-214.118 -184.202)" fill="#da2f37"/>
        <path id="Path_5927" data-name="Path 5927" d="M236.657,271.48a.947.947,0,1,1-.452-.875.947.947,0,0,1,.452.875Z" transform="translate(-217.559 -184.223)" fill="#da2f37"/>
        <path id="Path_5928" data-name="Path 5928" d="M243.038,271.506a.947.947,0,1,1-.92-1.016A.98.98,0,0,1,243.038,271.506Z" transform="translate(-221.005 -184.235)" fill="#da2f37"/>
        <path id="Path_5929" data-name="Path 5929" d="M249.408,271.536a.947.947,0,1,1-.92-1.016.98.98,0,0,1,.92,1.016Z" transform="translate(-224.445 -184.251)" fill="#da2f37"/>
        <path id="Path_5930" data-name="Path 5930" d="M255.777,271.561a.947.947,0,1,1-.92-1.012A.979.979,0,0,1,255.777,271.561Z" transform="translate(-227.886 -184.267)" fill="#da2f37"/>
        <path id="Path_5931" data-name="Path 5931" d="M262.157,271.592a.947.947,0,1,1-.943-1.012.98.98,0,0,1,.943,1.012Z" transform="translate(-231.332 -184.284)" fill="#da2f37"/>
        <path id="Path_5932" data-name="Path 5932" d="M268.527,271.62a.947.947,0,1,1-.452-.875A.947.947,0,0,1,268.527,271.62Z" transform="translate(-234.772 -184.298)" fill="#da2f37"/>
        <path id="Path_5933" data-name="Path 5933" d="M274.9,271.652a.947.947,0,1,1-.943-1.012A.979.979,0,0,1,274.9,271.652Z" transform="translate(-238.213 -184.316)" fill="#da2f37"/>
        <path id="Path_5934" data-name="Path 5934" d="M281.267,271.681a.947.947,0,1,1-.92-1.012A.98.98,0,0,1,281.267,271.681Z" transform="translate(-241.653 -184.332)" fill="#da2f37"/>
        <g id="Group_5755" data-name="Group 5755" transform="translate(14.277 86.227)" opacity="0.2">
          <path id="Path_5935" data-name="Path 5935" d="M230.288,271.446a.947.947,0,1,1-.92-1.016A.975.975,0,0,1,230.288,271.446Z" transform="translate(-228.395 -270.429)" fill="#fff"/>
          <path id="Path_5936" data-name="Path 5936" d="M236.657,271.48a.947.947,0,1,1-.452-.875.947.947,0,0,1,.452.875Z" transform="translate(-231.836 -270.449)" fill="#fff"/>
          <path id="Path_5937" data-name="Path 5937" d="M243.038,271.506a.947.947,0,1,1-.92-1.016A.98.98,0,0,1,243.038,271.506Z" transform="translate(-235.282 -270.462)" fill="#fff"/>
          <path id="Path_5938" data-name="Path 5938" d="M249.408,271.536a.947.947,0,1,1-.92-1.016.98.98,0,0,1,.92,1.016Z" transform="translate(-238.723 -270.478)" fill="#fff"/>
          <path id="Path_5939" data-name="Path 5939" d="M255.777,271.561a.947.947,0,1,1-.92-1.012A.979.979,0,0,1,255.777,271.561Z" transform="translate(-242.163 -270.494)" fill="#fff"/>
          <path id="Path_5940" data-name="Path 5940" d="M262.157,271.592a.947.947,0,1,1-.943-1.012.98.98,0,0,1,.943,1.012Z" transform="translate(-245.609 -270.511)" fill="#fff"/>
          <path id="Path_5941" data-name="Path 5941" d="M268.527,271.62a.947.947,0,1,1-.452-.875A.947.947,0,0,1,268.527,271.62Z" transform="translate(-249.05 -270.525)" fill="#fff"/>
          <path id="Path_5942" data-name="Path 5942" d="M274.9,271.652a.947.947,0,1,1-.943-1.012A.979.979,0,0,1,274.9,271.652Z" transform="translate(-252.49 -270.543)" fill="#fff"/>
          <path id="Path_5943" data-name="Path 5943" d="M281.267,271.681a.947.947,0,1,1-.92-1.012A.98.98,0,0,1,281.267,271.681Z" transform="translate(-255.931 -270.559)" fill="#fff"/>
        </g>
        <path id="Path_5944" data-name="Path 5944" d="M270.124,124.5a1.78,1.78,0,0,0,1.062-1.651,1.674,1.674,0,1,0-3.343,0,1.784,1.784,0,0,0,1.067,1.669c-2.575.386-2.46,3.182-2.46,3.182l6.089.028S272.68,124.883,270.124,124.5Z" transform="translate(-234.672 -103.54)" fill="#da2f37"/>
        <path id="Path_5945" data-name="Path 5945" d="M270.124,124.5a1.78,1.78,0,0,0,1.062-1.651,1.674,1.674,0,1,0-3.343,0,1.784,1.784,0,0,0,1.067,1.669c-2.575.386-2.46,3.182-2.46,3.182l6.089.028S272.68,124.883,270.124,124.5Z" transform="translate(-234.672 -103.54)" opacity="0.1"/>
        <rect id="Rectangle_4346" data-name="Rectangle 4346" width="21.702" height="2.594" transform="translate(23.645 25.895) rotate(0.26)" fill="#da2f37"/>
        <rect id="Rectangle_4347" data-name="Rectangle 4347" width="21.702" height="2.594" transform="translate(23.645 25.895) rotate(0.26)" fill="#fff" opacity="0.2"/>
      </g>
      <g id="freepik--speech-bubble--inject-5" transform="translate(95.013 98.485)">
        <path id="Path_5946" data-name="Path 5946" d="M108.575,168.68h-.216l-.625.046a7.092,7.092,0,0,0-1.007.133,6.223,6.223,0,0,0-.639.124l-.713.2a11.713,11.713,0,0,0-3.389,1.679,11.929,11.929,0,0,0-3.339,3.716,12.452,12.452,0,0,0-1.168,2.672,12.849,12.849,0,0,0-.51,3.118A12.633,12.633,0,0,0,97,182.03a6.791,6.791,0,0,0,.115.846,5.436,5.436,0,0,0,.161.851,12.136,12.136,0,0,0,6.9,8.43,10.927,10.927,0,0,0,3.95.888,10.665,10.665,0,0,0,4.139-.593l.4-.152h.055l.046.028,5.8,2.943-.17.147c-.621-1.922-1.219-3.785-1.8-5.574v-.069l.051-.051a12.417,12.417,0,0,0,3.044-5.059,12.738,12.738,0,0,0,.46-5.39,12.591,12.591,0,0,0-1.522-4.571,12.416,12.416,0,0,0-2.621-3.219,12.807,12.807,0,0,0-2.847-1.812,12.386,12.386,0,0,0-2.41-.759l-.92-.152-.667-.051-.4-.028h-.138a.621.621,0,0,1,.138,0h.409l.667.028.92.133a12.186,12.186,0,0,1,2.442.731,12.78,12.78,0,0,1,2.9,1.807,12.449,12.449,0,0,1,2.676,3.219,12.624,12.624,0,0,1,1.568,4.631,12.876,12.876,0,0,1-.428,5.482,12.582,12.582,0,0,1-3.09,5.164l.028-.12c.579,1.789,1.182,3.651,1.807,5.569l.087.281-.262-.133-5.8-2.939h.1l-.414.152a10.972,10.972,0,0,1-4.217.607,11.174,11.174,0,0,1-4.033-.92,12.1,12.1,0,0,1-5.762-5.155,12.278,12.278,0,0,1-1.3-3.4,7.04,7.04,0,0,1-.161-.869c-.037-.29-.1-.575-.11-.86a13.589,13.589,0,0,1,.51-4.856,12.367,12.367,0,0,1,1.2-2.7,12.035,12.035,0,0,1,3.408-3.739,11.625,11.625,0,0,1,3.444-1.665l.722-.184a6.374,6.374,0,0,1,.644-.115,6.828,6.828,0,0,1,1.016-.11l.63-.023A1.539,1.539,0,0,1,108.575,168.68Z" transform="translate(-96.745 -168.68)" fill="#da2f37"/>
        <path id="Path_5947" data-name="Path 5947" d="M119.774,186.971h-.851l-1.84-2.585v-1.7s-1.315-.083-1.159,2.138,0,1.656,0,1.656a13.153,13.153,0,0,0-3.021.253c-.23.253-.244,2.948-.276,4.452a1.628,1.628,0,0,0,1.154,1.637,1.14,1.14,0,0,0,.3.041c.7,0,4.254-.566,4.254-.566H119.8Z" transform="translate(-105.323 -176.247)" fill="#da2f37"/>
        <path id="Path_5948" data-name="Path 5948" d="M131.137,191.01l-.524,5.813H129.16V191.13Z" transform="translate(-114.253 -180.741)" fill="#da2f37"/>
      </g>
      <g id="freepik--Character--inject-5" transform="translate(106.839 101.219)">
        <path id="Path_5949" data-name="Path 5949" d="M162.8,443.663v-3.932l-7.05-.051-.06,5.946.437.032c1.945.124,9.9.308,11.2-.1C168.783,445.111,162.8,443.663,162.8,443.663Z" transform="translate(-140.408 -317.787)" fill="#da2f37"/>
        <path id="Path_5950" data-name="Path 5950" d="M167.522,451.53c0,.064-2.64.12-5.891.12s-5.891-.055-5.891-.12,2.64-.12,5.891-.12S167.522,451.465,167.522,451.53Z" transform="translate(-140.435 -324.123)" fill="#263238"/>
        <path id="Path_5951" data-name="Path 5951" d="M171.393,449.223c-.06-.032,0-.239.143-.46s.336-.313.382-.267-.051.221-.189.409S171.453,449.255,171.393,449.223Z" transform="translate(-148.877 -322.543)" fill="#263238"/>
        <path id="Path_5952" data-name="Path 5952" d="M172.363,449.639c-.064,0-.032-.258.106-.5s.322-.391.373-.354-.032.244-.161.46S172.422,449.662,172.363,449.639Z" transform="translate(-149.396 -322.701)" fill="#263238"/>
        <path id="Path_5953" data-name="Path 5953" d="M157.971,450.009c-.028,0-.133-.083-.285-.258a4.556,4.556,0,0,0-.616-.616,1.623,1.623,0,0,0-.763-.336c-.216-.028-.354,0-.368-.028s.12-.124.373-.143a1.421,1.421,0,0,1,.92.313,2.593,2.593,0,0,1,.607.713C157.944,449.857,158,449.991,157.971,450.009Z" transform="translate(-140.542 -322.621)" fill="#263238"/>
        <path id="Path_5954" data-name="Path 5954" d="M170.67,448.452c.032.055-.087.193-.29.267s-.382.046-.391,0,.133-.143.308-.207S170.633,448.4,170.67,448.452Z" transform="translate(-148.132 -322.512)" fill="#263238"/>
        <path id="Path_5955" data-name="Path 5955" d="M170.236,447.515c0,.069-.184.124-.423.129s-.428-.051-.423-.115.193-.124.423-.129S170.227,447.45,170.236,447.515Z" transform="translate(-147.808 -321.956)" fill="#263238"/>
        <path id="Path_5956" data-name="Path 5956" d="M200.55,443.663v-3.932l-7.05-.051-.06,5.887.437.032c1.945.124,9.9.368,11.2-.037C206.533,445.111,200.55,443.663,200.55,443.663Z" transform="translate(-160.798 -317.787)" fill="#da2f37"/>
        <path id="Path_5957" data-name="Path 5957" d="M205.277,451.55c0,.064-2.635.12-5.891.12s-5.886-.055-5.886-.12,2.635-.12,5.886-.12S205.277,451.485,205.277,451.55Z" transform="translate(-160.83 -324.134)" fill="#263238"/>
        <path id="Path_5958" data-name="Path 5958" d="M209.145,449.223c-.055-.032,0-.239.143-.46s.336-.313.382-.267-.051.221-.189.409S209.205,449.255,209.145,449.223Z" transform="translate(-169.269 -322.543)" fill="#263238"/>
        <path id="Path_5959" data-name="Path 5959" d="M210.115,449.639c-.06,0-.032-.258.11-.5s.322-.391.373-.354-.037.244-.166.46S210.18,449.662,210.115,449.639Z" transform="translate(-169.789 -322.701)" fill="#263238"/>
        <path id="Path_5960" data-name="Path 5960" d="M195.722,450.009c-.028,0-.129-.083-.285-.258a4.558,4.558,0,0,0-.616-.616,1.623,1.623,0,0,0-.763-.336c-.212-.028-.354,0-.368-.028s.12-.124.372-.143a1.421,1.421,0,0,1,.92.313,2.514,2.514,0,0,1,.607.713C195.694,449.857,195.749,449.991,195.722,450.009Z" transform="translate(-160.932 -322.621)" fill="#263238"/>
        <path id="Path_5961" data-name="Path 5961" d="M208.42,448.452c.032.055-.087.193-.29.267s-.382.046-.391,0,.133-.143.308-.207S208.383,448.4,208.42,448.452Z" transform="translate(-168.521 -322.512)" fill="#263238"/>
        <path id="Path_5962" data-name="Path 5962" d="M208.011,447.515c0,.069-.184.124-.423.129s-.423-.051-.419-.115.189-.124.419-.129S208.011,447.45,208.011,447.515Z" transform="translate(-168.214 -321.956)" fill="#263238"/>
        <path id="Path_5963" data-name="Path 5963" d="M188.186,187.159c-.184-.189-.639-.1-.639-.1a2.354,2.354,0,0,0,0-.8c-.083-.258-.662-.207-.662-.207a2.672,2.672,0,0,1,0-.653.235.235,0,0,0-.133-.235,2.125,2.125,0,0,0-.865-.156c-.354-.253,1.081-2.263,1.614-2.906s.437-1.145-.037-1.145c-.326,0-2,1.931-2.516,2.58s-1.881,2.451-1.927,1.012a3.668,3.668,0,0,0-.989-2.709c-.363-.184-.75.248-.552.648a5.147,5.147,0,0,1,.322,1.416,3.385,3.385,0,0,1-.051,1.159,13.9,13.9,0,0,1-.621,2.079h-.037s-10.035,9.625-10.761,10.31c-.648.616-13.691-.731-16.307-1.007a17.512,17.512,0,0,0-2.686-.184c-1.136.051-1.338.212-2.469.225a55.925,55.925,0,0,0-8.526.75,7.068,7.068,0,0,0-5.546,4.81c-2.635,8.232-8.6,27.717-9.657,38.662a46.442,46.442,0,0,0-2.152,4.447c-.74,2.014-.561,2.083-.313,2.129.671.124,1.435-3.49,1.72-2.617s-1.449,4.309-.745,4.41c.92.129,1.651-3.679,1.738-3.983s.543-.207.46.078c-.133.4-1.426,4.7-.524,4.833.5.074.552-.832.552-.832s.92-4.107,1.338-4.024-.028,2.506-.239,3.316.083,1.219.515,1.021c.294-.138,1-2.6,1.191-3.4s.676-3.017,1.324-1.734a3.722,3.722,0,0,0,2.037,2.046.46.46,0,0,0,.225-.823,5.213,5.213,0,0,1-.888-1.15,3.389,3.389,0,0,1-.46-1.076,11.666,11.666,0,0,1-.322-2.327l-.074-.46c1.03-5.1,4-20.069,8.278-29.63l1.757,3.615.763,2.676-4.682,11.557,19.968-.262-2.98-11.469L157.25,205.1h0c3.914.087,13.962.235,15.636-.524,2.106-.92,13-14.679,13-14.679h0a25.166,25.166,0,0,0,2.037-1.766S188.586,187.573,188.186,187.159Z" transform="translate(-122.46 -178.047)" fill="#ffbe9d"/>
        <path id="Path_5964" data-name="Path 5964" d="M144.088,237.11c.579-1.977,3.555-11.754,3.555-11.754s1.462,7.97,1.076,8.931a17.017,17.017,0,0,1-1.255,2.373c-3.376,5.137-2.934,7.708-2.934,7.708l20.4-.621c.046-2.851-1.642-9.483-1.991-10.54s.814-4.521.814-4.521,2.3-2.341,2.217-3.546a19.486,19.486,0,0,0-.4-3.219l12.417.46-.391-8.416-17.834-1.784c-.621,1.752-6.236.892-6.236.892-6.061.2-6.438,1.315-8.958,3.274s-6.691,18.772-6.691,18.772Z" transform="translate(-130.783 -194.909)" fill="#da2f37"/>
        <path id="Path_5965" data-name="Path 5965" d="M169.071,261.2a4.292,4.292,0,0,1-1.072.055c-.667,0-1.582-.046-2.589-.147s-1.918-.244-2.566-.372a4.423,4.423,0,0,1-1.044-.267,5.749,5.749,0,0,1,1.072.1c.653.083,1.559.2,2.562.3s1.913.17,2.571.216A5.669,5.669,0,0,1,169.071,261.2Z" transform="translate(-143.708 -220.992)" fill="#263238"/>
        <path id="Path_5966" data-name="Path 5966" d="M171.365,258.29a4.719,4.719,0,0,1-1.113.382,20.448,20.448,0,0,1-5.624.667,4.642,4.642,0,0,1-1.168-.11,7.865,7.865,0,0,1,1.168-.06c.722-.023,1.715-.074,2.81-.2s2.069-.313,2.759-.46A7.62,7.62,0,0,1,171.365,258.29Z" transform="translate(-144.605 -219.814)" fill="#263238"/>
        <path id="Path_5967" data-name="Path 5967" d="M193.572,241.47a4.787,4.787,0,0,1-.143,1.039c-.12.639-.3,1.513-.538,2.47s-.46,1.84-.662,2.437a4.6,4.6,0,0,1-.359.989,4.684,4.684,0,0,1,.193-1.03c.175-.717.372-1.545.593-2.451s.432-1.734.607-2.451a4.388,4.388,0,0,1,.308-1Z" transform="translate(-159.95 -210.729)" fill="#263238"/>
        <path id="Path_5968" data-name="Path 5968" d="M144.552,261.847a21.384,21.384,0,0,1-3.141-.731,21.816,21.816,0,0,1-3.081-.966,22.109,22.109,0,0,1,3.141.731,21.586,21.586,0,0,1,3.081.966Z" transform="translate(-131.032 -220.819)" fill="#263238"/>
        <path id="Path_5969" data-name="Path 5969" d="M191.9,222.386a1.545,1.545,0,0,1-.524,0,5.449,5.449,0,0,1-1.4-.336,5.762,5.762,0,0,1-3.33-3.27,5.942,5.942,0,0,1-.409-2.589,4.024,4.024,0,0,1,.63-2.051,2.13,2.13,0,0,1,1.163-.86,1.408,1.408,0,0,1,.391-.051h.138a1.491,1.491,0,0,0-.5.124,2.092,2.092,0,0,0-1.053.86,5.249,5.249,0,0,0-.133,4.461,5.619,5.619,0,0,0,1.421,2.079,6.037,6.037,0,0,0,1.743,1.122,8.857,8.857,0,0,0,1.867.51Z" transform="translate(-156.899 -195.476)" fill="#263238"/>
        <path id="Path_5970" data-name="Path 5970" d="M221.731,224.046a75.155,75.155,0,0,1,.018-8.476,38.189,38.189,0,0,1,.11,4.235A36.793,36.793,0,0,1,221.731,224.046Z" transform="translate(-176.01 -196.74)" fill="#263238"/>
        <path id="Path_5971" data-name="Path 5971" d="M177.147,194.38c.051-1.026.156-2.184.156-2.184a3.072,3.072,0,0,0,2.69-2.9c.152-2.621,0-8.669,0-8.669l-4.6-2.355-5.1,4.015.786,13.107,4.682.3A1.352,1.352,0,0,0,177.147,194.38Z" transform="translate(-148.294 -176.594)" fill="#ffbe9d"/>
        <path id="Path_5972" data-name="Path 5972" d="M184.959,195.974a.213.213,0,0,1-.041.11.34.34,0,0,1-.29.129c-.294,0-.579-.34-.681-.736a1.2,1.2,0,0,1,0-.584.506.506,0,0,1,.276-.4.253.253,0,0,1,.193,0,.235.235,0,0,1,.106.106.13.13,0,0,1,0,.124.134.134,0,0,0-.046-.092.166.166,0,0,0-.216-.046.391.391,0,0,0-.189.327,1.177,1.177,0,0,0,0,.52c.092.359.34.648.561.676a.317.317,0,0,0,.244-.069C184.932,196.006,184.95,195.969,184.959,195.974Z" transform="translate(-155.651 -185.348)" fill="#eb996e"/>
        <path id="Path_5973" data-name="Path 5973" d="M167.448,177.239c-.354-1.2-1.637-1.8-2.805-2.134a8.838,8.838,0,0,0-5.44-.087c-1.738.639-3.826,1.761-3.826,3.679-1.025-.083-1.614.814-2.019,1.927a7.22,7.22,0,0,0-.46,2.115h0c-.129,2.511-.832,5.978-2.46,7.818-.92,1.026-2.194,1.734-2.718,3.012-.46,1.108-.221,2.424-.648,3.546a12.473,12.473,0,0,1-1.839,2.552,6.843,6.843,0,0,0-.437,6.618,8.379,8.379,0,0,0,5.008,4.323,11.713,11.713,0,0,0,6.6.064,11.037,11.037,0,0,0,4.424-2.194,7.386,7.386,0,0,0,2.566-4.249,15.2,15.2,0,0,0-.589-5.652c-1.223-5.9-.874-6.208.671-11.685.037-.1.055-.2.083-.294s.041-.143.06-.216h0a3.469,3.469,0,0,0,.069-.658,1.265,1.265,0,0,1-1.329-.285,1.38,1.38,0,0,1-.313-1.38,2.005,2.005,0,0,1,1.186-1.118c.51-.212,1.058-.322,1.559-.556a5.209,5.209,0,0,0,2.3-2.654,3.642,3.642,0,0,0,.359-2.493Z" transform="translate(-134.171 -174.625)" fill="#263238"/>
        <path id="Path_5974" data-name="Path 5974" d="M185.671,198a2.251,2.251,0,0,1,.239.46c.138.29.322.7.524,1.173l.037.087h-.1l-.46.041c-.317,0-.584.06-.9.055a.166.166,0,0,1-.12-.106.207.207,0,0,1,0-.129,1.85,1.85,0,0,1,.041-.184l.083-.327a3.113,3.113,0,0,1,.193-.635,3.105,3.105,0,0,1-.1.658l-.064.327c-.023.11-.064.281,0,.267.23,0,.556-.051.86-.069l.46-.041-.06.1c-.2-.46-.363-.892-.46-1.191a1.794,1.794,0,0,1-.184-.487Z" transform="translate(-156.179 -187.25)" fill="#da2f37"/>
        <path id="Path_5975" data-name="Path 5975" d="M151.194,281.441l20.4-.621,8.876,34.647-1.633,39.743H168.048l1.32-38.9-7.887-24.121L162.7,356.75l-10.9.161-1.145-60.681c-.051-1.688-.6-5.491-.4-7.165Z" transform="translate(-137.448 -231.983)" fill="#263238"/>
        <path id="Path_5976" data-name="Path 5976" d="M172.81,305.033a4.079,4.079,0,0,1-1-.06c-.616-.074-1.458-.2-2.382-.386s-1.752-.4-2.35-.566a3.8,3.8,0,0,1-.92-.331c0-.069,1.5.29,3.339.662S172.819,304.964,172.81,305.033Z" transform="translate(-146.063 -244.331)" fill="#455a64"/>
        <path id="Path_5977" data-name="Path 5977" d="M199.393,437.7c0,.064-2.442.12-5.454.12s-5.459-.055-5.459-.12,2.442-.12,5.459-.12S199.393,437.631,199.393,437.7Z" transform="translate(-158.119 -316.653)" fill="#455a64"/>
        <path id="Path_5978" data-name="Path 5978" d="M164.711,442.14c0,.069-2.373.12-5.3.12s-5.293-.051-5.293-.12,2.373-.12,5.293-.12S164.711,442.075,164.711,442.14Z" transform="translate(-139.56 -319.051)" fill="#455a64"/>
        <path id="Path_5979" data-name="Path 5979" d="M172.855,367.912c-.064,0-.35-14.1-.639-31.5s-.46-31.511-.4-31.511.354,14.1.639,31.506S172.924,367.912,172.855,367.912Z" transform="translate(-149.112 -244.989)" fill="#455a64"/>
        <path id="Path_5980" data-name="Path 5980" d="M200.423,353.759a1.175,1.175,0,0,1,0-.189v-.552c0-.5.037-1.21.064-2.115.064-1.839.156-4.511.271-7.786.248-6.585.6-15.663.98-25.684v-.239c-2.414-9.657-4.6-18.423-6.185-24.764l-1.84-7.5c-.212-.878-.373-1.564-.487-2.042-.055-.225-.092-.4-.124-.533a.8.8,0,0,1-.032-.184,1.017,1.017,0,0,1,.055.179c.037.129.083.3.147.524.124.46.3,1.159.533,2.033.46,1.775,1.108,4.332,1.918,7.482,1.6,6.337,3.808,15.079,6.254,24.751v.3c-.409,10.021-.782,19.094-1.053,25.68-.143,3.279-.262,5.932-.345,7.781-.046.92-.083,1.619-.106,2.115,0,.235-.028.419-.032.552A.878.878,0,0,1,200.423,353.759Z" transform="translate(-160.598 -232.712)" fill="#455a64"/>
        <path id="Path_5981" data-name="Path 5981" d="M195.658,356.5a12.325,12.325,0,0,1-2.382.529c-.993.17-1.84.29-2.221.308v-.092c.124.037.189.06.189.078s-.078,0-.207,0h-.276l.276-.083c.359-.106,1.2-.28,2.2-.46a12.414,12.414,0,0,1,2.424-.281Z" transform="translate(-159.35 -272.86)" fill="#455a64"/>
        <path id="Path_5982" data-name="Path 5982" d="M195.966,358.928a11.868,11.868,0,0,1-2.148-.1,12.126,12.126,0,0,1-2.138-.235,13.618,13.618,0,0,1,4.286.331Z" transform="translate(-159.847 -273.968)" fill="#455a64"/>
        <path id="Path_5983" data-name="Path 5983" d="M152.16,282.172a2.8,2.8,0,0,0,2.014,1.071,9.072,9.072,0,0,0,2.47-.046,128.3,128.3,0,0,0,16-2.378c-6.673.372-13.723.248-20.4.621l-.069.57" transform="translate(-138.502 -231.983)" opacity="0.2"/>
        <g id="Group_5756" data-name="Group 5756" transform="translate(20.534 59.593)" opacity="0.2">
          <path id="Path_5984" data-name="Path 5984" d="M167.11,304.21l3.762,14.6-.262-13.98Z" transform="translate(-167.11 -304.21)"/>
        </g>
      </g>
    </g>
  </g>
</svg>
